<?xml version="1.0" encoding="utf-8" standalone="no"?>
<!DOCTYPE svg PUBLIC "-//W3C//DTD SVG 1.1//EN"
  "http://www.w3.org/Graphics/SVG/1.1/DTD/svg11.dtd">
<svg xmlns:xlink="http://www.w3.org/1999/xlink" width="864pt" height="432pt" viewBox="0 0 864 432" xmlns="http://www.w3.org/2000/svg" version="1.1">
 <metadata>
  <rdf:RDF xmlns:dc="http://purl.org/dc/elements/1.1/" xmlns:cc="http://creativecommons.org/ns#" xmlns:rdf="http://www.w3.org/1999/02/22-rdf-syntax-ns#">
   <cc:Work>
    <dc:type rdf:resource="http://purl.org/dc/dcmitype/StillImage"/>
    <dc:date>2025-03-08T18:57:52.831048</dc:date>
    <dc:format>image/svg+xml</dc:format>
    <dc:creator>
     <cc:Agent>
      <dc:title>Matplotlib v3.9.2, https://matplotlib.org/</dc:title>
     </cc:Agent>
    </dc:creator>
   </cc:Work>
  </rdf:RDF>
 </metadata>
 <defs>
  <style type="text/css">*{stroke-linejoin: round; stroke-linecap: butt}</style>
 </defs>
 <g id="figure_1">
  <g id="patch_1">
   <path d="M 0 432 
L 864 432 
L 864 0 
L 0 0 
z
" style="fill: #ffffff"/>
  </g>
  <g id="axes_1">
   <g id="patch_2">
    <path d="M 39.67625 346.551094 
L 818.26 346.551094 
L 818.26 26.89125 
L 39.67625 26.89125 
z
" style="fill: #ffffff"/>
   </g>
   <g id="patch_3">
    <path d="M 75.06642 346.551094 
L 103.664538 346.551094 
L 103.664538 42.113147 
L 75.06642 42.113147 
z
" clip-path="url(#p1cbf97d7e0)" style="fill: #696969"/>
   </g>
   <g id="patch_4">
    <path d="M 110.814067 346.551094 
L 139.412185 346.551094 
L 139.412185 75.509334 
L 110.814067 75.509334 
z
" clip-path="url(#p1cbf97d7e0)" style="fill: #696969"/>
   </g>
   <g id="patch_5">
    <path d="M 146.561714 346.551094 
L 175.159832 346.551094 
L 175.159832 230.986238 
L 146.561714 230.986238 
z
" clip-path="url(#p1cbf97d7e0)" style="fill: #696969"/>
   </g>
   <g id="patch_6">
    <path d="M 182.309361 346.551094 
L 210.907479 346.551094 
L 210.907479 231.305669 
L 182.309361 231.305669 
z
" clip-path="url(#p1cbf97d7e0)" style="fill: #696969"/>
   </g>
   <g id="patch_7">
    <path d="M 218.057008 346.551094 
L 246.655126 346.551094 
L 246.655126 251.725602 
L 218.057008 251.725602 
z
" clip-path="url(#p1cbf97d7e0)" style="fill: #696969"/>
   </g>
   <g id="patch_8">
    <path d="M 253.804655 346.551094 
L 282.402773 346.551094 
L 282.402773 253.645039 
L 253.804655 253.645039 
z
" clip-path="url(#p1cbf97d7e0)" style="fill: #696969"/>
   </g>
   <g id="patch_9">
    <path d="M 289.552302 346.551094 
L 318.15042 346.551094 
L 318.15042 263.669924 
L 289.552302 263.669924 
z
" clip-path="url(#p1cbf97d7e0)" style="fill: #696969"/>
   </g>
   <g id="patch_10">
    <path d="M 325.299949 346.551094 
L 353.898066 346.551094 
L 353.898066 264.627875 
L 325.299949 264.627875 
z
" clip-path="url(#p1cbf97d7e0)" style="fill: #696969"/>
   </g>
   <g id="patch_11">
    <path d="M 361.047596 346.551094 
L 389.645713 346.551094 
L 389.645713 268.922185 
L 361.047596 268.922185 
z
" clip-path="url(#p1cbf97d7e0)" style="fill: #696969"/>
   </g>
   <g id="patch_12">
    <path d="M 396.795243 346.551094 
L 425.39336 346.551094 
L 425.39336 285.597753 
L 396.795243 285.597753 
z
" clip-path="url(#p1cbf97d7e0)" style="fill: #696969"/>
   </g>
   <g id="patch_13">
    <path d="M 432.54289 346.551094 
L 461.141007 346.551094 
L 461.141007 287.902121 
L 432.54289 287.902121 
z
" clip-path="url(#p1cbf97d7e0)" style="fill: #696969"/>
   </g>
   <g id="patch_14">
    <path d="M 468.290537 346.551094 
L 496.888654 346.551094 
L 496.888654 290.584448 
L 468.290537 290.584448 
z
" clip-path="url(#p1cbf97d7e0)" style="fill: #696969"/>
   </g>
   <g id="patch_15">
    <path d="M 504.038184 346.551094 
L 532.636301 346.551094 
L 532.636301 292.798559 
L 504.038184 292.798559 
z
" clip-path="url(#p1cbf97d7e0)" style="fill: #696969"/>
   </g>
   <g id="patch_16">
    <path d="M 539.78583 346.551094 
L 568.383948 346.551094 
L 568.383948 294.146119 
L 539.78583 294.146119 
z
" clip-path="url(#p1cbf97d7e0)" style="fill: #696969"/>
   </g>
   <g id="patch_17">
    <path d="M 575.533477 346.551094 
L 604.131595 346.551094 
L 604.131595 296.142557 
L 575.533477 296.142557 
z
" clip-path="url(#p1cbf97d7e0)" style="fill: #696969"/>
   </g>
   <g id="patch_18">
    <path d="M 611.281124 346.551094 
L 639.879242 346.551094 
L 639.879242 300.422547 
L 611.281124 300.422547 
z
" clip-path="url(#p1cbf97d7e0)" style="fill: #696969"/>
   </g>
   <g id="patch_19">
    <path d="M 647.028771 346.551094 
L 675.626889 346.551094 
L 675.626889 300.677758 
L 647.028771 300.677758 
z
" clip-path="url(#p1cbf97d7e0)" style="fill: #696969"/>
   </g>
   <g id="patch_20">
    <path d="M 682.776418 346.551094 
L 711.374536 346.551094 
L 711.374536 300.961018 
L 682.776418 300.961018 
z
" clip-path="url(#p1cbf97d7e0)" style="fill: #696969"/>
   </g>
   <g id="patch_21">
    <path d="M 718.524065 346.551094 
L 747.122183 346.551094 
L 747.122183 302.514243 
L 718.524065 302.514243 
z
" clip-path="url(#p1cbf97d7e0)" style="fill: #696969"/>
   </g>
   <g id="patch_22">
    <path d="M 754.271712 346.551094 
L 782.86983 346.551094 
L 782.86983 305.413399 
L 754.271712 305.413399 
z
" clip-path="url(#p1cbf97d7e0)" style="fill: #696969"/>
   </g>
   <g id="matplotlib.axis_1">
    <g id="xtick_1">
     <g id="line2d_1">
      <defs>
       <path id="m812c47e15d" d="M 0 0 
L 0 3.5 
" style="stroke: #000000; stroke-width: 0.8"/>
      </defs>
      <g>
       <use xlink:href="#m812c47e15d" x="89.365479" y="346.551094" style="stroke: #000000; stroke-width: 0.8"/>
      </g>
     </g>
     <g id="text_1">
      <!-- BTS -->
      <g transform="translate(74.235604 372.583315) rotate(-45) scale(0.1 -0.1)">
       <defs>
        <path id="DejaVuSans-42" d="M 1259 2228 
L 1259 519 
L 2272 519 
Q 2781 519 3026 730 
Q 3272 941 3272 1375 
Q 3272 1813 3026 2020 
Q 2781 2228 2272 2228 
L 1259 2228 
z
M 1259 4147 
L 1259 2741 
L 2194 2741 
Q 2656 2741 2882 2914 
Q 3109 3088 3109 3444 
Q 3109 3797 2882 3972 
Q 2656 4147 2194 4147 
L 1259 4147 
z
M 628 4666 
L 2241 4666 
Q 2963 4666 3353 4366 
Q 3744 4066 3744 3513 
Q 3744 3084 3544 2831 
Q 3344 2578 2956 2516 
Q 3422 2416 3680 2098 
Q 3938 1781 3938 1306 
Q 3938 681 3513 340 
Q 3088 0 2303 0 
L 628 0 
L 628 4666 
z
" transform="scale(0.015625)"/>
        <path id="DejaVuSans-54" d="M -19 4666 
L 3928 4666 
L 3928 4134 
L 2272 4134 
L 2272 0 
L 1638 0 
L 1638 4134 
L -19 4134 
L -19 4666 
z
" transform="scale(0.015625)"/>
        <path id="DejaVuSans-53" d="M 3425 4513 
L 3425 3897 
Q 3066 4069 2747 4153 
Q 2428 4238 2131 4238 
Q 1616 4238 1336 4038 
Q 1056 3838 1056 3469 
Q 1056 3159 1242 3001 
Q 1428 2844 1947 2747 
L 2328 2669 
Q 3034 2534 3370 2195 
Q 3706 1856 3706 1288 
Q 3706 609 3251 259 
Q 2797 -91 1919 -91 
Q 1588 -91 1214 -16 
Q 841 59 441 206 
L 441 856 
Q 825 641 1194 531 
Q 1563 422 1919 422 
Q 2459 422 2753 634 
Q 3047 847 3047 1241 
Q 3047 1584 2836 1778 
Q 2625 1972 2144 2069 
L 1759 2144 
Q 1053 2284 737 2584 
Q 422 2884 422 3419 
Q 422 4038 858 4394 
Q 1294 4750 2059 4750 
Q 2388 4750 2728 4690 
Q 3069 4631 3425 4513 
z
" transform="scale(0.015625)"/>
       </defs>
       <use xlink:href="#DejaVuSans-42"/>
       <use xlink:href="#DejaVuSans-54" x="68.603516"/>
       <use xlink:href="#DejaVuSans-53" x="129.6875"/>
      </g>
     </g>
    </g>
    <g id="xtick_2">
     <g id="line2d_2">
      <g>
       <use xlink:href="#m812c47e15d" x="125.113126" y="346.551094" style="stroke: #000000; stroke-width: 0.8"/>
      </g>
     </g>
     <g id="text_2">
      <!-- Taylor Swift -->
      <g transform="translate(83.152968 399.413598) rotate(-45) scale(0.1 -0.1)">
       <defs>
        <path id="DejaVuSans-61" d="M 2194 1759 
Q 1497 1759 1228 1600 
Q 959 1441 959 1056 
Q 959 750 1161 570 
Q 1363 391 1709 391 
Q 2188 391 2477 730 
Q 2766 1069 2766 1631 
L 2766 1759 
L 2194 1759 
z
M 3341 1997 
L 3341 0 
L 2766 0 
L 2766 531 
Q 2569 213 2275 61 
Q 1981 -91 1556 -91 
Q 1019 -91 701 211 
Q 384 513 384 1019 
Q 384 1609 779 1909 
Q 1175 2209 1959 2209 
L 2766 2209 
L 2766 2266 
Q 2766 2663 2505 2880 
Q 2244 3097 1772 3097 
Q 1472 3097 1187 3025 
Q 903 2953 641 2809 
L 641 3341 
Q 956 3463 1253 3523 
Q 1550 3584 1831 3584 
Q 2591 3584 2966 3190 
Q 3341 2797 3341 1997 
z
" transform="scale(0.015625)"/>
        <path id="DejaVuSans-79" d="M 2059 -325 
Q 1816 -950 1584 -1140 
Q 1353 -1331 966 -1331 
L 506 -1331 
L 506 -850 
L 844 -850 
Q 1081 -850 1212 -737 
Q 1344 -625 1503 -206 
L 1606 56 
L 191 3500 
L 800 3500 
L 1894 763 
L 2988 3500 
L 3597 3500 
L 2059 -325 
z
" transform="scale(0.015625)"/>
        <path id="DejaVuSans-6c" d="M 603 4863 
L 1178 4863 
L 1178 0 
L 603 0 
L 603 4863 
z
" transform="scale(0.015625)"/>
        <path id="DejaVuSans-6f" d="M 1959 3097 
Q 1497 3097 1228 2736 
Q 959 2375 959 1747 
Q 959 1119 1226 758 
Q 1494 397 1959 397 
Q 2419 397 2687 759 
Q 2956 1122 2956 1747 
Q 2956 2369 2687 2733 
Q 2419 3097 1959 3097 
z
M 1959 3584 
Q 2709 3584 3137 3096 
Q 3566 2609 3566 1747 
Q 3566 888 3137 398 
Q 2709 -91 1959 -91 
Q 1206 -91 779 398 
Q 353 888 353 1747 
Q 353 2609 779 3096 
Q 1206 3584 1959 3584 
z
" transform="scale(0.015625)"/>
        <path id="DejaVuSans-72" d="M 2631 2963 
Q 2534 3019 2420 3045 
Q 2306 3072 2169 3072 
Q 1681 3072 1420 2755 
Q 1159 2438 1159 1844 
L 1159 0 
L 581 0 
L 581 3500 
L 1159 3500 
L 1159 2956 
Q 1341 3275 1631 3429 
Q 1922 3584 2338 3584 
Q 2397 3584 2469 3576 
Q 2541 3569 2628 3553 
L 2631 2963 
z
" transform="scale(0.015625)"/>
        <path id="DejaVuSans-20" transform="scale(0.015625)"/>
        <path id="DejaVuSans-77" d="M 269 3500 
L 844 3500 
L 1563 769 
L 2278 3500 
L 2956 3500 
L 3675 769 
L 4391 3500 
L 4966 3500 
L 4050 0 
L 3372 0 
L 2619 2869 
L 1863 0 
L 1184 0 
L 269 3500 
z
" transform="scale(0.015625)"/>
        <path id="DejaVuSans-69" d="M 603 3500 
L 1178 3500 
L 1178 0 
L 603 0 
L 603 3500 
z
M 603 4863 
L 1178 4863 
L 1178 4134 
L 603 4134 
L 603 4863 
z
" transform="scale(0.015625)"/>
        <path id="DejaVuSans-66" d="M 2375 4863 
L 2375 4384 
L 1825 4384 
Q 1516 4384 1395 4259 
Q 1275 4134 1275 3809 
L 1275 3500 
L 2222 3500 
L 2222 3053 
L 1275 3053 
L 1275 0 
L 697 0 
L 697 3053 
L 147 3053 
L 147 3500 
L 697 3500 
L 697 3744 
Q 697 4328 969 4595 
Q 1241 4863 1831 4863 
L 2375 4863 
z
" transform="scale(0.015625)"/>
        <path id="DejaVuSans-74" d="M 1172 4494 
L 1172 3500 
L 2356 3500 
L 2356 3053 
L 1172 3053 
L 1172 1153 
Q 1172 725 1289 603 
Q 1406 481 1766 481 
L 2356 481 
L 2356 0 
L 1766 0 
Q 1100 0 847 248 
Q 594 497 594 1153 
L 594 3053 
L 172 3053 
L 172 3500 
L 594 3500 
L 594 4494 
L 1172 4494 
z
" transform="scale(0.015625)"/>
       </defs>
       <use xlink:href="#DejaVuSans-54"/>
       <use xlink:href="#DejaVuSans-61" x="44.583984"/>
       <use xlink:href="#DejaVuSans-79" x="105.863281"/>
       <use xlink:href="#DejaVuSans-6c" x="165.042969"/>
       <use xlink:href="#DejaVuSans-6f" x="192.826172"/>
       <use xlink:href="#DejaVuSans-72" x="254.007812"/>
       <use xlink:href="#DejaVuSans-20" x="295.121094"/>
       <use xlink:href="#DejaVuSans-53" x="326.908203"/>
       <use xlink:href="#DejaVuSans-77" x="390.384766"/>
       <use xlink:href="#DejaVuSans-69" x="472.171875"/>
       <use xlink:href="#DejaVuSans-66" x="499.955078"/>
       <use xlink:href="#DejaVuSans-74" x="533.410156"/>
      </g>
     </g>
    </g>
    <g id="xtick_3">
     <g id="line2d_3">
      <g>
       <use xlink:href="#m812c47e15d" x="160.860773" y="346.551094" style="stroke: #000000; stroke-width: 0.8"/>
      </g>
     </g>
     <g id="text_3">
      <!-- BLACKPINK -->
      <g transform="translate(119.875096 398.439117) rotate(-45) scale(0.1 -0.1)">
       <defs>
        <path id="DejaVuSans-4c" d="M 628 4666 
L 1259 4666 
L 1259 531 
L 3531 531 
L 3531 0 
L 628 0 
L 628 4666 
z
" transform="scale(0.015625)"/>
        <path id="DejaVuSans-41" d="M 2188 4044 
L 1331 1722 
L 3047 1722 
L 2188 4044 
z
M 1831 4666 
L 2547 4666 
L 4325 0 
L 3669 0 
L 3244 1197 
L 1141 1197 
L 716 0 
L 50 0 
L 1831 4666 
z
" transform="scale(0.015625)"/>
        <path id="DejaVuSans-43" d="M 4122 4306 
L 4122 3641 
Q 3803 3938 3442 4084 
Q 3081 4231 2675 4231 
Q 1875 4231 1450 3742 
Q 1025 3253 1025 2328 
Q 1025 1406 1450 917 
Q 1875 428 2675 428 
Q 3081 428 3442 575 
Q 3803 722 4122 1019 
L 4122 359 
Q 3791 134 3420 21 
Q 3050 -91 2638 -91 
Q 1578 -91 968 557 
Q 359 1206 359 2328 
Q 359 3453 968 4101 
Q 1578 4750 2638 4750 
Q 3056 4750 3426 4639 
Q 3797 4528 4122 4306 
z
" transform="scale(0.015625)"/>
        <path id="DejaVuSans-4b" d="M 628 4666 
L 1259 4666 
L 1259 2694 
L 3353 4666 
L 4166 4666 
L 1850 2491 
L 4331 0 
L 3500 0 
L 1259 2247 
L 1259 0 
L 628 0 
L 628 4666 
z
" transform="scale(0.015625)"/>
        <path id="DejaVuSans-50" d="M 1259 4147 
L 1259 2394 
L 2053 2394 
Q 2494 2394 2734 2622 
Q 2975 2850 2975 3272 
Q 2975 3691 2734 3919 
Q 2494 4147 2053 4147 
L 1259 4147 
z
M 628 4666 
L 2053 4666 
Q 2838 4666 3239 4311 
Q 3641 3956 3641 3272 
Q 3641 2581 3239 2228 
Q 2838 1875 2053 1875 
L 1259 1875 
L 1259 0 
L 628 0 
L 628 4666 
z
" transform="scale(0.015625)"/>
        <path id="DejaVuSans-49" d="M 628 4666 
L 1259 4666 
L 1259 0 
L 628 0 
L 628 4666 
z
" transform="scale(0.015625)"/>
        <path id="DejaVuSans-4e" d="M 628 4666 
L 1478 4666 
L 3547 763 
L 3547 4666 
L 4159 4666 
L 4159 0 
L 3309 0 
L 1241 3903 
L 1241 0 
L 628 0 
L 628 4666 
z
" transform="scale(0.015625)"/>
       </defs>
       <use xlink:href="#DejaVuSans-42"/>
       <use xlink:href="#DejaVuSans-4c" x="68.603516"/>
       <use xlink:href="#DejaVuSans-41" x="126.566406"/>
       <use xlink:href="#DejaVuSans-43" x="193.224609"/>
       <use xlink:href="#DejaVuSans-4b" x="263.048828"/>
       <use xlink:href="#DejaVuSans-50" x="328.625"/>
       <use xlink:href="#DejaVuSans-49" x="388.927734"/>
       <use xlink:href="#DejaVuSans-4e" x="418.419922"/>
       <use xlink:href="#DejaVuSans-4b" x="493.224609"/>
      </g>
     </g>
    </g>
    <g id="xtick_4">
     <g id="line2d_4">
      <g>
       <use xlink:href="#m812c47e15d" x="196.60842" y="346.551094" style="stroke: #000000; stroke-width: 0.8"/>
      </g>
     </g>
     <g id="text_4">
      <!-- Billie Eilish -->
      <g transform="translate(157.304332 396.757528) rotate(-45) scale(0.1 -0.1)">
       <defs>
        <path id="DejaVuSans-65" d="M 3597 1894 
L 3597 1613 
L 953 1613 
Q 991 1019 1311 708 
Q 1631 397 2203 397 
Q 2534 397 2845 478 
Q 3156 559 3463 722 
L 3463 178 
Q 3153 47 2828 -22 
Q 2503 -91 2169 -91 
Q 1331 -91 842 396 
Q 353 884 353 1716 
Q 353 2575 817 3079 
Q 1281 3584 2069 3584 
Q 2775 3584 3186 3129 
Q 3597 2675 3597 1894 
z
M 3022 2063 
Q 3016 2534 2758 2815 
Q 2500 3097 2075 3097 
Q 1594 3097 1305 2825 
Q 1016 2553 972 2059 
L 3022 2063 
z
" transform="scale(0.015625)"/>
        <path id="DejaVuSans-45" d="M 628 4666 
L 3578 4666 
L 3578 4134 
L 1259 4134 
L 1259 2753 
L 3481 2753 
L 3481 2222 
L 1259 2222 
L 1259 531 
L 3634 531 
L 3634 0 
L 628 0 
L 628 4666 
z
" transform="scale(0.015625)"/>
        <path id="DejaVuSans-73" d="M 2834 3397 
L 2834 2853 
Q 2591 2978 2328 3040 
Q 2066 3103 1784 3103 
Q 1356 3103 1142 2972 
Q 928 2841 928 2578 
Q 928 2378 1081 2264 
Q 1234 2150 1697 2047 
L 1894 2003 
Q 2506 1872 2764 1633 
Q 3022 1394 3022 966 
Q 3022 478 2636 193 
Q 2250 -91 1575 -91 
Q 1294 -91 989 -36 
Q 684 19 347 128 
L 347 722 
Q 666 556 975 473 
Q 1284 391 1588 391 
Q 1994 391 2212 530 
Q 2431 669 2431 922 
Q 2431 1156 2273 1281 
Q 2116 1406 1581 1522 
L 1381 1569 
Q 847 1681 609 1914 
Q 372 2147 372 2553 
Q 372 3047 722 3315 
Q 1072 3584 1716 3584 
Q 2034 3584 2315 3537 
Q 2597 3491 2834 3397 
z
" transform="scale(0.015625)"/>
        <path id="DejaVuSans-68" d="M 3513 2113 
L 3513 0 
L 2938 0 
L 2938 2094 
Q 2938 2591 2744 2837 
Q 2550 3084 2163 3084 
Q 1697 3084 1428 2787 
Q 1159 2491 1159 1978 
L 1159 0 
L 581 0 
L 581 4863 
L 1159 4863 
L 1159 2956 
Q 1366 3272 1645 3428 
Q 1925 3584 2291 3584 
Q 2894 3584 3203 3211 
Q 3513 2838 3513 2113 
z
" transform="scale(0.015625)"/>
       </defs>
       <use xlink:href="#DejaVuSans-42"/>
       <use xlink:href="#DejaVuSans-69" x="68.603516"/>
       <use xlink:href="#DejaVuSans-6c" x="96.386719"/>
       <use xlink:href="#DejaVuSans-6c" x="124.169922"/>
       <use xlink:href="#DejaVuSans-69" x="151.953125"/>
       <use xlink:href="#DejaVuSans-65" x="179.736328"/>
       <use xlink:href="#DejaVuSans-20" x="241.259766"/>
       <use xlink:href="#DejaVuSans-45" x="273.046875"/>
       <use xlink:href="#DejaVuSans-69" x="336.230469"/>
       <use xlink:href="#DejaVuSans-6c" x="364.013672"/>
       <use xlink:href="#DejaVuSans-69" x="391.796875"/>
       <use xlink:href="#DejaVuSans-73" x="419.580078"/>
       <use xlink:href="#DejaVuSans-68" x="471.679688"/>
      </g>
     </g>
    </g>
    <g id="xtick_5">
     <g id="line2d_5">
      <g>
       <use xlink:href="#m812c47e15d" x="232.356067" y="346.551094" style="stroke: #000000; stroke-width: 0.8"/>
      </g>
     </g>
     <g id="text_5">
      <!-- Ariana Grande -->
      <g transform="translate(179.741798 410.067709) rotate(-45) scale(0.1 -0.1)">
       <defs>
        <path id="DejaVuSans-6e" d="M 3513 2113 
L 3513 0 
L 2938 0 
L 2938 2094 
Q 2938 2591 2744 2837 
Q 2550 3084 2163 3084 
Q 1697 3084 1428 2787 
Q 1159 2491 1159 1978 
L 1159 0 
L 581 0 
L 581 3500 
L 1159 3500 
L 1159 2956 
Q 1366 3272 1645 3428 
Q 1925 3584 2291 3584 
Q 2894 3584 3203 3211 
Q 3513 2838 3513 2113 
z
" transform="scale(0.015625)"/>
        <path id="DejaVuSans-47" d="M 3809 666 
L 3809 1919 
L 2778 1919 
L 2778 2438 
L 4434 2438 
L 4434 434 
Q 4069 175 3628 42 
Q 3188 -91 2688 -91 
Q 1594 -91 976 548 
Q 359 1188 359 2328 
Q 359 3472 976 4111 
Q 1594 4750 2688 4750 
Q 3144 4750 3555 4637 
Q 3966 4525 4313 4306 
L 4313 3634 
Q 3963 3931 3569 4081 
Q 3175 4231 2741 4231 
Q 1884 4231 1454 3753 
Q 1025 3275 1025 2328 
Q 1025 1384 1454 906 
Q 1884 428 2741 428 
Q 3075 428 3337 486 
Q 3600 544 3809 666 
z
" transform="scale(0.015625)"/>
        <path id="DejaVuSans-64" d="M 2906 2969 
L 2906 4863 
L 3481 4863 
L 3481 0 
L 2906 0 
L 2906 525 
Q 2725 213 2448 61 
Q 2172 -91 1784 -91 
Q 1150 -91 751 415 
Q 353 922 353 1747 
Q 353 2572 751 3078 
Q 1150 3584 1784 3584 
Q 2172 3584 2448 3432 
Q 2725 3281 2906 2969 
z
M 947 1747 
Q 947 1113 1208 752 
Q 1469 391 1925 391 
Q 2381 391 2643 752 
Q 2906 1113 2906 1747 
Q 2906 2381 2643 2742 
Q 2381 3103 1925 3103 
Q 1469 3103 1208 2742 
Q 947 2381 947 1747 
z
" transform="scale(0.015625)"/>
       </defs>
       <use xlink:href="#DejaVuSans-41"/>
       <use xlink:href="#DejaVuSans-72" x="68.408203"/>
       <use xlink:href="#DejaVuSans-69" x="109.521484"/>
       <use xlink:href="#DejaVuSans-61" x="137.304688"/>
       <use xlink:href="#DejaVuSans-6e" x="198.583984"/>
       <use xlink:href="#DejaVuSans-61" x="261.962891"/>
       <use xlink:href="#DejaVuSans-20" x="323.242188"/>
       <use xlink:href="#DejaVuSans-47" x="355.029297"/>
       <use xlink:href="#DejaVuSans-72" x="432.519531"/>
       <use xlink:href="#DejaVuSans-61" x="473.632812"/>
       <use xlink:href="#DejaVuSans-6e" x="534.912109"/>
       <use xlink:href="#DejaVuSans-64" x="598.291016"/>
       <use xlink:href="#DejaVuSans-65" x="661.767578"/>
      </g>
     </g>
    </g>
    <g id="xtick_6">
     <g id="line2d_6">
      <g>
       <use xlink:href="#m812c47e15d" x="268.103714" y="346.551094" style="stroke: #000000; stroke-width: 0.8"/>
      </g>
     </g>
     <g id="text_6">
      <!-- The Weeknd -->
      <g transform="translate(222.891969 402.665184) rotate(-45) scale(0.1 -0.1)">
       <defs>
        <path id="DejaVuSans-57" d="M 213 4666 
L 850 4666 
L 1831 722 
L 2809 4666 
L 3519 4666 
L 4500 722 
L 5478 4666 
L 6119 4666 
L 4947 0 
L 4153 0 
L 3169 4050 
L 2175 0 
L 1381 0 
L 213 4666 
z
" transform="scale(0.015625)"/>
        <path id="DejaVuSans-6b" d="M 581 4863 
L 1159 4863 
L 1159 1991 
L 2875 3500 
L 3609 3500 
L 1753 1863 
L 3688 0 
L 2938 0 
L 1159 1709 
L 1159 0 
L 581 0 
L 581 4863 
z
" transform="scale(0.015625)"/>
       </defs>
       <use xlink:href="#DejaVuSans-54"/>
       <use xlink:href="#DejaVuSans-68" x="61.083984"/>
       <use xlink:href="#DejaVuSans-65" x="124.462891"/>
       <use xlink:href="#DejaVuSans-20" x="185.986328"/>
       <use xlink:href="#DejaVuSans-57" x="217.773438"/>
       <use xlink:href="#DejaVuSans-65" x="310.775391"/>
       <use xlink:href="#DejaVuSans-65" x="372.298828"/>
       <use xlink:href="#DejaVuSans-6b" x="433.822266"/>
       <use xlink:href="#DejaVuSans-6e" x="491.732422"/>
       <use xlink:href="#DejaVuSans-64" x="555.111328"/>
      </g>
     </g>
    </g>
    <g id="xtick_7">
     <g id="line2d_7">
      <g>
       <use xlink:href="#m812c47e15d" x="303.851361" y="346.551094" style="stroke: #000000; stroke-width: 0.8"/>
      </g>
     </g>
     <g id="text_7">
      <!-- Harry Styles -->
      <g transform="translate(259.162212 402.142588) rotate(-45) scale(0.1 -0.1)">
       <defs>
        <path id="DejaVuSans-48" d="M 628 4666 
L 1259 4666 
L 1259 2753 
L 3553 2753 
L 3553 4666 
L 4184 4666 
L 4184 0 
L 3553 0 
L 3553 2222 
L 1259 2222 
L 1259 0 
L 628 0 
L 628 4666 
z
" transform="scale(0.015625)"/>
       </defs>
       <use xlink:href="#DejaVuSans-48"/>
       <use xlink:href="#DejaVuSans-61" x="75.195312"/>
       <use xlink:href="#DejaVuSans-72" x="136.474609"/>
       <use xlink:href="#DejaVuSans-72" x="175.837891"/>
       <use xlink:href="#DejaVuSans-79" x="216.951172"/>
       <use xlink:href="#DejaVuSans-20" x="276.130859"/>
       <use xlink:href="#DejaVuSans-53" x="307.917969"/>
       <use xlink:href="#DejaVuSans-74" x="371.394531"/>
       <use xlink:href="#DejaVuSans-79" x="410.603516"/>
       <use xlink:href="#DejaVuSans-6c" x="469.783203"/>
       <use xlink:href="#DejaVuSans-65" x="497.566406"/>
       <use xlink:href="#DejaVuSans-73" x="559.089844"/>
      </g>
     </g>
    </g>
    <g id="xtick_8">
     <g id="line2d_8">
      <g>
       <use xlink:href="#m812c47e15d" x="339.599008" y="346.551094" style="stroke: #000000; stroke-width: 0.8"/>
      </g>
     </g>
     <g id="text_8">
      <!-- Mỹ Tâm -->
      <g transform="translate(310.877214 386.458076) rotate(-45) scale(0.1 -0.1)">
       <defs>
        <path id="DejaVuSans-4d" d="M 628 4666 
L 1569 4666 
L 2759 1491 
L 3956 4666 
L 4897 4666 
L 4897 0 
L 4281 0 
L 4281 4097 
L 3078 897 
L 2444 897 
L 1241 4097 
L 1241 0 
L 628 0 
L 628 4666 
z
" transform="scale(0.015625)"/>
        <path id="DejaVuSans-1ef9" d="M 1959 4281 
L 1781 4453 
Q 1713 4516 1661 4545 
Q 1609 4575 1569 4575 
Q 1450 4575 1394 4461 
Q 1338 4347 1331 4091 
L 941 4091 
Q 947 4513 1106 4742 
Q 1266 4972 1550 4972 
Q 1669 4972 1769 4928 
Q 1869 4884 1984 4781 
L 2163 4609 
Q 2231 4547 2282 4517 
Q 2334 4488 2375 4488 
Q 2494 4488 2550 4602 
Q 2606 4716 2613 4972 
L 3003 4972 
Q 2997 4550 2837 4320 
Q 2678 4091 2394 4091 
Q 2275 4091 2175 4134 
Q 2075 4178 1959 4281 
z
M 2059 -325 
Q 1816 -950 1584 -1140 
Q 1353 -1331 966 -1331 
L 506 -1331 
L 506 -850 
L 844 -850 
Q 1081 -850 1212 -737 
Q 1344 -625 1503 -206 
L 1606 56 
L 191 3500 
L 800 3500 
L 1894 763 
L 2988 3500 
L 3597 3500 
L 2059 -325 
z
" transform="scale(0.015625)"/>
        <path id="DejaVuSans-e2" d="M 2194 1759 
Q 1497 1759 1228 1600 
Q 959 1441 959 1056 
Q 959 750 1161 570 
Q 1363 391 1709 391 
Q 2188 391 2477 730 
Q 2766 1069 2766 1631 
L 2766 1759 
L 2194 1759 
z
M 3341 1997 
L 3341 0 
L 2766 0 
L 2766 531 
Q 2569 213 2275 61 
Q 1981 -91 1556 -91 
Q 1019 -91 701 211 
Q 384 513 384 1019 
Q 384 1609 779 1909 
Q 1175 2209 1959 2209 
L 2766 2209 
L 2766 2266 
Q 2766 2663 2505 2880 
Q 2244 3097 1772 3097 
Q 1472 3097 1187 3025 
Q 903 2953 641 2809 
L 641 3341 
Q 956 3463 1253 3523 
Q 1550 3584 1831 3584 
Q 2591 3584 2966 3190 
Q 3341 2797 3341 1997 
z
M 1625 5119 
L 2088 5119 
L 2853 3944 
L 2419 3944 
L 1856 4709 
L 1294 3944 
L 859 3944 
L 1625 5119 
z
" transform="scale(0.015625)"/>
        <path id="DejaVuSans-6d" d="M 3328 2828 
Q 3544 3216 3844 3400 
Q 4144 3584 4550 3584 
Q 5097 3584 5394 3201 
Q 5691 2819 5691 2113 
L 5691 0 
L 5113 0 
L 5113 2094 
Q 5113 2597 4934 2840 
Q 4756 3084 4391 3084 
Q 3944 3084 3684 2787 
Q 3425 2491 3425 1978 
L 3425 0 
L 2847 0 
L 2847 2094 
Q 2847 2600 2669 2842 
Q 2491 3084 2119 3084 
Q 1678 3084 1418 2786 
Q 1159 2488 1159 1978 
L 1159 0 
L 581 0 
L 581 3500 
L 1159 3500 
L 1159 2956 
Q 1356 3278 1631 3431 
Q 1906 3584 2284 3584 
Q 2666 3584 2933 3390 
Q 3200 3197 3328 2828 
z
" transform="scale(0.015625)"/>
       </defs>
       <use xlink:href="#DejaVuSans-4d"/>
       <use xlink:href="#DejaVuSans-1ef9" x="86.279297"/>
       <use xlink:href="#DejaVuSans-20" x="145.458984"/>
       <use xlink:href="#DejaVuSans-54" x="177.246094"/>
       <use xlink:href="#DejaVuSans-e2" x="226.705078"/>
       <use xlink:href="#DejaVuSans-6d" x="287.984375"/>
      </g>
     </g>
    </g>
    <g id="xtick_9">
     <g id="line2d_9">
      <g>
       <use xlink:href="#m812c47e15d" x="375.346655" y="346.551094" style="stroke: #000000; stroke-width: 0.8"/>
      </g>
     </g>
     <g id="text_9">
      <!-- Dua Lipa -->
      <g transform="translate(342.642966 390.157128) rotate(-45) scale(0.1 -0.1)">
       <defs>
        <path id="DejaVuSans-44" d="M 1259 4147 
L 1259 519 
L 2022 519 
Q 2988 519 3436 956 
Q 3884 1394 3884 2338 
Q 3884 3275 3436 3711 
Q 2988 4147 2022 4147 
L 1259 4147 
z
M 628 4666 
L 1925 4666 
Q 3281 4666 3915 4102 
Q 4550 3538 4550 2338 
Q 4550 1131 3912 565 
Q 3275 0 1925 0 
L 628 0 
L 628 4666 
z
" transform="scale(0.015625)"/>
        <path id="DejaVuSans-75" d="M 544 1381 
L 544 3500 
L 1119 3500 
L 1119 1403 
Q 1119 906 1312 657 
Q 1506 409 1894 409 
Q 2359 409 2629 706 
Q 2900 1003 2900 1516 
L 2900 3500 
L 3475 3500 
L 3475 0 
L 2900 0 
L 2900 538 
Q 2691 219 2414 64 
Q 2138 -91 1772 -91 
Q 1169 -91 856 284 
Q 544 659 544 1381 
z
M 1991 3584 
L 1991 3584 
z
" transform="scale(0.015625)"/>
        <path id="DejaVuSans-70" d="M 1159 525 
L 1159 -1331 
L 581 -1331 
L 581 3500 
L 1159 3500 
L 1159 2969 
Q 1341 3281 1617 3432 
Q 1894 3584 2278 3584 
Q 2916 3584 3314 3078 
Q 3713 2572 3713 1747 
Q 3713 922 3314 415 
Q 2916 -91 2278 -91 
Q 1894 -91 1617 61 
Q 1341 213 1159 525 
z
M 3116 1747 
Q 3116 2381 2855 2742 
Q 2594 3103 2138 3103 
Q 1681 3103 1420 2742 
Q 1159 2381 1159 1747 
Q 1159 1113 1420 752 
Q 1681 391 2138 391 
Q 2594 391 2855 752 
Q 3116 1113 3116 1747 
z
" transform="scale(0.015625)"/>
       </defs>
       <use xlink:href="#DejaVuSans-44"/>
       <use xlink:href="#DejaVuSans-75" x="77.001953"/>
       <use xlink:href="#DejaVuSans-61" x="140.380859"/>
       <use xlink:href="#DejaVuSans-20" x="201.660156"/>
       <use xlink:href="#DejaVuSans-4c" x="233.447266"/>
       <use xlink:href="#DejaVuSans-69" x="289.160156"/>
       <use xlink:href="#DejaVuSans-70" x="316.943359"/>
       <use xlink:href="#DejaVuSans-61" x="380.419922"/>
      </g>
     </g>
    </g>
    <g id="xtick_10">
     <g id="line2d_10">
      <g>
       <use xlink:href="#m812c47e15d" x="411.094302" y="346.551094" style="stroke: #000000; stroke-width: 0.8"/>
      </g>
     </g>
     <g id="text_10">
      <!-- Drake -->
      <g transform="translate(388.749727 379.798014) rotate(-45) scale(0.1 -0.1)">
       <use xlink:href="#DejaVuSans-44"/>
       <use xlink:href="#DejaVuSans-72" x="77.001953"/>
       <use xlink:href="#DejaVuSans-61" x="118.115234"/>
       <use xlink:href="#DejaVuSans-6b" x="179.394531"/>
       <use xlink:href="#DejaVuSans-65" x="233.679688"/>
      </g>
     </g>
    </g>
    <g id="xtick_11">
     <g id="line2d_11">
      <g>
       <use xlink:href="#m812c47e15d" x="446.841948" y="346.551094" style="stroke: #000000; stroke-width: 0.8"/>
      </g>
     </g>
     <g id="text_11">
      <!-- Ed Sheeran -->
      <g transform="translate(404.773514 399.521874) rotate(-45) scale(0.1 -0.1)">
       <use xlink:href="#DejaVuSans-45"/>
       <use xlink:href="#DejaVuSans-64" x="63.183594"/>
       <use xlink:href="#DejaVuSans-20" x="126.660156"/>
       <use xlink:href="#DejaVuSans-53" x="158.447266"/>
       <use xlink:href="#DejaVuSans-68" x="221.923828"/>
       <use xlink:href="#DejaVuSans-65" x="285.302734"/>
       <use xlink:href="#DejaVuSans-65" x="346.826172"/>
       <use xlink:href="#DejaVuSans-72" x="408.349609"/>
       <use xlink:href="#DejaVuSans-61" x="449.462891"/>
       <use xlink:href="#DejaVuSans-6e" x="510.742188"/>
      </g>
     </g>
    </g>
    <g id="xtick_12">
     <g id="line2d_12">
      <g>
       <use xlink:href="#m812c47e15d" x="482.589595" y="346.551094" style="stroke: #000000; stroke-width: 0.8"/>
      </g>
     </g>
     <g id="text_12">
      <!-- Lauv -->
      <g transform="translate(464.179407 375.863628) rotate(-45) scale(0.1 -0.1)">
       <defs>
        <path id="DejaVuSans-76" d="M 191 3500 
L 800 3500 
L 1894 563 
L 2988 3500 
L 3597 3500 
L 2284 0 
L 1503 0 
L 191 3500 
z
" transform="scale(0.015625)"/>
       </defs>
       <use xlink:href="#DejaVuSans-4c"/>
       <use xlink:href="#DejaVuSans-61" x="55.712891"/>
       <use xlink:href="#DejaVuSans-75" x="116.992188"/>
       <use xlink:href="#DejaVuSans-76" x="180.371094"/>
      </g>
     </g>
    </g>
    <g id="xtick_13">
     <g id="line2d_13">
      <g>
       <use xlink:href="#m812c47e15d" x="518.337242" y="346.551094" style="stroke: #000000; stroke-width: 0.8"/>
      </g>
     </g>
     <g id="text_13">
      <!-- Shawn Mendes -->
      <g transform="translate(463.595024 412.195658) rotate(-45) scale(0.1 -0.1)">
       <use xlink:href="#DejaVuSans-53"/>
       <use xlink:href="#DejaVuSans-68" x="63.476562"/>
       <use xlink:href="#DejaVuSans-61" x="126.855469"/>
       <use xlink:href="#DejaVuSans-77" x="188.134766"/>
       <use xlink:href="#DejaVuSans-6e" x="269.921875"/>
       <use xlink:href="#DejaVuSans-20" x="333.300781"/>
       <use xlink:href="#DejaVuSans-4d" x="365.087891"/>
       <use xlink:href="#DejaVuSans-65" x="451.367188"/>
       <use xlink:href="#DejaVuSans-6e" x="512.890625"/>
       <use xlink:href="#DejaVuSans-64" x="576.269531"/>
       <use xlink:href="#DejaVuSans-65" x="639.746094"/>
       <use xlink:href="#DejaVuSans-73" x="701.269531"/>
      </g>
     </g>
    </g>
    <g id="xtick_14">
     <g id="line2d_14">
      <g>
       <use xlink:href="#m812c47e15d" x="554.084889" y="346.551094" style="stroke: #000000; stroke-width: 0.8"/>
      </g>
     </g>
     <g id="text_14">
      <!-- Charlie Puth -->
      <g transform="translate(509.553735 401.984594) rotate(-45) scale(0.1 -0.1)">
       <use xlink:href="#DejaVuSans-43"/>
       <use xlink:href="#DejaVuSans-68" x="69.824219"/>
       <use xlink:href="#DejaVuSans-61" x="133.203125"/>
       <use xlink:href="#DejaVuSans-72" x="194.482422"/>
       <use xlink:href="#DejaVuSans-6c" x="235.595703"/>
       <use xlink:href="#DejaVuSans-69" x="263.378906"/>
       <use xlink:href="#DejaVuSans-65" x="291.162109"/>
       <use xlink:href="#DejaVuSans-20" x="352.685547"/>
       <use xlink:href="#DejaVuSans-50" x="384.472656"/>
       <use xlink:href="#DejaVuSans-75" x="443.025391"/>
       <use xlink:href="#DejaVuSans-74" x="506.404297"/>
       <use xlink:href="#DejaVuSans-68" x="545.613281"/>
      </g>
     </g>
    </g>
    <g id="xtick_15">
     <g id="line2d_15">
      <g>
       <use xlink:href="#m812c47e15d" x="589.832536" y="346.551094" style="stroke: #000000; stroke-width: 0.8"/>
      </g>
     </g>
     <g id="text_15">
      <!-- Vũ. -->
      <g transform="translate(576.79636 370.489616) rotate(-45) scale(0.1 -0.1)">
       <defs>
        <path id="DejaVuSans-56" d="M 1831 0 
L 50 4666 
L 709 4666 
L 2188 738 
L 3669 4666 
L 4325 4666 
L 2547 0 
L 1831 0 
z
" transform="scale(0.015625)"/>
        <path id="DejaVuSans-169" d="M 1997 4281 
L 1819 4453 
Q 1750 4516 1698 4545 
Q 1647 4575 1606 4575 
Q 1488 4575 1431 4461 
Q 1375 4347 1369 4091 
L 978 4091 
Q 984 4513 1143 4742 
Q 1303 4972 1588 4972 
Q 1706 4972 1806 4928 
Q 1906 4884 2022 4781 
L 2200 4609 
Q 2269 4547 2320 4517 
Q 2372 4488 2413 4488 
Q 2531 4488 2587 4602 
Q 2644 4716 2650 4972 
L 3041 4972 
Q 3034 4550 2875 4320 
Q 2716 4091 2431 4091 
Q 2313 4091 2213 4134 
Q 2113 4178 1997 4281 
z
M 544 1381 
L 544 3500 
L 1119 3500 
L 1119 1403 
Q 1119 906 1312 657 
Q 1506 409 1894 409 
Q 2359 409 2629 706 
Q 2900 1003 2900 1516 
L 2900 3500 
L 3475 3500 
L 3475 0 
L 2900 0 
L 2900 538 
Q 2691 219 2414 64 
Q 2138 -91 1772 -91 
Q 1169 -91 856 284 
Q 544 659 544 1381 
z
M 1991 3584 
L 1991 3584 
z
" transform="scale(0.015625)"/>
        <path id="DejaVuSans-2e" d="M 684 794 
L 1344 794 
L 1344 0 
L 684 0 
L 684 794 
z
" transform="scale(0.015625)"/>
       </defs>
       <use xlink:href="#DejaVuSans-56"/>
       <use xlink:href="#DejaVuSans-169" x="68.408203"/>
       <use xlink:href="#DejaVuSans-2e" x="131.787109"/>
      </g>
     </g>
    </g>
    <g id="xtick_16">
     <g id="line2d_16">
      <g>
       <use xlink:href="#m812c47e15d" x="625.580183" y="346.551094" style="stroke: #000000; stroke-width: 0.8"/>
      </g>
     </g>
     <g id="text_16">
      <!-- Sơn Tùng M-TP -->
      <g transform="translate(572.930559 410.385907) rotate(-45) scale(0.1 -0.1)">
       <defs>
        <path id="DejaVuSans-1a1" d="M 2625 3106 
L 2625 3478 
Q 2816 3337 2953 3270 
Q 3091 3203 3188 3203 
Q 3331 3203 3403 3289 
Q 3475 3375 3475 3543 
Q 3475 3643 3451 3740 
Q 3428 3837 3381 3934 
L 3797 3934 
Q 3828 3815 3843 3709 
Q 3859 3603 3859 3509 
Q 3859 3128 3723 2948 
Q 3588 2768 3297 2768 
Q 3147 2768 2983 2851 
Q 2819 2934 2625 3106 
z
M 1975 3097 
Q 1513 3097 1244 2736 
Q 975 2375 975 1747 
Q 975 1119 1242 758 
Q 1509 397 1975 397 
Q 2434 397 2703 759 
Q 2972 1122 2972 1747 
Q 2972 2369 2703 2733 
Q 2434 3097 1975 3097 
z
M 1975 3584 
Q 2725 3584 3153 3096 
Q 3581 2609 3581 1747 
Q 3581 888 3153 398 
Q 2725 -91 1975 -91 
Q 1222 -91 795 398 
Q 369 888 369 1747 
Q 369 2609 795 3096 
Q 1222 3584 1975 3584 
z
" transform="scale(0.015625)"/>
        <path id="DejaVuSans-f9" d="M 544 1381 
L 544 3500 
L 1119 3500 
L 1119 1403 
Q 1119 906 1312 657 
Q 1506 409 1894 409 
Q 2359 409 2629 706 
Q 2900 1003 2900 1516 
L 2900 3500 
L 3475 3500 
L 3475 0 
L 2900 0 
L 2900 538 
Q 2691 219 2414 64 
Q 2138 -91 1772 -91 
Q 1169 -91 856 284 
Q 544 659 544 1381 
z
M 1991 3584 
L 1991 3584 
z
M 1531 5119 
L 2413 3950 
L 1934 3950 
L 916 5119 
L 1531 5119 
z
" transform="scale(0.015625)"/>
        <path id="DejaVuSans-67" d="M 2906 1791 
Q 2906 2416 2648 2759 
Q 2391 3103 1925 3103 
Q 1463 3103 1205 2759 
Q 947 2416 947 1791 
Q 947 1169 1205 825 
Q 1463 481 1925 481 
Q 2391 481 2648 825 
Q 2906 1169 2906 1791 
z
M 3481 434 
Q 3481 -459 3084 -895 
Q 2688 -1331 1869 -1331 
Q 1566 -1331 1297 -1286 
Q 1028 -1241 775 -1147 
L 775 -588 
Q 1028 -725 1275 -790 
Q 1522 -856 1778 -856 
Q 2344 -856 2625 -561 
Q 2906 -266 2906 331 
L 2906 616 
Q 2728 306 2450 153 
Q 2172 0 1784 0 
Q 1141 0 747 490 
Q 353 981 353 1791 
Q 353 2603 747 3093 
Q 1141 3584 1784 3584 
Q 2172 3584 2450 3431 
Q 2728 3278 2906 2969 
L 2906 3500 
L 3481 3500 
L 3481 434 
z
" transform="scale(0.015625)"/>
        <path id="DejaVuSans-2d" d="M 313 2009 
L 1997 2009 
L 1997 1497 
L 313 1497 
L 313 2009 
z
" transform="scale(0.015625)"/>
       </defs>
       <use xlink:href="#DejaVuSans-53"/>
       <use xlink:href="#DejaVuSans-1a1" x="63.476562"/>
       <use xlink:href="#DejaVuSans-6e" x="124.658203"/>
       <use xlink:href="#DejaVuSans-20" x="188.037109"/>
       <use xlink:href="#DejaVuSans-54" x="219.824219"/>
       <use xlink:href="#DejaVuSans-f9" x="267.158203"/>
       <use xlink:href="#DejaVuSans-6e" x="330.537109"/>
       <use xlink:href="#DejaVuSans-67" x="393.916016"/>
       <use xlink:href="#DejaVuSans-20" x="457.392578"/>
       <use xlink:href="#DejaVuSans-4d" x="489.179688"/>
       <use xlink:href="#DejaVuSans-2d" x="575.458984"/>
       <use xlink:href="#DejaVuSans-54" x="602.417969"/>
       <use xlink:href="#DejaVuSans-50" x="663.501953"/>
      </g>
     </g>
    </g>
    <g id="xtick_17">
     <g id="line2d_17">
      <g>
       <use xlink:href="#m812c47e15d" x="661.32783" y="346.551094" style="stroke: #000000; stroke-width: 0.8"/>
      </g>
     </g>
     <g id="text_17">
      <!-- Imagine Dragons -->
      <g transform="translate(599.35213 419.429139) rotate(-45) scale(0.1 -0.1)">
       <use xlink:href="#DejaVuSans-49"/>
       <use xlink:href="#DejaVuSans-6d" x="29.492188"/>
       <use xlink:href="#DejaVuSans-61" x="126.904297"/>
       <use xlink:href="#DejaVuSans-67" x="188.183594"/>
       <use xlink:href="#DejaVuSans-69" x="251.660156"/>
       <use xlink:href="#DejaVuSans-6e" x="279.443359"/>
       <use xlink:href="#DejaVuSans-65" x="342.822266"/>
       <use xlink:href="#DejaVuSans-20" x="404.345703"/>
       <use xlink:href="#DejaVuSans-44" x="436.132812"/>
       <use xlink:href="#DejaVuSans-72" x="513.134766"/>
       <use xlink:href="#DejaVuSans-61" x="554.248047"/>
       <use xlink:href="#DejaVuSans-67" x="615.527344"/>
       <use xlink:href="#DejaVuSans-6f" x="679.003906"/>
       <use xlink:href="#DejaVuSans-6e" x="740.185547"/>
       <use xlink:href="#DejaVuSans-73" x="803.564453"/>
      </g>
     </g>
    </g>
    <g id="xtick_18">
     <g id="line2d_18">
      <g>
       <use xlink:href="#m812c47e15d" x="697.075477" y="346.551094" style="stroke: #000000; stroke-width: 0.8"/>
      </g>
     </g>
     <g id="text_18">
      <!-- Lil Nas X -->
      <g transform="translate(665.091048 389.437868) rotate(-45) scale(0.1 -0.1)">
       <defs>
        <path id="DejaVuSans-58" d="M 403 4666 
L 1081 4666 
L 2241 2931 
L 3406 4666 
L 4084 4666 
L 2584 2425 
L 4184 0 
L 3506 0 
L 2194 1984 
L 872 0 
L 191 0 
L 1856 2491 
L 403 4666 
z
" transform="scale(0.015625)"/>
       </defs>
       <use xlink:href="#DejaVuSans-4c"/>
       <use xlink:href="#DejaVuSans-69" x="55.712891"/>
       <use xlink:href="#DejaVuSans-6c" x="83.496094"/>
       <use xlink:href="#DejaVuSans-20" x="111.279297"/>
       <use xlink:href="#DejaVuSans-4e" x="143.066406"/>
       <use xlink:href="#DejaVuSans-61" x="217.871094"/>
       <use xlink:href="#DejaVuSans-73" x="279.150391"/>
       <use xlink:href="#DejaVuSans-20" x="331.25"/>
       <use xlink:href="#DejaVuSans-58" x="363.037109"/>
      </g>
     </g>
    </g>
    <g id="xtick_19">
     <g id="line2d_19">
      <g>
       <use xlink:href="#m812c47e15d" x="732.823124" y="346.551094" style="stroke: #000000; stroke-width: 0.8"/>
      </g>
     </g>
     <g id="text_19">
      <!-- Doja Cat -->
      <g transform="translate(700.993375 389.283189) rotate(-45) scale(0.1 -0.1)">
       <defs>
        <path id="DejaVuSans-6a" d="M 603 3500 
L 1178 3500 
L 1178 -63 
Q 1178 -731 923 -1031 
Q 669 -1331 103 -1331 
L -116 -1331 
L -116 -844 
L 38 -844 
Q 366 -844 484 -692 
Q 603 -541 603 -63 
L 603 3500 
z
M 603 4863 
L 1178 4863 
L 1178 4134 
L 603 4134 
L 603 4863 
z
" transform="scale(0.015625)"/>
       </defs>
       <use xlink:href="#DejaVuSans-44"/>
       <use xlink:href="#DejaVuSans-6f" x="77.001953"/>
       <use xlink:href="#DejaVuSans-6a" x="138.183594"/>
       <use xlink:href="#DejaVuSans-61" x="165.966797"/>
       <use xlink:href="#DejaVuSans-20" x="227.246094"/>
       <use xlink:href="#DejaVuSans-43" x="259.033203"/>
       <use xlink:href="#DejaVuSans-61" x="328.857422"/>
       <use xlink:href="#DejaVuSans-74" x="390.136719"/>
      </g>
     </g>
    </g>
    <g id="xtick_20">
     <g id="line2d_20">
      <g>
       <use xlink:href="#m812c47e15d" x="768.570771" y="346.551094" style="stroke: #000000; stroke-width: 0.8"/>
      </g>
     </g>
     <g id="text_20">
      <!-- Khalid -->
      <g transform="translate(745.230723 380.793488) rotate(-45) scale(0.1 -0.1)">
       <use xlink:href="#DejaVuSans-4b"/>
       <use xlink:href="#DejaVuSans-68" x="65.576172"/>
       <use xlink:href="#DejaVuSans-61" x="128.955078"/>
       <use xlink:href="#DejaVuSans-6c" x="190.234375"/>
       <use xlink:href="#DejaVuSans-69" x="218.017578"/>
       <use xlink:href="#DejaVuSans-64" x="245.800781"/>
      </g>
     </g>
    </g>
   </g>
   <g id="matplotlib.axis_2">
    <g id="ytick_1">
     <g id="line2d_21">
      <defs>
       <path id="mc13f011150" d="M 0 0 
L -3.5 0 
" style="stroke: #000000; stroke-width: 0.8"/>
      </defs>
      <g>
       <use xlink:href="#mc13f011150" x="39.67625" y="346.551094" style="stroke: #000000; stroke-width: 0.8"/>
      </g>
     </g>
     <g id="text_21">
      <!-- 0 -->
      <g transform="translate(26.31375 350.350313) scale(0.1 -0.1)">
       <defs>
        <path id="DejaVuSans-30" d="M 2034 4250 
Q 1547 4250 1301 3770 
Q 1056 3291 1056 2328 
Q 1056 1369 1301 889 
Q 1547 409 2034 409 
Q 2525 409 2770 889 
Q 3016 1369 3016 2328 
Q 3016 3291 2770 3770 
Q 2525 4250 2034 4250 
z
M 2034 4750 
Q 2819 4750 3233 4129 
Q 3647 3509 3647 2328 
Q 3647 1150 3233 529 
Q 2819 -91 2034 -91 
Q 1250 -91 836 529 
Q 422 1150 422 2328 
Q 422 3509 836 4129 
Q 1250 4750 2034 4750 
z
" transform="scale(0.015625)"/>
       </defs>
       <use xlink:href="#DejaVuSans-30"/>
      </g>
     </g>
    </g>
    <g id="ytick_2">
     <g id="line2d_22">
      <g>
       <use xlink:href="#mc13f011150" x="39.67625" y="290.683298" style="stroke: #000000; stroke-width: 0.8"/>
      </g>
     </g>
     <g id="text_22">
      <!-- 1 -->
      <g transform="translate(26.31375 294.482516) scale(0.1 -0.1)">
       <defs>
        <path id="DejaVuSans-31" d="M 794 531 
L 1825 531 
L 1825 4091 
L 703 3866 
L 703 4441 
L 1819 4666 
L 2450 4666 
L 2450 531 
L 3481 531 
L 3481 0 
L 794 0 
L 794 531 
z
" transform="scale(0.015625)"/>
       </defs>
       <use xlink:href="#DejaVuSans-31"/>
      </g>
     </g>
    </g>
    <g id="ytick_3">
     <g id="line2d_23">
      <g>
       <use xlink:href="#mc13f011150" x="39.67625" y="234.815501" style="stroke: #000000; stroke-width: 0.8"/>
      </g>
     </g>
     <g id="text_23">
      <!-- 2 -->
      <g transform="translate(26.31375 238.61472) scale(0.1 -0.1)">
       <defs>
        <path id="DejaVuSans-32" d="M 1228 531 
L 3431 531 
L 3431 0 
L 469 0 
L 469 531 
Q 828 903 1448 1529 
Q 2069 2156 2228 2338 
Q 2531 2678 2651 2914 
Q 2772 3150 2772 3378 
Q 2772 3750 2511 3984 
Q 2250 4219 1831 4219 
Q 1534 4219 1204 4116 
Q 875 4013 500 3803 
L 500 4441 
Q 881 4594 1212 4672 
Q 1544 4750 1819 4750 
Q 2544 4750 2975 4387 
Q 3406 4025 3406 3419 
Q 3406 3131 3298 2873 
Q 3191 2616 2906 2266 
Q 2828 2175 2409 1742 
Q 1991 1309 1228 531 
z
" transform="scale(0.015625)"/>
       </defs>
       <use xlink:href="#DejaVuSans-32"/>
      </g>
     </g>
    </g>
    <g id="ytick_4">
     <g id="line2d_24">
      <g>
       <use xlink:href="#mc13f011150" x="39.67625" y="178.947704" style="stroke: #000000; stroke-width: 0.8"/>
      </g>
     </g>
     <g id="text_24">
      <!-- 3 -->
      <g transform="translate(26.31375 182.746923) scale(0.1 -0.1)">
       <defs>
        <path id="DejaVuSans-33" d="M 2597 2516 
Q 3050 2419 3304 2112 
Q 3559 1806 3559 1356 
Q 3559 666 3084 287 
Q 2609 -91 1734 -91 
Q 1441 -91 1130 -33 
Q 819 25 488 141 
L 488 750 
Q 750 597 1062 519 
Q 1375 441 1716 441 
Q 2309 441 2620 675 
Q 2931 909 2931 1356 
Q 2931 1769 2642 2001 
Q 2353 2234 1838 2234 
L 1294 2234 
L 1294 2753 
L 1863 2753 
Q 2328 2753 2575 2939 
Q 2822 3125 2822 3475 
Q 2822 3834 2567 4026 
Q 2313 4219 1838 4219 
Q 1578 4219 1281 4162 
Q 984 4106 628 3988 
L 628 4550 
Q 988 4650 1302 4700 
Q 1616 4750 1894 4750 
Q 2613 4750 3031 4423 
Q 3450 4097 3450 3541 
Q 3450 3153 3228 2886 
Q 3006 2619 2597 2516 
z
" transform="scale(0.015625)"/>
       </defs>
       <use xlink:href="#DejaVuSans-33"/>
      </g>
     </g>
    </g>
    <g id="ytick_5">
     <g id="line2d_25">
      <g>
       <use xlink:href="#mc13f011150" x="39.67625" y="123.079908" style="stroke: #000000; stroke-width: 0.8"/>
      </g>
     </g>
     <g id="text_25">
      <!-- 4 -->
      <g transform="translate(26.31375 126.879127) scale(0.1 -0.1)">
       <defs>
        <path id="DejaVuSans-34" d="M 2419 4116 
L 825 1625 
L 2419 1625 
L 2419 4116 
z
M 2253 4666 
L 3047 4666 
L 3047 1625 
L 3713 1625 
L 3713 1100 
L 3047 1100 
L 3047 0 
L 2419 0 
L 2419 1100 
L 313 1100 
L 313 1709 
L 2253 4666 
z
" transform="scale(0.015625)"/>
       </defs>
       <use xlink:href="#DejaVuSans-34"/>
      </g>
     </g>
    </g>
    <g id="ytick_6">
     <g id="line2d_26">
      <g>
       <use xlink:href="#mc13f011150" x="39.67625" y="67.212111" style="stroke: #000000; stroke-width: 0.8"/>
      </g>
     </g>
     <g id="text_26">
      <!-- 5 -->
      <g transform="translate(26.31375 71.01133) scale(0.1 -0.1)">
       <defs>
        <path id="DejaVuSans-35" d="M 691 4666 
L 3169 4666 
L 3169 4134 
L 1269 4134 
L 1269 2991 
Q 1406 3038 1543 3061 
Q 1681 3084 1819 3084 
Q 2600 3084 3056 2656 
Q 3513 2228 3513 1497 
Q 3513 744 3044 326 
Q 2575 -91 1722 -91 
Q 1428 -91 1123 -41 
Q 819 9 494 109 
L 494 744 
Q 775 591 1075 516 
Q 1375 441 1709 441 
Q 2250 441 2565 725 
Q 2881 1009 2881 1497 
Q 2881 1984 2565 2268 
Q 2250 2553 1709 2553 
Q 1456 2553 1204 2497 
Q 953 2441 691 2322 
L 691 4666 
z
" transform="scale(0.015625)"/>
       </defs>
       <use xlink:href="#DejaVuSans-35"/>
      </g>
     </g>
    </g>
    <g id="text_27">
     <!-- Tổng số Streams -->
     <g transform="translate(20.234063 228.712578) rotate(-90) scale(0.1 -0.1)">
      <defs>
       <path id="DejaVuSans-1ed5" d="M 2391 5359 
Q 2741 5518 3069 5518 
Q 3394 5518 3592 5385 
Q 3791 5253 3791 5043 
Q 3791 4853 3516 4650 
L 3378 4550 
Q 3269 4468 3256 4440 
Q 3234 4390 3234 4290 
L 2863 4290 
L 2863 4328 
Q 2863 4453 2909 4537 
Q 2956 4622 3116 4737 
L 3256 4843 
Q 3400 4950 3400 5075 
Q 3400 5140 3303 5196 
Q 3206 5253 2984 5253 
Q 2703 5253 2391 5090 
L 2391 5359 
z
M 1663 4775 
L 2250 4775 
L 2909 3944 
L 2475 3944 
L 1956 4500 
L 1438 3944 
L 1003 3944 
L 1663 4775 
z
M 1959 3097 
Q 1497 3097 1228 2736 
Q 959 2375 959 1747 
Q 959 1119 1226 758 
Q 1494 397 1959 397 
Q 2419 397 2687 759 
Q 2956 1122 2956 1747 
Q 2956 2369 2687 2733 
Q 2419 3097 1959 3097 
z
M 1959 3584 
Q 2709 3584 3137 3096 
Q 3566 2609 3566 1747 
Q 3566 888 3137 398 
Q 2709 -91 1959 -91 
Q 1206 -91 779 398 
Q 353 888 353 1747 
Q 353 2609 779 3096 
Q 1206 3584 1959 3584 
z
" transform="scale(0.015625)"/>
       <path id="DejaVuSans-1ed1" d="M 1663 4775 
L 2250 4775 
L 2909 3944 
L 2475 3944 
L 1956 4500 
L 1438 3944 
L 1003 3944 
L 1663 4775 
z
M 3266 5416 
L 3844 5416 
L 3131 4591 
L 2653 4591 
L 3266 5416 
z
M 1959 3097 
Q 1497 3097 1228 2736 
Q 959 2375 959 1747 
Q 959 1119 1226 758 
Q 1494 397 1959 397 
Q 2419 397 2687 759 
Q 2956 1122 2956 1747 
Q 2956 2369 2687 2733 
Q 2419 3097 1959 3097 
z
M 1959 3584 
Q 2709 3584 3137 3096 
Q 3566 2609 3566 1747 
Q 3566 888 3137 398 
Q 2709 -91 1959 -91 
Q 1206 -91 779 398 
Q 353 888 353 1747 
Q 353 2609 779 3096 
Q 1206 3584 1959 3584 
z
" transform="scale(0.015625)"/>
      </defs>
      <use xlink:href="#DejaVuSans-54"/>
      <use xlink:href="#DejaVuSans-1ed5" x="61.083984"/>
      <use xlink:href="#DejaVuSans-6e" x="122.265625"/>
      <use xlink:href="#DejaVuSans-67" x="185.644531"/>
      <use xlink:href="#DejaVuSans-20" x="249.121094"/>
      <use xlink:href="#DejaVuSans-73" x="280.908203"/>
      <use xlink:href="#DejaVuSans-1ed1" x="333.007812"/>
      <use xlink:href="#DejaVuSans-20" x="394.189453"/>
      <use xlink:href="#DejaVuSans-53" x="425.976562"/>
      <use xlink:href="#DejaVuSans-74" x="489.453125"/>
      <use xlink:href="#DejaVuSans-72" x="528.662109"/>
      <use xlink:href="#DejaVuSans-65" x="567.525391"/>
      <use xlink:href="#DejaVuSans-61" x="629.048828"/>
      <use xlink:href="#DejaVuSans-6d" x="690.328125"/>
      <use xlink:href="#DejaVuSans-73" x="787.740234"/>
     </g>
    </g>
    <g id="text_28">
     <!-- 1e10 -->
     <g transform="translate(39.67625 23.89125) scale(0.1 -0.1)">
      <use xlink:href="#DejaVuSans-31"/>
      <use xlink:href="#DejaVuSans-65" x="63.623047"/>
      <use xlink:href="#DejaVuSans-31" x="125.146484"/>
      <use xlink:href="#DejaVuSans-30" x="188.769531"/>
     </g>
    </g>
   </g>
   <g id="line2d_27">
    <path clip-path="url(#p1cbf97d7e0)" style="fill: none; stroke: #424242; stroke-width: 2.25; stroke-linecap: square"/>
   </g>
   <g id="line2d_28">
    <path clip-path="url(#p1cbf97d7e0)" style="fill: none; stroke: #424242; stroke-width: 2.25; stroke-linecap: square"/>
   </g>
   <g id="line2d_29">
    <path clip-path="url(#p1cbf97d7e0)" style="fill: none; stroke: #424242; stroke-width: 2.25; stroke-linecap: square"/>
   </g>
   <g id="line2d_30">
    <path clip-path="url(#p1cbf97d7e0)" style="fill: none; stroke: #424242; stroke-width: 2.25; stroke-linecap: square"/>
   </g>
   <g id="line2d_31">
    <path clip-path="url(#p1cbf97d7e0)" style="fill: none; stroke: #424242; stroke-width: 2.25; stroke-linecap: square"/>
   </g>
   <g id="line2d_32">
    <path clip-path="url(#p1cbf97d7e0)" style="fill: none; stroke: #424242; stroke-width: 2.25; stroke-linecap: square"/>
   </g>
   <g id="line2d_33">
    <path clip-path="url(#p1cbf97d7e0)" style="fill: none; stroke: #424242; stroke-width: 2.25; stroke-linecap: square"/>
   </g>
   <g id="line2d_34">
    <path clip-path="url(#p1cbf97d7e0)" style="fill: none; stroke: #424242; stroke-width: 2.25; stroke-linecap: square"/>
   </g>
   <g id="line2d_35">
    <path clip-path="url(#p1cbf97d7e0)" style="fill: none; stroke: #424242; stroke-width: 2.25; stroke-linecap: square"/>
   </g>
   <g id="line2d_36">
    <path clip-path="url(#p1cbf97d7e0)" style="fill: none; stroke: #424242; stroke-width: 2.25; stroke-linecap: square"/>
   </g>
   <g id="line2d_37">
    <path clip-path="url(#p1cbf97d7e0)" style="fill: none; stroke: #424242; stroke-width: 2.25; stroke-linecap: square"/>
   </g>
   <g id="line2d_38">
    <path clip-path="url(#p1cbf97d7e0)" style="fill: none; stroke: #424242; stroke-width: 2.25; stroke-linecap: square"/>
   </g>
   <g id="line2d_39">
    <path clip-path="url(#p1cbf97d7e0)" style="fill: none; stroke: #424242; stroke-width: 2.25; stroke-linecap: square"/>
   </g>
   <g id="line2d_40">
    <path clip-path="url(#p1cbf97d7e0)" style="fill: none; stroke: #424242; stroke-width: 2.25; stroke-linecap: square"/>
   </g>
   <g id="line2d_41">
    <path clip-path="url(#p1cbf97d7e0)" style="fill: none; stroke: #424242; stroke-width: 2.25; stroke-linecap: square"/>
   </g>
   <g id="line2d_42">
    <path clip-path="url(#p1cbf97d7e0)" style="fill: none; stroke: #424242; stroke-width: 2.25; stroke-linecap: square"/>
   </g>
   <g id="line2d_43">
    <path clip-path="url(#p1cbf97d7e0)" style="fill: none; stroke: #424242; stroke-width: 2.25; stroke-linecap: square"/>
   </g>
   <g id="line2d_44">
    <path clip-path="url(#p1cbf97d7e0)" style="fill: none; stroke: #424242; stroke-width: 2.25; stroke-linecap: square"/>
   </g>
   <g id="line2d_45">
    <path clip-path="url(#p1cbf97d7e0)" style="fill: none; stroke: #424242; stroke-width: 2.25; stroke-linecap: square"/>
   </g>
   <g id="line2d_46">
    <path clip-path="url(#p1cbf97d7e0)" style="fill: none; stroke: #424242; stroke-width: 2.25; stroke-linecap: square"/>
   </g>
   <g id="patch_23">
    <path d="M 39.67625 346.551094 
L 39.67625 26.89125 
" style="fill: none; stroke: #000000; stroke-width: 0.8; stroke-linejoin: miter; stroke-linecap: square"/>
   </g>
   <g id="patch_24">
    <path d="M 818.26 346.551094 
L 818.26 26.89125 
" style="fill: none; stroke: #000000; stroke-width: 0.8; stroke-linejoin: miter; stroke-linecap: square"/>
   </g>
   <g id="patch_25">
    <path d="M 39.67625 346.551094 
L 818.26 346.551094 
" style="fill: none; stroke: #000000; stroke-width: 0.8; stroke-linejoin: miter; stroke-linecap: square"/>
   </g>
   <g id="patch_26">
    <path d="M 39.67625 26.89125 
L 818.26 26.89125 
" style="fill: none; stroke: #000000; stroke-width: 0.8; stroke-linejoin: miter; stroke-linecap: square"/>
   </g>
  </g>
  <g id="axes_2">
   <g id="PolyCollection_1"/>
   <g id="matplotlib.axis_3">
    <g id="ytick_7">
     <g id="line2d_47">
      <path d="M 39.67625 332.021101 
L 818.26 332.021101 
" clip-path="url(#p1cbf97d7e0)" style="fill: none; stroke-dasharray: 1.85,0.8; stroke-dashoffset: 0; stroke: #b0b0b0; stroke-width: 0.5"/>
     </g>
     <g id="line2d_48">
      <defs>
       <path id="m695bf0c875" d="M 0 0 
L 3.5 0 
" style="stroke: #000000; stroke-width: 0.8"/>
      </defs>
      <g>
       <use xlink:href="#m695bf0c875" x="818.26" y="332.021101" style="stroke: #000000; stroke-width: 0.8"/>
      </g>
     </g>
     <g id="text_29">
      <!-- 0 -->
      <g style="fill: #2ca02c" transform="translate(825.26 335.82032) scale(0.1 -0.1)">
       <use xlink:href="#DejaVuSans-30"/>
      </g>
     </g>
    </g>
    <g id="ytick_8">
     <g id="line2d_49">
      <path d="M 39.67625 287.99082 
L 818.26 287.99082 
" clip-path="url(#p1cbf97d7e0)" style="fill: none; stroke-dasharray: 1.85,0.8; stroke-dashoffset: 0; stroke: #b0b0b0; stroke-width: 0.5"/>
     </g>
     <g id="line2d_50">
      <g>
       <use xlink:href="#m695bf0c875" x="818.26" y="287.99082" style="stroke: #000000; stroke-width: 0.8"/>
      </g>
     </g>
     <g id="text_30">
      <!-- 5 -->
      <g style="fill: #2ca02c" transform="translate(825.26 291.790038) scale(0.1 -0.1)">
       <use xlink:href="#DejaVuSans-35"/>
      </g>
     </g>
    </g>
    <g id="ytick_9">
     <g id="line2d_51">
      <path d="M 39.67625 243.960538 
L 818.26 243.960538 
" clip-path="url(#p1cbf97d7e0)" style="fill: none; stroke-dasharray: 1.85,0.8; stroke-dashoffset: 0; stroke: #b0b0b0; stroke-width: 0.5"/>
     </g>
     <g id="line2d_52">
      <g>
       <use xlink:href="#m695bf0c875" x="818.26" y="243.960538" style="stroke: #000000; stroke-width: 0.8"/>
      </g>
     </g>
     <g id="text_31">
      <!-- 10 -->
      <g style="fill: #2ca02c" transform="translate(825.26 247.759757) scale(0.1 -0.1)">
       <use xlink:href="#DejaVuSans-31"/>
       <use xlink:href="#DejaVuSans-30" x="63.623047"/>
      </g>
     </g>
    </g>
    <g id="ytick_10">
     <g id="line2d_53">
      <path d="M 39.67625 199.930257 
L 818.26 199.930257 
" clip-path="url(#p1cbf97d7e0)" style="fill: none; stroke-dasharray: 1.85,0.8; stroke-dashoffset: 0; stroke: #b0b0b0; stroke-width: 0.5"/>
     </g>
     <g id="line2d_54">
      <g>
       <use xlink:href="#m695bf0c875" x="818.26" y="199.930257" style="stroke: #000000; stroke-width: 0.8"/>
      </g>
     </g>
     <g id="text_32">
      <!-- 15 -->
      <g style="fill: #2ca02c" transform="translate(825.26 203.729475) scale(0.1 -0.1)">
       <use xlink:href="#DejaVuSans-31"/>
       <use xlink:href="#DejaVuSans-35" x="63.623047"/>
      </g>
     </g>
    </g>
    <g id="ytick_11">
     <g id="line2d_55">
      <path d="M 39.67625 155.899975 
L 818.26 155.899975 
" clip-path="url(#p1cbf97d7e0)" style="fill: none; stroke-dasharray: 1.85,0.8; stroke-dashoffset: 0; stroke: #b0b0b0; stroke-width: 0.5"/>
     </g>
     <g id="line2d_56">
      <g>
       <use xlink:href="#m695bf0c875" x="818.26" y="155.899975" style="stroke: #000000; stroke-width: 0.8"/>
      </g>
     </g>
     <g id="text_33">
      <!-- 20 -->
      <g style="fill: #2ca02c" transform="translate(825.26 159.699194) scale(0.1 -0.1)">
       <use xlink:href="#DejaVuSans-32"/>
       <use xlink:href="#DejaVuSans-30" x="63.623047"/>
      </g>
     </g>
    </g>
    <g id="ytick_12">
     <g id="line2d_57">
      <path d="M 39.67625 111.869693 
L 818.26 111.869693 
" clip-path="url(#p1cbf97d7e0)" style="fill: none; stroke-dasharray: 1.85,0.8; stroke-dashoffset: 0; stroke: #b0b0b0; stroke-width: 0.5"/>
     </g>
     <g id="line2d_58">
      <g>
       <use xlink:href="#m695bf0c875" x="818.26" y="111.869693" style="stroke: #000000; stroke-width: 0.8"/>
      </g>
     </g>
     <g id="text_34">
      <!-- 25 -->
      <g style="fill: #2ca02c" transform="translate(825.26 115.668912) scale(0.1 -0.1)">
       <use xlink:href="#DejaVuSans-32"/>
       <use xlink:href="#DejaVuSans-35" x="63.623047"/>
      </g>
     </g>
    </g>
    <g id="ytick_13">
     <g id="line2d_59">
      <path d="M 39.67625 67.839412 
L 818.26 67.839412 
" clip-path="url(#p1cbf97d7e0)" style="fill: none; stroke-dasharray: 1.85,0.8; stroke-dashoffset: 0; stroke: #b0b0b0; stroke-width: 0.5"/>
     </g>
     <g id="line2d_60">
      <g>
       <use xlink:href="#m695bf0c875" x="818.26" y="67.839412" style="stroke: #000000; stroke-width: 0.8"/>
      </g>
     </g>
     <g id="text_35">
      <!-- 30 -->
      <g style="fill: #2ca02c" transform="translate(825.26 71.638631) scale(0.1 -0.1)">
       <use xlink:href="#DejaVuSans-33"/>
       <use xlink:href="#DejaVuSans-30" x="63.623047"/>
      </g>
     </g>
    </g>
    <g id="text_36">
     <!-- Số lần hợp tác -->
     <g style="fill: #2ca02c" transform="translate(850.452188 222.51961) rotate(-90) scale(0.1 -0.1)">
      <defs>
       <path id="DejaVuSans-1ea7" d="M 2194 1759 
Q 1497 1759 1228 1600 
Q 959 1441 959 1056 
Q 959 750 1161 570 
Q 1363 391 1709 391 
Q 2188 391 2477 730 
Q 2766 1069 2766 1631 
L 2766 1759 
L 2194 1759 
z
M 3341 1997 
L 3341 0 
L 2766 0 
L 2766 531 
Q 2569 213 2275 61 
Q 1981 -91 1556 -91 
Q 1019 -91 701 211 
Q 384 513 384 1019 
Q 384 1609 779 1909 
Q 1175 2209 1959 2209 
L 2766 2209 
L 2766 2266 
Q 2766 2663 2505 2880 
Q 2244 3097 1772 3097 
Q 1472 3097 1187 3025 
Q 903 2953 641 2809 
L 641 3341 
Q 956 3463 1253 3523 
Q 1550 3584 1831 3584 
Q 2591 3584 2966 3190 
Q 3341 2797 3341 1997 
z
M 2591 5419 
L 3203 4594 
L 2725 4594 
L 2006 5419 
L 2591 5419 
z
M 1556 4778 
L 2144 4778 
L 2803 3947 
L 2369 3947 
L 1850 4503 
L 1331 3947 
L 897 3947 
L 1556 4778 
z
" transform="scale(0.015625)"/>
       <path id="DejaVuSans-1ee3" d="M 2625 3106 
L 2625 3478 
Q 2816 3337 2953 3270 
Q 3091 3203 3188 3203 
Q 3331 3203 3403 3289 
Q 3475 3375 3475 3543 
Q 3475 3643 3451 3740 
Q 3428 3837 3381 3934 
L 3797 3934 
Q 3828 3815 3843 3709 
Q 3859 3603 3859 3509 
Q 3859 3128 3723 2948 
Q 3588 2768 3297 2768 
Q 3147 2768 2983 2851 
Q 2819 2934 2625 3106 
z
M 1975 3097 
Q 1513 3097 1244 2736 
Q 975 2375 975 1747 
Q 975 1119 1242 758 
Q 1509 397 1975 397 
Q 2434 397 2703 759 
Q 2972 1122 2972 1747 
Q 2972 2369 2703 2733 
Q 2434 3097 1975 3097 
z
M 1975 3584 
Q 2725 3584 3153 3096 
Q 3581 2609 3581 1747 
Q 3581 888 3153 398 
Q 2725 -91 1975 -91 
Q 1222 -91 795 398 
Q 369 888 369 1747 
Q 369 2609 795 3096 
Q 1222 3584 1975 3584 
z
M 1666 -441 
L 2241 -441 
L 2241 -1172 
L 1666 -1172 
L 1666 -441 
z
" transform="scale(0.015625)"/>
       <path id="DejaVuSans-e1" d="M 2194 1759 
Q 1497 1759 1228 1600 
Q 959 1441 959 1056 
Q 959 750 1161 570 
Q 1363 391 1709 391 
Q 2188 391 2477 730 
Q 2766 1069 2766 1631 
L 2766 1759 
L 2194 1759 
z
M 3341 1997 
L 3341 0 
L 2766 0 
L 2766 531 
Q 2569 213 2275 61 
Q 1981 -91 1556 -91 
Q 1019 -91 701 211 
Q 384 513 384 1019 
Q 384 1609 779 1909 
Q 1175 2209 1959 2209 
L 2766 2209 
L 2766 2266 
Q 2766 2663 2505 2880 
Q 2244 3097 1772 3097 
Q 1472 3097 1187 3025 
Q 903 2953 641 2809 
L 641 3341 
Q 956 3463 1253 3523 
Q 1550 3584 1831 3584 
Q 2591 3584 2966 3190 
Q 3341 2797 3341 1997 
z
M 2291 5119 
L 2913 5119 
L 1894 3944 
L 1416 3944 
L 2291 5119 
z
" transform="scale(0.015625)"/>
       <path id="DejaVuSans-63" d="M 3122 3366 
L 3122 2828 
Q 2878 2963 2633 3030 
Q 2388 3097 2138 3097 
Q 1578 3097 1268 2742 
Q 959 2388 959 1747 
Q 959 1106 1268 751 
Q 1578 397 2138 397 
Q 2388 397 2633 464 
Q 2878 531 3122 666 
L 3122 134 
Q 2881 22 2623 -34 
Q 2366 -91 2075 -91 
Q 1284 -91 818 406 
Q 353 903 353 1747 
Q 353 2603 823 3093 
Q 1294 3584 2113 3584 
Q 2378 3584 2631 3529 
Q 2884 3475 3122 3366 
z
" transform="scale(0.015625)"/>
      </defs>
      <use xlink:href="#DejaVuSans-53"/>
      <use xlink:href="#DejaVuSans-1ed1" x="63.476562"/>
      <use xlink:href="#DejaVuSans-20" x="124.658203"/>
      <use xlink:href="#DejaVuSans-6c" x="156.445312"/>
      <use xlink:href="#DejaVuSans-1ea7" x="184.228516"/>
      <use xlink:href="#DejaVuSans-6e" x="245.507812"/>
      <use xlink:href="#DejaVuSans-20" x="308.886719"/>
      <use xlink:href="#DejaVuSans-68" x="340.673828"/>
      <use xlink:href="#DejaVuSans-1ee3" x="404.052734"/>
      <use xlink:href="#DejaVuSans-70" x="465.234375"/>
      <use xlink:href="#DejaVuSans-20" x="528.710938"/>
      <use xlink:href="#DejaVuSans-74" x="560.498047"/>
      <use xlink:href="#DejaVuSans-e1" x="599.707031"/>
      <use xlink:href="#DejaVuSans-63" x="660.986328"/>
     </g>
    </g>
   </g>
   <g id="line2d_61">
    <path d="M 89.365479 41.421243 
L 125.113126 155.899975 
L 160.860773 287.99082 
L 196.60842 305.602932 
L 232.356067 138.287862 
L 268.103714 155.899975 
L 303.851361 332.021101 
L 339.599008 332.021101 
L 375.346655 243.960538 
L 411.094302 217.542369 
L 446.841948 191.1242 
L 482.589595 208.736313 
L 518.337242 252.766594 
L 554.084889 217.542369 
L 589.832536 191.1242 
L 625.580183 287.99082 
L 661.32783 305.602932 
L 697.075477 270.378707 
L 732.823124 235.154482 
L 768.570771 164.706031 
" clip-path="url(#p1cbf97d7e0)" style="fill: none; stroke: #2ca02c; stroke-width: 1.5; stroke-linecap: square"/>
    <defs>
     <path id="m2130e04a83" d="M 0 3 
C 0.795609 3 1.55874 2.683901 2.12132 2.12132 
C 2.683901 1.55874 3 0.795609 3 0 
C 3 -0.795609 2.683901 -1.55874 2.12132 -2.12132 
C 1.55874 -2.683901 0.795609 -3 0 -3 
C -0.795609 -3 -1.55874 -2.683901 -2.12132 -2.12132 
C -2.683901 -1.55874 -3 -0.795609 -3 0 
C -3 0.795609 -2.683901 1.55874 -2.12132 2.12132 
C -1.55874 2.683901 -0.795609 3 0 3 
z
" style="stroke: #ffffff; stroke-width: 0.75"/>
    </defs>
    <g clip-path="url(#p1cbf97d7e0)">
     <use xlink:href="#m2130e04a83" x="89.365479" y="41.421243" style="fill: #2ca02c; stroke: #ffffff; stroke-width: 0.75"/>
     <use xlink:href="#m2130e04a83" x="125.113126" y="155.899975" style="fill: #2ca02c; stroke: #ffffff; stroke-width: 0.75"/>
     <use xlink:href="#m2130e04a83" x="160.860773" y="287.99082" style="fill: #2ca02c; stroke: #ffffff; stroke-width: 0.75"/>
     <use xlink:href="#m2130e04a83" x="196.60842" y="305.602932" style="fill: #2ca02c; stroke: #ffffff; stroke-width: 0.75"/>
     <use xlink:href="#m2130e04a83" x="232.356067" y="138.287862" style="fill: #2ca02c; stroke: #ffffff; stroke-width: 0.75"/>
     <use xlink:href="#m2130e04a83" x="268.103714" y="155.899975" style="fill: #2ca02c; stroke: #ffffff; stroke-width: 0.75"/>
     <use xlink:href="#m2130e04a83" x="303.851361" y="332.021101" style="fill: #2ca02c; stroke: #ffffff; stroke-width: 0.75"/>
     <use xlink:href="#m2130e04a83" x="339.599008" y="332.021101" style="fill: #2ca02c; stroke: #ffffff; stroke-width: 0.75"/>
     <use xlink:href="#m2130e04a83" x="375.346655" y="243.960538" style="fill: #2ca02c; stroke: #ffffff; stroke-width: 0.75"/>
     <use xlink:href="#m2130e04a83" x="411.094302" y="217.542369" style="fill: #2ca02c; stroke: #ffffff; stroke-width: 0.75"/>
     <use xlink:href="#m2130e04a83" x="446.841948" y="191.1242" style="fill: #2ca02c; stroke: #ffffff; stroke-width: 0.75"/>
     <use xlink:href="#m2130e04a83" x="482.589595" y="208.736313" style="fill: #2ca02c; stroke: #ffffff; stroke-width: 0.75"/>
     <use xlink:href="#m2130e04a83" x="518.337242" y="252.766594" style="fill: #2ca02c; stroke: #ffffff; stroke-width: 0.75"/>
     <use xlink:href="#m2130e04a83" x="554.084889" y="217.542369" style="fill: #2ca02c; stroke: #ffffff; stroke-width: 0.75"/>
     <use xlink:href="#m2130e04a83" x="589.832536" y="191.1242" style="fill: #2ca02c; stroke: #ffffff; stroke-width: 0.75"/>
     <use xlink:href="#m2130e04a83" x="625.580183" y="287.99082" style="fill: #2ca02c; stroke: #ffffff; stroke-width: 0.75"/>
     <use xlink:href="#m2130e04a83" x="661.32783" y="305.602932" style="fill: #2ca02c; stroke: #ffffff; stroke-width: 0.75"/>
     <use xlink:href="#m2130e04a83" x="697.075477" y="270.378707" style="fill: #2ca02c; stroke: #ffffff; stroke-width: 0.75"/>
     <use xlink:href="#m2130e04a83" x="732.823124" y="235.154482" style="fill: #2ca02c; stroke: #ffffff; stroke-width: 0.75"/>
     <use xlink:href="#m2130e04a83" x="768.570771" y="164.706031" style="fill: #2ca02c; stroke: #ffffff; stroke-width: 0.75"/>
    </g>
   </g>
   <g id="patch_27">
    <path d="M 39.67625 346.551094 
L 39.67625 26.89125 
" style="fill: none; stroke: #000000; stroke-width: 0.8; stroke-linejoin: miter; stroke-linecap: square"/>
   </g>
   <g id="patch_28">
    <path d="M 818.26 346.551094 
L 818.26 26.89125 
" style="fill: none; stroke: #000000; stroke-width: 0.8; stroke-linejoin: miter; stroke-linecap: square"/>
   </g>
   <g id="patch_29">
    <path d="M 39.67625 346.551094 
L 818.26 346.551094 
" style="fill: none; stroke: #000000; stroke-width: 0.8; stroke-linejoin: miter; stroke-linecap: square"/>
   </g>
   <g id="patch_30">
    <path d="M 39.67625 26.89125 
L 818.26 26.89125 
" style="fill: none; stroke: #000000; stroke-width: 0.8; stroke-linejoin: miter; stroke-linecap: square"/>
   </g>
   <g id="text_37">
    <!-- Mối quan hệ giữa độ nổi tiếng và số lần hợp tác -->
    <g transform="translate(286.21125 20.89125) scale(0.12 -0.12)">
     <defs>
      <path id="DejaVuSans-71" d="M 947 1747 
Q 947 1113 1208 752 
Q 1469 391 1925 391 
Q 2381 391 2643 752 
Q 2906 1113 2906 1747 
Q 2906 2381 2643 2742 
Q 2381 3103 1925 3103 
Q 1469 3103 1208 2742 
Q 947 2381 947 1747 
z
M 2906 525 
Q 2725 213 2448 61 
Q 2172 -91 1784 -91 
Q 1150 -91 751 415 
Q 353 922 353 1747 
Q 353 2572 751 3078 
Q 1150 3584 1784 3584 
Q 2172 3584 2448 3432 
Q 2725 3281 2906 2969 
L 2906 3500 
L 3481 3500 
L 3481 -1331 
L 2906 -1331 
L 2906 525 
z
" transform="scale(0.015625)"/>
      <path id="DejaVuSans-1ec7" d="M 1741 -441 
L 2316 -441 
L 2316 -1172 
L 1741 -1172 
L 1741 -441 
z
M 3597 1894 
L 3597 1613 
L 953 1613 
Q 991 1019 1311 708 
Q 1631 397 2203 397 
Q 2534 397 2845 478 
Q 3156 559 3463 722 
L 3463 178 
Q 3153 47 2828 -22 
Q 2503 -91 2169 -91 
Q 1331 -91 842 396 
Q 353 884 353 1716 
Q 353 2575 817 3079 
Q 1281 3584 2069 3584 
Q 2775 3584 3186 3129 
Q 3597 2675 3597 1894 
z
M 3022 2063 
Q 3016 2534 2758 2815 
Q 2500 3097 2075 3097 
Q 1594 3097 1305 2825 
Q 1016 2553 972 2059 
L 3022 2063 
z
M 1741 -441 
L 2316 -441 
L 2316 -1172 
L 1741 -1172 
L 1741 -441 
z
M 1803 5119 
L 2266 5119 
L 3031 3944 
L 2597 3944 
L 2034 4709 
L 1472 3944 
L 1038 3944 
L 1803 5119 
z
" transform="scale(0.015625)"/>
      <path id="DejaVuSans-1eef" d="M 1988 4281 
L 1809 4453 
Q 1741 4516 1689 4545 
Q 1638 4575 1597 4575 
Q 1478 4575 1422 4461 
Q 1366 4347 1359 4091 
L 969 4091 
Q 975 4513 1134 4742 
Q 1294 4972 1578 4972 
Q 1697 4972 1797 4928 
Q 1897 4884 2013 4781 
L 2191 4609 
Q 2259 4547 2311 4517 
Q 2363 4488 2403 4488 
Q 2522 4488 2578 4602 
Q 2634 4716 2641 4972 
L 3031 4972 
Q 3025 4550 2865 4320 
Q 2706 4091 2422 4091 
Q 2303 4091 2203 4134 
Q 2103 4178 1988 4281 
z
M 3094 3106 
L 3094 3478 
Q 3284 3337 3421 3270 
Q 3559 3203 3656 3203 
Q 3800 3203 3872 3289 
Q 3944 3375 3944 3543 
Q 3944 3643 3920 3740 
Q 3897 3837 3850 3934 
L 4266 3934 
Q 4297 3815 4312 3709 
Q 4328 3603 4328 3509 
Q 4328 3128 4192 2948 
Q 4056 2768 3766 2768 
Q 3616 2768 3452 2851 
Q 3288 2934 3094 3106 
z
M 550 1381 
L 550 3500 
L 1125 3500 
L 1125 1403 
Q 1125 906 1319 657 
Q 1513 409 1900 409 
Q 2366 409 2636 706 
Q 2906 1003 2906 1516 
L 2906 3500 
L 3481 3500 
L 3481 0 
L 2906 0 
L 2906 538 
Q 2697 219 2420 64 
Q 2144 -91 1778 -91 
Q 1175 -91 862 284 
Q 550 659 550 1381 
z
M 1997 3584 
L 1997 3584 
z
" transform="scale(0.015625)"/>
      <path id="DejaVuSans-111" d="M 2906 2969 
L 2906 4013 
L 1888 4013 
L 1888 4403 
L 2906 4403 
L 2906 4863 
L 3481 4863 
L 3481 4403 
L 3963 4403 
L 3963 4013 
L 3481 4013 
L 3481 0 
L 2906 0 
L 2906 525 
Q 2725 213 2448 61 
Q 2172 -91 1784 -91 
Q 1150 -91 751 415 
Q 353 922 353 1747 
Q 353 2572 751 3078 
Q 1150 3584 1784 3584 
Q 2172 3584 2448 3432 
Q 2725 3281 2906 2969 
z
M 947 1747 
Q 947 1113 1208 752 
Q 1469 391 1925 391 
Q 2381 391 2643 752 
Q 2906 1113 2906 1747 
Q 2906 2381 2643 2742 
Q 2381 3103 1925 3103 
Q 1469 3103 1208 2742 
Q 947 2381 947 1747 
z
" transform="scale(0.015625)"/>
      <path id="DejaVuSans-1ed9" d="M 1666 -441 
L 2241 -441 
L 2241 -1172 
L 1666 -1172 
L 1666 -441 
z
M 1959 3097 
Q 1497 3097 1228 2736 
Q 959 2375 959 1747 
Q 959 1119 1226 758 
Q 1494 397 1959 397 
Q 2419 397 2687 759 
Q 2956 1122 2956 1747 
Q 2956 2369 2687 2733 
Q 2419 3097 1959 3097 
z
M 1959 3584 
Q 2709 3584 3137 3096 
Q 3566 2609 3566 1747 
Q 3566 888 3137 398 
Q 2709 -91 1959 -91 
Q 1206 -91 779 398 
Q 353 888 353 1747 
Q 353 2609 779 3096 
Q 1206 3584 1959 3584 
z
M 1666 -441 
L 2241 -441 
L 2241 -1172 
L 1666 -1172 
L 1666 -441 
z
M 1728 5119 
L 2191 5119 
L 2956 3944 
L 2522 3944 
L 1959 4709 
L 1397 3944 
L 963 3944 
L 1728 5119 
z
" transform="scale(0.015625)"/>
      <path id="DejaVuSans-1ebf" d="M 1744 4775 
L 2331 4775 
L 2991 3944 
L 2556 3944 
L 2038 4500 
L 1519 3944 
L 1084 3944 
L 1744 4775 
z
M 3347 5416 
L 3925 5416 
L 3213 4591 
L 2734 4591 
L 3347 5416 
z
M 3597 1894 
L 3597 1613 
L 953 1613 
Q 991 1019 1311 708 
Q 1631 397 2203 397 
Q 2534 397 2845 478 
Q 3156 559 3463 722 
L 3463 178 
Q 3153 47 2828 -22 
Q 2503 -91 2169 -91 
Q 1331 -91 842 396 
Q 353 884 353 1716 
Q 353 2575 817 3079 
Q 1281 3584 2069 3584 
Q 2775 3584 3186 3129 
Q 3597 2675 3597 1894 
z
M 3022 2063 
Q 3016 2534 2758 2815 
Q 2500 3097 2075 3097 
Q 1594 3097 1305 2825 
Q 1016 2553 972 2059 
L 3022 2063 
z
" transform="scale(0.015625)"/>
      <path id="DejaVuSans-e0" d="M 2194 1759 
Q 1497 1759 1228 1600 
Q 959 1441 959 1056 
Q 959 750 1161 570 
Q 1363 391 1709 391 
Q 2188 391 2477 730 
Q 2766 1069 2766 1631 
L 2766 1759 
L 2194 1759 
z
M 3341 1997 
L 3341 0 
L 2766 0 
L 2766 531 
Q 2569 213 2275 61 
Q 1981 -91 1556 -91 
Q 1019 -91 701 211 
Q 384 513 384 1019 
Q 384 1609 779 1909 
Q 1175 2209 1959 2209 
L 2766 2209 
L 2766 2266 
Q 2766 2663 2505 2880 
Q 2244 3097 1772 3097 
Q 1472 3097 1187 3025 
Q 903 2953 641 2809 
L 641 3341 
Q 956 3463 1253 3523 
Q 1550 3584 1831 3584 
Q 2591 3584 2966 3190 
Q 3341 2797 3341 1997 
z
M 1403 5119 
L 2284 3950 
L 1806 3950 
L 788 5119 
L 1403 5119 
z
" transform="scale(0.015625)"/>
     </defs>
     <use xlink:href="#DejaVuSans-4d"/>
     <use xlink:href="#DejaVuSans-1ed1" x="86.279297"/>
     <use xlink:href="#DejaVuSans-69" x="147.460938"/>
     <use xlink:href="#DejaVuSans-20" x="175.244141"/>
     <use xlink:href="#DejaVuSans-71" x="207.03125"/>
     <use xlink:href="#DejaVuSans-75" x="270.507812"/>
     <use xlink:href="#DejaVuSans-61" x="333.886719"/>
     <use xlink:href="#DejaVuSans-6e" x="395.166016"/>
     <use xlink:href="#DejaVuSans-20" x="458.544922"/>
     <use xlink:href="#DejaVuSans-68" x="490.332031"/>
     <use xlink:href="#DejaVuSans-1ec7" x="553.710938"/>
     <use xlink:href="#DejaVuSans-20" x="615.234375"/>
     <use xlink:href="#DejaVuSans-67" x="647.021484"/>
     <use xlink:href="#DejaVuSans-69" x="710.498047"/>
     <use xlink:href="#DejaVuSans-1eef" x="738.28125"/>
     <use xlink:href="#DejaVuSans-61" x="801.660156"/>
     <use xlink:href="#DejaVuSans-20" x="862.939453"/>
     <use xlink:href="#DejaVuSans-111" x="894.726562"/>
     <use xlink:href="#DejaVuSans-1ed9" x="958.203125"/>
     <use xlink:href="#DejaVuSans-20" x="1019.384766"/>
     <use xlink:href="#DejaVuSans-6e" x="1051.171875"/>
     <use xlink:href="#DejaVuSans-1ed5" x="1114.550781"/>
     <use xlink:href="#DejaVuSans-69" x="1175.732422"/>
     <use xlink:href="#DejaVuSans-20" x="1203.515625"/>
     <use xlink:href="#DejaVuSans-74" x="1235.302734"/>
     <use xlink:href="#DejaVuSans-69" x="1274.511719"/>
     <use xlink:href="#DejaVuSans-1ebf" x="1302.294922"/>
     <use xlink:href="#DejaVuSans-6e" x="1363.818359"/>
     <use xlink:href="#DejaVuSans-67" x="1427.197266"/>
     <use xlink:href="#DejaVuSans-20" x="1490.673828"/>
     <use xlink:href="#DejaVuSans-76" x="1522.460938"/>
     <use xlink:href="#DejaVuSans-e0" x="1581.640625"/>
     <use xlink:href="#DejaVuSans-20" x="1642.919922"/>
     <use xlink:href="#DejaVuSans-73" x="1674.707031"/>
     <use xlink:href="#DejaVuSans-1ed1" x="1726.806641"/>
     <use xlink:href="#DejaVuSans-20" x="1787.988281"/>
     <use xlink:href="#DejaVuSans-6c" x="1819.775391"/>
     <use xlink:href="#DejaVuSans-1ea7" x="1847.558594"/>
     <use xlink:href="#DejaVuSans-6e" x="1908.837891"/>
     <use xlink:href="#DejaVuSans-20" x="1972.216797"/>
     <use xlink:href="#DejaVuSans-68" x="2004.003906"/>
     <use xlink:href="#DejaVuSans-1ee3" x="2067.382812"/>
     <use xlink:href="#DejaVuSans-70" x="2128.564453"/>
     <use xlink:href="#DejaVuSans-20" x="2192.041016"/>
     <use xlink:href="#DejaVuSans-74" x="2223.828125"/>
     <use xlink:href="#DejaVuSans-e1" x="2263.037109"/>
     <use xlink:href="#DejaVuSans-63" x="2324.316406"/>
    </g>
   </g>
   <g id="legend_1">
    <g id="patch_31">
     <path d="M 707.663125 50.438125 
L 811.26 50.438125 
Q 813.26 50.438125 813.26 48.438125 
L 813.26 33.89125 
Q 813.26 31.89125 811.26 31.89125 
L 707.663125 31.89125 
Q 705.663125 31.89125 705.663125 33.89125 
L 705.663125 48.438125 
Q 705.663125 50.438125 707.663125 50.438125 
z
" style="fill: #ffffff; opacity: 0.8; stroke: #cccccc; stroke-linejoin: miter"/>
    </g>
    <g id="line2d_62">
     <path d="M 709.663125 40.858437 
L 719.663125 40.858437 
L 729.663125 40.858437 
" style="fill: none; stroke: #2ca02c; stroke-width: 1.5; stroke-linecap: square"/>
     <g>
      <use xlink:href="#m2130e04a83" x="719.663125" y="40.858437" style="fill: #2ca02c; stroke: #ffffff; stroke-width: 0.75"/>
     </g>
    </g>
    <g id="text_38">
     <!-- Số lần hợp tác -->
     <g transform="translate(737.663125 44.358437) scale(0.1 -0.1)">
      <use xlink:href="#DejaVuSans-53"/>
      <use xlink:href="#DejaVuSans-1ed1" x="63.476562"/>
      <use xlink:href="#DejaVuSans-20" x="124.658203"/>
      <use xlink:href="#DejaVuSans-6c" x="156.445312"/>
      <use xlink:href="#DejaVuSans-1ea7" x="184.228516"/>
      <use xlink:href="#DejaVuSans-6e" x="245.507812"/>
      <use xlink:href="#DejaVuSans-20" x="308.886719"/>
      <use xlink:href="#DejaVuSans-68" x="340.673828"/>
      <use xlink:href="#DejaVuSans-1ee3" x="404.052734"/>
      <use xlink:href="#DejaVuSans-70" x="465.234375"/>
      <use xlink:href="#DejaVuSans-20" x="528.710938"/>
      <use xlink:href="#DejaVuSans-74" x="560.498047"/>
      <use xlink:href="#DejaVuSans-e1" x="599.707031"/>
      <use xlink:href="#DejaVuSans-63" x="660.986328"/>
     </g>
    </g>
   </g>
  </g>
 </g>
 <defs>
  <clipPath id="p1cbf97d7e0">
   <rect x="39.67625" y="26.89125" width="778.58375" height="319.659844"/>
  </clipPath>
 </defs>
</svg>
