<?xml version="1.0" encoding="utf-8" standalone="no"?>
<!DOCTYPE svg PUBLIC "-//W3C//DTD SVG 1.1//EN"
  "http://www.w3.org/Graphics/SVG/1.1/DTD/svg11.dtd">
<svg xmlns:xlink="http://www.w3.org/1999/xlink" width="576pt" height="576pt" viewBox="0 0 576 576" xmlns="http://www.w3.org/2000/svg" version="1.1">
 <metadata>
  <rdf:RDF xmlns:dc="http://purl.org/dc/elements/1.1/" xmlns:cc="http://creativecommons.org/ns#" xmlns:rdf="http://www.w3.org/1999/02/22-rdf-syntax-ns#">
   <cc:Work>
    <dc:type rdf:resource="http://purl.org/dc/dcmitype/StillImage"/>
    <dc:date>2025-03-09T23:22:00.882912</dc:date>
    <dc:format>image/svg+xml</dc:format>
    <dc:creator>
     <cc:Agent>
      <dc:title>Matplotlib v3.9.2, https://matplotlib.org/</dc:title>
     </cc:Agent>
    </dc:creator>
   </cc:Work>
  </rdf:RDF>
 </metadata>
 <defs>
  <style type="text/css">*{stroke-linejoin: round; stroke-linecap: butt}</style>
 </defs>
 <g id="figure_1">
  <g id="patch_1">
   <path d="M 0 576 
L 576 576 
L 576 0 
L 0 0 
z
" style="fill: #ffffff"/>
  </g>
  <g id="axes_1">
   <g id="patch_2">
    <path d="M 295.2 202.176 
C 285.634174 202.176 276.131026 203.723366 267.059327 206.758052 
C 257.987629 209.792738 249.466261 214.274976 241.825897 220.030831 
C 234.185533 225.786686 227.526297 232.740731 222.106602 240.623112 
C 216.686906 248.505494 212.577775 257.212916 209.938663 266.407486 
C 207.29955 275.602056 206.165042 285.163283 206.579162 294.720141 
C 206.993282 304.276999 208.950604 313.704249 212.375174 322.636066 
C 215.799743 331.567883 220.646683 339.887219 226.727905 347.271239 
C 232.809128 354.65526 240.044943 361.007201 248.154562 366.080574 
C 256.26418 371.153947 265.14133 374.882268 274.441532 377.120858 
C 283.741733 379.359448 293.343111 380.078972 302.873081 379.251508 
C 312.403051 378.424044 321.736728 376.060436 330.511916 372.252404 
C 339.287104 368.444373 347.388808 363.24182 354.50264 356.846632 
C 361.616472 350.451444 367.649207 342.947427 372.366746 334.625777 
C 377.084284 326.304126 380.424803 317.273894 382.258673 307.8855 
C 384.092544 298.497105 384.395734 288.87358 383.156478 279.388366 
C 381.917222 269.903153 379.151759 260.680551 374.967406 252.078446 
L 327.106962 275.359378 
C 328.780704 278.80022 329.886889 282.489261 330.382591 286.283346 
C 330.878294 290.077432 330.757018 293.926842 330.023469 297.6822 
C 329.289921 301.437558 327.953713 305.049651 326.066698 308.378311 
C 324.179683 311.706971 321.766589 314.708578 318.921056 317.266653 
C 316.075523 319.824728 312.834842 321.905749 309.324766 323.428962 
C 305.814691 324.952174 302.08122 325.897618 298.269232 326.228603 
C 294.457244 326.559589 290.616693 326.271779 286.896613 325.376343 
C 283.176532 324.480907 279.625672 322.989579 276.381825 320.96023 
C 273.137977 318.93088 270.243651 316.390104 267.811162 313.436496 
C 265.378673 310.482888 263.439897 307.155153 262.070069 303.582427 
C 260.700242 300.0097 259.917313 296.238799 259.751665 292.416056 
C 259.586017 288.593313 260.03982 284.768822 261.095465 281.090994 
C 262.15111 277.413166 263.794763 273.930197 265.962641 270.777245 
C 268.130519 267.624292 270.794213 264.842675 273.850359 262.540332 
C 276.906504 260.23799 280.315052 258.445095 283.943731 257.231221 
C 287.57241 256.017346 291.37367 255.3984 295.2 255.3984 
z
" style="fill: #87ceeb; stroke: #ffffff; stroke-linejoin: miter"/>
   </g>
   <g id="patch_3">
    <path d="M 374.967413 252.078461 
C 367.690263 237.118243 356.34915 224.5027 342.245433 215.679423 
C 328.141713 206.856145 311.836272 202.176 295.200012 202.176 
L 295.200005 255.3984 
C 301.854509 255.3984 308.376685 257.270458 314.018173 260.799769 
C 319.65966 264.32908 324.196105 269.375297 327.106965 275.359384 
z
" style="fill: #cd5c5c; stroke: #ffffff; stroke-linejoin: miter"/>
   </g>
   <g id="patch_4">
    <path d="M 295.2 148.9536 
C 278.808776 148.9536 262.540761 151.793159 247.118796 157.346106 
C 231.696831 162.899053 217.352763 171.081907 204.723945 181.531079 
C 192.095127 191.980251 181.371416 204.53865 173.0293 218.648269 
C 164.687183 232.757888 158.852075 248.206606 155.783246 264.307988 
C 152.714418 280.409371 152.458005 296.921356 155.0254 313.110263 
C 157.592796 329.29917 162.945403 344.921621 170.845388 359.283462 
C 178.745374 373.645303 189.073972 386.530622 201.37225 397.366884 
C 213.670529 408.203146 227.7536 416.827443 242.995708 422.85657 
C 258.237817 428.885696 274.409818 432.229013 290.793138 432.737966 
C 307.176459 433.246919 323.524799 430.913857 339.111749 425.842444 
C 354.698699 420.771032 369.28993 413.037511 382.237109 402.985507 
C 395.184289 392.933502 406.292771 380.714133 415.068973 366.870343 
C 423.845176 353.026553 430.157158 337.766466 433.72446 321.768135 
C 437.291763 305.769804 438.060755 289.273743 435.997268 273.012924 
C 433.933781 256.752104 429.068837 240.970985 421.618601 226.370772 
C 414.168364 211.770559 404.24484 198.570747 392.288961 187.357844 
L 355.8806 226.178653 
C 363.353025 233.186717 369.555228 241.4366 374.211625 250.561733 
C 378.868023 259.686866 381.908613 269.550065 383.198292 279.713077 
C 384.487972 289.87609 384.007352 300.186128 381.777788 310.185085 
C 379.548224 320.184041 375.603235 329.721596 370.118108 338.373964 
C 364.632982 347.026333 357.69018 354.663439 349.598193 360.945942 
C 341.506206 367.228444 332.386687 372.061895 322.644843 375.231528 
C 312.902999 378.40116 302.685287 379.859324 292.445712 379.541229 
C 282.206136 379.223133 272.098635 377.13356 262.572318 373.365356 
C 253.046 369.597152 244.244081 364.206966 236.557657 357.434302 
C 228.871232 350.661638 222.415859 342.608314 217.478368 333.632164 
C 212.540877 324.656013 209.195497 314.891981 207.590875 304.773914 
C 205.986253 294.655847 206.146511 284.335857 208.064529 274.272493 
C 209.982547 264.209128 213.62949 254.55368 218.843312 245.735168 
C 224.057135 236.916657 230.759454 229.067657 238.652466 222.536925 
C 246.545477 216.006192 255.510519 210.891908 265.149248 207.421316 
C 274.787976 203.950724 284.955485 202.176 295.2 202.176 
z
" style="fill: #87ceeb; stroke: #ffffff; stroke-linejoin: miter"/>
   </g>
   <g id="patch_5">
    <path d="M 392.288979 187.357855 
C 379.252762 175.131751 364.023668 165.477344 347.404281 158.903429 
C 330.784894 152.329513 313.072357 148.9536 295.20002 148.9536 
L 295.200012 202.176 
C 306.370223 202.176 317.440559 204.285946 327.827676 208.394643 
C 338.214793 212.50334 347.732976 218.537344 355.880612 226.178659 
z
" style="fill: #cd5c5c; stroke: #ffffff; stroke-linejoin: miter"/>
   </g>
   <g id="patch_6">
    <path d="M 295.2 95.7312 
C 272.312837 95.7312 249.603096 99.757529 228.110935 107.625773 
C 206.618774 115.494017 186.67741 127.082186 169.200202 141.859514 
C 151.722994 156.636843 136.980911 174.374222 125.649173 194.259241 
C 114.317435 214.144259 106.57173 235.868616 102.766831 258.437289 
C 98.961931 281.005962 99.156827 304.069042 103.342593 326.570188 
C 107.528359 349.071335 115.640097 370.661688 127.306273 390.352361 
C 138.972449 410.043033 154.012187 427.528739 171.736635 442.008593 
C 189.461084 456.488448 209.595439 467.737953 231.217504 475.241857 
C 252.839568 482.745761 275.61411 486.387722 298.498005 486.00093 
C 321.381899 485.614138 344.020352 481.20459 365.37647 472.974253 
C 386.732589 464.743917 406.475266 452.820395 423.700242 437.749813 
C 440.925218 422.679231 455.365435 404.695245 466.359499 384.62156 
C 477.353563 364.547876 484.73102 342.695719 488.153967 320.065967 
C 491.576914 297.436215 490.992281 274.379722 486.426845 251.952528 
C 481.861408 229.525334 473.385952 208.075153 461.388672 188.58445 
C 449.391391 169.093747 434.058292 151.864709 416.091667 137.686465 
L 383.121212 179.46652 
C 396.187849 189.77797 407.339193 202.30818 416.064488 216.483236 
C 424.789784 230.658293 430.953752 246.258425 434.274069 262.569112 
C 437.594386 278.879798 438.019574 295.648156 435.530158 312.106158 
C 433.040742 328.564159 427.675318 344.456637 419.679635 359.05568 
C 411.683953 373.654723 401.181976 386.733986 388.654721 397.69441 
C 376.127466 408.654833 361.769156 417.326485 346.237433 423.312184 
C 330.70571 429.297884 314.241381 432.504828 297.598549 432.786131 
C 280.955716 433.067434 264.392413 430.418735 248.667275 424.961351 
C 232.942138 419.503966 218.29897 411.322507 205.408462 400.791704 
C 192.517954 390.260901 181.579963 377.544024 173.095471 363.223535 
C 164.61098 348.903046 158.711534 333.200971 155.66734 316.836501 
C 152.623147 300.47203 152.481404 283.698881 155.248604 267.285301 
C 158.015804 250.871721 163.649043 235.072188 171.890308 220.610357 
C 180.131572 206.148525 190.853087 193.248613 203.563784 182.501465 
C 216.27448 171.754317 230.777291 163.326558 246.407953 157.604199 
C 262.038615 151.88184 278.55479 148.9536 295.2 148.9536 
z
" style="fill: #87ceeb; stroke: #ffffff; stroke-linejoin: miter"/>
   </g>
   <g id="patch_7">
    <path d="M 416.091712 137.6865 
C 398.994422 124.194281 379.758392 113.658987 359.182538 106.518159 
C 338.606684 99.377331 316.979862 95.731212 295.20012 95.7312 
L 295.200087 148.9536 
C 311.039899 148.953608 326.768498 151.605332 341.732755 156.798661 
C 356.697012 161.991991 370.686852 169.654023 383.121245 179.466546 
z
" style="fill: #cd5c5c; stroke: #ffffff; stroke-linejoin: miter"/>
   </g>
   <g id="patch_8">
    <path d="M 295.2 42.5088 
C 257.431582 42.5088 220.156025 51.123648 186.21768 67.69598 
C 152.279335 84.268311 122.563964 108.365602 99.339029 138.149083 
C 76.114093 167.932565 59.985744 202.624914 52.184672 239.578895 
C 44.3836 276.532876 45.113407 314.784021 54.318403 351.413537 
C 63.523399 388.043054 80.963342 422.094942 105.30746 450.970838 
C 129.651578 479.846733 160.264509 502.793 194.810302 518.0587 
C 229.356096 533.324399 266.933135 540.511109 304.674067 539.070441 
C 342.414998 537.629773 379.334814 527.599326 412.616312 509.744485 
L 387.455674 462.844952 
C 361.305926 476.873756 332.297498 484.754821 302.643909 485.886775 
C 272.99032 487.018729 243.465504 481.372028 216.32238 469.37755 
C 189.179257 457.383072 165.12624 439.353862 145.998719 416.665658 
C 126.871198 393.977454 113.168385 367.222399 105.935888 338.442065 
C 98.703391 309.661731 98.129972 279.60726 104.259385 250.571989 
C 110.388799 221.536718 123.061073 194.278444 141.309237 170.877137 
C 159.557401 147.47583 182.905192 128.542244 209.571035 115.521127 
C 236.236877 102.500009 265.524814 95.7312 295.2 95.7312 
z
" style="fill: #87ceeb; stroke: #ffffff; stroke-linejoin: miter"/>
   </g>
   <g id="patch_9">
    <path d="M 412.616295 509.744498 
C 461.371147 483.588521 500.015606 441.876642 522.37869 391.269711 
C 544.741788 340.662773 549.5662 284.005919 536.081595 230.346484 
C 522.596991 176.687048 491.561457 129.041799 447.93094 95.019039 
C 404.300423 60.99628 350.527873 42.508815 295.200035 42.5088 
L 295.200027 95.7312 
C 338.671901 95.731212 380.921761 110.257077 415.202881 136.989245 
C 449.484002 163.721414 473.869064 201.156967 484.464111 243.317952 
C 495.059157 285.478937 491.268548 329.995036 473.697542 369.75763 
C 456.126548 409.520219 425.763044 442.293838 387.45566 462.844963 
z
" style="fill: #cd5c5c; stroke: #ffffff; stroke-linejoin: miter"/>
   </g>
   <g id="matplotlib.axis_1"/>
   <g id="matplotlib.axis_2"/>
   <g id="text_1">
    <!-- 82.2% -->
    <g transform="translate(236.975527 361.319901) scale(0.1 -0.1)">
     <defs>
      <path id="DejaVuSans-38" d="M 2034 2216 
Q 1584 2216 1326 1975 
Q 1069 1734 1069 1313 
Q 1069 891 1326 650 
Q 1584 409 2034 409 
Q 2484 409 2743 651 
Q 3003 894 3003 1313 
Q 3003 1734 2745 1975 
Q 2488 2216 2034 2216 
z
M 1403 2484 
Q 997 2584 770 2862 
Q 544 3141 544 3541 
Q 544 4100 942 4425 
Q 1341 4750 2034 4750 
Q 2731 4750 3128 4425 
Q 3525 4100 3525 3541 
Q 3525 3141 3298 2862 
Q 3072 2584 2669 2484 
Q 3125 2378 3379 2068 
Q 3634 1759 3634 1313 
Q 3634 634 3220 271 
Q 2806 -91 2034 -91 
Q 1263 -91 848 271 
Q 434 634 434 1313 
Q 434 1759 690 2068 
Q 947 2378 1403 2484 
z
M 1172 3481 
Q 1172 3119 1398 2916 
Q 1625 2713 2034 2713 
Q 2441 2713 2670 2916 
Q 2900 3119 2900 3481 
Q 2900 3844 2670 4047 
Q 2441 4250 2034 4250 
Q 1625 4250 1398 4047 
Q 1172 3844 1172 3481 
z
" transform="scale(0.015625)"/>
      <path id="DejaVuSans-32" d="M 1228 531 
L 3431 531 
L 3431 0 
L 469 0 
L 469 531 
Q 828 903 1448 1529 
Q 2069 2156 2228 2338 
Q 2531 2678 2651 2914 
Q 2772 3150 2772 3378 
Q 2772 3750 2511 3984 
Q 2250 4219 1831 4219 
Q 1534 4219 1204 4116 
Q 875 4013 500 3803 
L 500 4441 
Q 881 4594 1212 4672 
Q 1544 4750 1819 4750 
Q 2544 4750 2975 4387 
Q 3406 4025 3406 3419 
Q 3406 3131 3298 2873 
Q 3191 2616 2906 2266 
Q 2828 2175 2409 1742 
Q 1991 1309 1228 531 
z
" transform="scale(0.015625)"/>
      <path id="DejaVuSans-2e" d="M 684 794 
L 1344 794 
L 1344 0 
L 684 0 
L 684 794 
z
" transform="scale(0.015625)"/>
      <path id="DejaVuSans-25" d="M 4653 2053 
Q 4381 2053 4226 1822 
Q 4072 1591 4072 1178 
Q 4072 772 4226 539 
Q 4381 306 4653 306 
Q 4919 306 5073 539 
Q 5228 772 5228 1178 
Q 5228 1588 5073 1820 
Q 4919 2053 4653 2053 
z
M 4653 2450 
Q 5147 2450 5437 2106 
Q 5728 1763 5728 1178 
Q 5728 594 5436 251 
Q 5144 -91 4653 -91 
Q 4153 -91 3862 251 
Q 3572 594 3572 1178 
Q 3572 1766 3864 2108 
Q 4156 2450 4653 2450 
z
M 1428 4353 
Q 1159 4353 1004 4120 
Q 850 3888 850 3481 
Q 850 3069 1003 2837 
Q 1156 2606 1428 2606 
Q 1700 2606 1854 2837 
Q 2009 3069 2009 3481 
Q 2009 3884 1853 4118 
Q 1697 4353 1428 4353 
z
M 4250 4750 
L 4750 4750 
L 1831 -91 
L 1331 -91 
L 4250 4750 
z
M 1428 4750 
Q 1922 4750 2215 4408 
Q 2509 4066 2509 3481 
Q 2509 2891 2217 2550 
Q 1925 2209 1428 2209 
Q 931 2209 642 2551 
Q 353 2894 353 3481 
Q 353 4063 643 4406 
Q 934 4750 1428 4750 
z
" transform="scale(0.015625)"/>
     </defs>
     <use xlink:href="#DejaVuSans-38"/>
     <use xlink:href="#DejaVuSans-32" x="63.623047"/>
     <use xlink:href="#DejaVuSans-2e" x="127.246094"/>
     <use xlink:href="#DejaVuSans-32" x="159.033203"/>
     <use xlink:href="#DejaVuSans-25" x="222.65625"/>
    </g>
   </g>
   <g id="text_2">
    <!-- 17.8% -->
    <g transform="translate(321.657296 225.958855) scale(0.1 -0.1)">
     <defs>
      <path id="DejaVuSans-31" d="M 794 531 
L 1825 531 
L 1825 4091 
L 703 3866 
L 703 4441 
L 1819 4666 
L 2450 4666 
L 2450 531 
L 3481 531 
L 3481 0 
L 794 0 
L 794 531 
z
" transform="scale(0.015625)"/>
      <path id="DejaVuSans-37" d="M 525 4666 
L 3525 4666 
L 3525 4397 
L 1831 0 
L 1172 0 
L 2766 4134 
L 525 4134 
L 525 4666 
z
" transform="scale(0.015625)"/>
     </defs>
     <use xlink:href="#DejaVuSans-31"/>
     <use xlink:href="#DejaVuSans-37" x="63.623047"/>
     <use xlink:href="#DejaVuSans-2e" x="127.246094"/>
     <use xlink:href="#DejaVuSans-38" x="159.033203"/>
     <use xlink:href="#DejaVuSans-25" x="222.65625"/>
    </g>
   </g>
   <g id="text_3">
    <!-- Top 1-500 -->
    <g transform="translate(267.70625 236.385637) scale(0.1 -0.1)">
     <defs>
      <path id="DejaVuSans-Bold-54" d="M 31 4666 
L 4331 4666 
L 4331 3756 
L 2784 3756 
L 2784 0 
L 1581 0 
L 1581 3756 
L 31 3756 
L 31 4666 
z
" transform="scale(0.015625)"/>
      <path id="DejaVuSans-Bold-6f" d="M 2203 2784 
Q 1831 2784 1636 2517 
Q 1441 2250 1441 1747 
Q 1441 1244 1636 976 
Q 1831 709 2203 709 
Q 2569 709 2762 976 
Q 2956 1244 2956 1747 
Q 2956 2250 2762 2517 
Q 2569 2784 2203 2784 
z
M 2203 3584 
Q 3106 3584 3614 3096 
Q 4122 2609 4122 1747 
Q 4122 884 3614 396 
Q 3106 -91 2203 -91 
Q 1297 -91 786 396 
Q 275 884 275 1747 
Q 275 2609 786 3096 
Q 1297 3584 2203 3584 
z
" transform="scale(0.015625)"/>
      <path id="DejaVuSans-Bold-70" d="M 1656 506 
L 1656 -1331 
L 538 -1331 
L 538 3500 
L 1656 3500 
L 1656 2988 
Q 1888 3294 2169 3439 
Q 2450 3584 2816 3584 
Q 3463 3584 3878 3070 
Q 4294 2556 4294 1747 
Q 4294 938 3878 423 
Q 3463 -91 2816 -91 
Q 2450 -91 2169 54 
Q 1888 200 1656 506 
z
M 2400 2772 
Q 2041 2772 1848 2508 
Q 1656 2244 1656 1747 
Q 1656 1250 1848 986 
Q 2041 722 2400 722 
Q 2759 722 2948 984 
Q 3138 1247 3138 1747 
Q 3138 2247 2948 2509 
Q 2759 2772 2400 2772 
z
" transform="scale(0.015625)"/>
      <path id="DejaVuSans-Bold-20" transform="scale(0.015625)"/>
      <path id="DejaVuSans-Bold-31" d="M 750 831 
L 1813 831 
L 1813 3847 
L 722 3622 
L 722 4441 
L 1806 4666 
L 2950 4666 
L 2950 831 
L 4013 831 
L 4013 0 
L 750 0 
L 750 831 
z
" transform="scale(0.015625)"/>
      <path id="DejaVuSans-Bold-2d" d="M 347 2297 
L 2309 2297 
L 2309 1388 
L 347 1388 
L 347 2297 
z
" transform="scale(0.015625)"/>
      <path id="DejaVuSans-Bold-35" d="M 678 4666 
L 3669 4666 
L 3669 3781 
L 1638 3781 
L 1638 3059 
Q 1775 3097 1914 3117 
Q 2053 3138 2203 3138 
Q 3056 3138 3531 2711 
Q 4006 2284 4006 1522 
Q 4006 766 3489 337 
Q 2972 -91 2053 -91 
Q 1656 -91 1267 -14 
Q 878 63 494 219 
L 494 1166 
Q 875 947 1217 837 
Q 1559 728 1863 728 
Q 2300 728 2551 942 
Q 2803 1156 2803 1522 
Q 2803 1891 2551 2103 
Q 2300 2316 1863 2316 
Q 1603 2316 1309 2248 
Q 1016 2181 678 2041 
L 678 4666 
z
" transform="scale(0.015625)"/>
      <path id="DejaVuSans-Bold-30" d="M 2944 2338 
Q 2944 3213 2780 3570 
Q 2616 3928 2228 3928 
Q 1841 3928 1675 3570 
Q 1509 3213 1509 2338 
Q 1509 1453 1675 1090 
Q 1841 728 2228 728 
Q 2613 728 2778 1090 
Q 2944 1453 2944 2338 
z
M 4147 2328 
Q 4147 1169 3647 539 
Q 3147 -91 2228 -91 
Q 1306 -91 806 539 
Q 306 1169 306 2328 
Q 306 3491 806 4120 
Q 1306 4750 2228 4750 
Q 3147 4750 3647 4120 
Q 4147 3491 4147 2328 
z
" transform="scale(0.015625)"/>
     </defs>
     <use xlink:href="#DejaVuSans-Bold-54"/>
     <use xlink:href="#DejaVuSans-Bold-6f" x="54.962891"/>
     <use xlink:href="#DejaVuSans-Bold-70" x="123.664062"/>
     <use xlink:href="#DejaVuSans-Bold-20" x="195.246094"/>
     <use xlink:href="#DejaVuSans-Bold-31" x="230.060547"/>
     <use xlink:href="#DejaVuSans-Bold-2d" x="299.640625"/>
     <use xlink:href="#DejaVuSans-Bold-35" x="341.144531"/>
     <use xlink:href="#DejaVuSans-Bold-30" x="410.724609"/>
     <use xlink:href="#DejaVuSans-Bold-30" x="480.304688"/>
    </g>
   </g>
   <g id="text_4">
    <!-- 88.0% -->
    <g transform="translate(232.332571 412.418299) scale(0.1 -0.1)">
     <defs>
      <path id="DejaVuSans-30" d="M 2034 4250 
Q 1547 4250 1301 3770 
Q 1056 3291 1056 2328 
Q 1056 1369 1301 889 
Q 1547 409 2034 409 
Q 2525 409 2770 889 
Q 3016 1369 3016 2328 
Q 3016 3291 2770 3770 
Q 2525 4250 2034 4250 
z
M 2034 4750 
Q 2819 4750 3233 4129 
Q 3647 3509 3647 2328 
Q 3647 1150 3233 529 
Q 2819 -91 2034 -91 
Q 1250 -91 836 529 
Q 422 1150 422 2328 
Q 422 3509 836 4129 
Q 1250 4750 2034 4750 
z
" transform="scale(0.015625)"/>
     </defs>
     <use xlink:href="#DejaVuSans-38"/>
     <use xlink:href="#DejaVuSans-38" x="63.623047"/>
     <use xlink:href="#DejaVuSans-2e" x="127.246094"/>
     <use xlink:href="#DejaVuSans-30" x="159.033203"/>
     <use xlink:href="#DejaVuSans-25" x="222.65625"/>
    </g>
   </g>
   <g id="text_5">
    <!-- 12.0% -->
    <g transform="translate(326.300203 174.860436) scale(0.1 -0.1)">
     <use xlink:href="#DejaVuSans-31"/>
     <use xlink:href="#DejaVuSans-32" x="63.623047"/>
     <use xlink:href="#DejaVuSans-2e" x="127.246094"/>
     <use xlink:href="#DejaVuSans-30" x="159.033203"/>
     <use xlink:href="#DejaVuSans-25" x="222.65625"/>
    </g>
   </g>
   <g id="text_6">
    <!-- Top 501-1000 -->
    <g transform="translate(257.269531 183.163237) scale(0.1 -0.1)">
     <use xlink:href="#DejaVuSans-Bold-54"/>
     <use xlink:href="#DejaVuSans-Bold-6f" x="54.962891"/>
     <use xlink:href="#DejaVuSans-Bold-70" x="123.664062"/>
     <use xlink:href="#DejaVuSans-Bold-20" x="195.246094"/>
     <use xlink:href="#DejaVuSans-Bold-35" x="230.060547"/>
     <use xlink:href="#DejaVuSans-Bold-30" x="299.640625"/>
     <use xlink:href="#DejaVuSans-Bold-31" x="369.220703"/>
     <use xlink:href="#DejaVuSans-Bold-2d" x="438.800781"/>
     <use xlink:href="#DejaVuSans-Bold-31" x="480.304688"/>
     <use xlink:href="#DejaVuSans-Bold-30" x="549.884766"/>
     <use xlink:href="#DejaVuSans-Bold-30" x="619.464844"/>
     <use xlink:href="#DejaVuSans-Bold-30" x="689.044922"/>
    </g>
   </g>
   <g id="text_7">
    <!-- 89.4% -->
    <g transform="translate(221.73215 459.565043) scale(0.1 -0.1)">
     <defs>
      <path id="DejaVuSans-39" d="M 703 97 
L 703 672 
Q 941 559 1184 500 
Q 1428 441 1663 441 
Q 2288 441 2617 861 
Q 2947 1281 2994 2138 
Q 2813 1869 2534 1725 
Q 2256 1581 1919 1581 
Q 1219 1581 811 2004 
Q 403 2428 403 3163 
Q 403 3881 828 4315 
Q 1253 4750 1959 4750 
Q 2769 4750 3195 4129 
Q 3622 3509 3622 2328 
Q 3622 1225 3098 567 
Q 2575 -91 1691 -91 
Q 1453 -91 1209 -44 
Q 966 3 703 97 
z
M 1959 2075 
Q 2384 2075 2632 2365 
Q 2881 2656 2881 3163 
Q 2881 3666 2632 3958 
Q 2384 4250 1959 4250 
Q 1534 4250 1286 3958 
Q 1038 3666 1038 3163 
Q 1038 2656 1286 2365 
Q 1534 2075 1959 2075 
z
" transform="scale(0.015625)"/>
      <path id="DejaVuSans-34" d="M 2419 4116 
L 825 1625 
L 2419 1625 
L 2419 4116 
z
M 2253 4666 
L 3047 4666 
L 3047 1625 
L 3713 1625 
L 3713 1100 
L 3047 1100 
L 3047 0 
L 2419 0 
L 2419 1100 
L 313 1100 
L 313 1709 
L 2253 4666 
z
" transform="scale(0.015625)"/>
     </defs>
     <use xlink:href="#DejaVuSans-38"/>
     <use xlink:href="#DejaVuSans-39" x="63.623047"/>
     <use xlink:href="#DejaVuSans-2e" x="127.246094"/>
     <use xlink:href="#DejaVuSans-34" x="159.033203"/>
     <use xlink:href="#DejaVuSans-25" x="222.65625"/>
    </g>
   </g>
   <g id="text_8">
    <!-- 10.6% -->
    <g transform="translate(336.900766 127.713743) scale(0.1 -0.1)">
     <defs>
      <path id="DejaVuSans-36" d="M 2113 2584 
Q 1688 2584 1439 2293 
Q 1191 2003 1191 1497 
Q 1191 994 1439 701 
Q 1688 409 2113 409 
Q 2538 409 2786 701 
Q 3034 994 3034 1497 
Q 3034 2003 2786 2293 
Q 2538 2584 2113 2584 
z
M 3366 4563 
L 3366 3988 
Q 3128 4100 2886 4159 
Q 2644 4219 2406 4219 
Q 1781 4219 1451 3797 
Q 1122 3375 1075 2522 
Q 1259 2794 1537 2939 
Q 1816 3084 2150 3084 
Q 2853 3084 3261 2657 
Q 3669 2231 3669 1497 
Q 3669 778 3244 343 
Q 2819 -91 2113 -91 
Q 1303 -91 875 529 
Q 447 1150 447 2328 
Q 447 3434 972 4092 
Q 1497 4750 2381 4750 
Q 2619 4750 2861 4703 
Q 3103 4656 3366 4563 
z
" transform="scale(0.015625)"/>
     </defs>
     <use xlink:href="#DejaVuSans-31"/>
     <use xlink:href="#DejaVuSans-30" x="63.623047"/>
     <use xlink:href="#DejaVuSans-2e" x="127.246094"/>
     <use xlink:href="#DejaVuSans-36" x="159.033203"/>
     <use xlink:href="#DejaVuSans-25" x="222.65625"/>
    </g>
   </g>
   <g id="text_9">
    <!-- Top 1001-1500 -->
    <g transform="translate(253.790625 129.940837) scale(0.1 -0.1)">
     <use xlink:href="#DejaVuSans-Bold-54"/>
     <use xlink:href="#DejaVuSans-Bold-6f" x="54.962891"/>
     <use xlink:href="#DejaVuSans-Bold-70" x="123.664062"/>
     <use xlink:href="#DejaVuSans-Bold-20" x="195.246094"/>
     <use xlink:href="#DejaVuSans-Bold-31" x="230.060547"/>
     <use xlink:href="#DejaVuSans-Bold-30" x="299.640625"/>
     <use xlink:href="#DejaVuSans-Bold-30" x="369.220703"/>
     <use xlink:href="#DejaVuSans-Bold-31" x="438.800781"/>
     <use xlink:href="#DejaVuSans-Bold-2d" x="508.380859"/>
     <use xlink:href="#DejaVuSans-Bold-31" x="549.884766"/>
     <use xlink:href="#DejaVuSans-Bold-35" x="619.464844"/>
     <use xlink:href="#DejaVuSans-Bold-30" x="689.044922"/>
     <use xlink:href="#DejaVuSans-Bold-30" x="758.625"/>
    </g>
   </g>
   <g id="text_10">
    <!-- 57.8% -->
    <g transform="translate(62.522972 348.11957) scale(0.1 -0.1)">
     <defs>
      <path id="DejaVuSans-35" d="M 691 4666 
L 3169 4666 
L 3169 4134 
L 1269 4134 
L 1269 2991 
Q 1406 3038 1543 3061 
Q 1681 3084 1819 3084 
Q 2600 3084 3056 2656 
Q 3513 2228 3513 1497 
Q 3513 744 3044 326 
Q 2575 -91 1722 -91 
Q 1428 -91 1123 -41 
Q 819 9 494 109 
L 494 744 
Q 775 591 1075 516 
Q 1375 441 1709 441 
Q 2250 441 2565 725 
Q 2881 1009 2881 1497 
Q 2881 1984 2565 2268 
Q 2250 2553 1709 2553 
Q 1456 2553 1204 2497 
Q 953 2441 691 2322 
L 691 4666 
z
" transform="scale(0.015625)"/>
     </defs>
     <use xlink:href="#DejaVuSans-35"/>
     <use xlink:href="#DejaVuSans-37" x="63.623047"/>
     <use xlink:href="#DejaVuSans-2e" x="127.246094"/>
     <use xlink:href="#DejaVuSans-38" x="159.033203"/>
     <use xlink:href="#DejaVuSans-25" x="222.65625"/>
    </g>
   </g>
   <g id="text_11">
    <!-- 42.2% -->
    <g transform="translate(496.109849 239.159212) scale(0.1 -0.1)">
     <use xlink:href="#DejaVuSans-34"/>
     <use xlink:href="#DejaVuSans-32" x="63.623047"/>
     <use xlink:href="#DejaVuSans-2e" x="127.246094"/>
     <use xlink:href="#DejaVuSans-32" x="159.033203"/>
     <use xlink:href="#DejaVuSans-25" x="222.65625"/>
    </g>
   </g>
   <g id="text_12">
    <!-- Top 1501+ -->
    <g transform="translate(265.591406 76.718437) scale(0.1 -0.1)">
     <defs>
      <path id="DejaVuSans-Bold-2b" d="M 3053 4013 
L 3053 2375 
L 4684 2375 
L 4684 1638 
L 3053 1638 
L 3053 0 
L 2309 0 
L 2309 1638 
L 678 1638 
L 678 2375 
L 2309 2375 
L 2309 4013 
L 3053 4013 
z
" transform="scale(0.015625)"/>
     </defs>
     <use xlink:href="#DejaVuSans-Bold-54"/>
     <use xlink:href="#DejaVuSans-Bold-6f" x="54.962891"/>
     <use xlink:href="#DejaVuSans-Bold-70" x="123.664062"/>
     <use xlink:href="#DejaVuSans-Bold-20" x="195.246094"/>
     <use xlink:href="#DejaVuSans-Bold-31" x="230.060547"/>
     <use xlink:href="#DejaVuSans-Bold-35" x="299.640625"/>
     <use xlink:href="#DejaVuSans-Bold-30" x="369.220703"/>
     <use xlink:href="#DejaVuSans-Bold-31" x="438.800781"/>
     <use xlink:href="#DejaVuSans-Bold-2b" x="508.380859"/>
    </g>
   </g>
   <g id="legend_1">
    <g id="patch_10">
     <path d="M 80.44 122.080938 
L 169.918125 122.080938 
Q 171.918125 122.080938 171.918125 120.080938 
L 171.918125 76.12 
Q 171.918125 74.12 169.918125 74.12 
L 80.44 74.12 
Q 78.44 74.12 78.44 76.12 
L 78.44 120.080938 
Q 78.44 122.080938 80.44 122.080938 
z
" style="fill: #ffffff; opacity: 0.8; stroke: #cccccc; stroke-linejoin: miter"/>
    </g>
    <g id="text_13">
     <!-- Thể loại -->
     <g transform="translate(105.389219 86.493438) scale(0.1 -0.1)">
      <defs>
       <path id="DejaVuSans-54" d="M -19 4666 
L 3928 4666 
L 3928 4134 
L 2272 4134 
L 2272 0 
L 1638 0 
L 1638 4134 
L -19 4134 
L -19 4666 
z
" transform="scale(0.015625)"/>
       <path id="DejaVuSans-68" d="M 3513 2113 
L 3513 0 
L 2938 0 
L 2938 2094 
Q 2938 2591 2744 2837 
Q 2550 3084 2163 3084 
Q 1697 3084 1428 2787 
Q 1159 2491 1159 1978 
L 1159 0 
L 581 0 
L 581 4863 
L 1159 4863 
L 1159 2956 
Q 1366 3272 1645 3428 
Q 1925 3584 2291 3584 
Q 2894 3584 3203 3211 
Q 3513 2838 3513 2113 
z
" transform="scale(0.015625)"/>
       <path id="DejaVuSans-1ec3" d="M 3597 1894 
L 3597 1613 
L 953 1613 
Q 991 1019 1311 708 
Q 1631 397 2203 397 
Q 2534 397 2845 478 
Q 3156 559 3463 722 
L 3463 178 
Q 3153 47 2828 -22 
Q 2503 -91 2169 -91 
Q 1331 -91 842 396 
Q 353 884 353 1716 
Q 353 2575 817 3079 
Q 1281 3584 2069 3584 
Q 2775 3584 3186 3129 
Q 3597 2675 3597 1894 
z
M 3022 2063 
Q 3016 2534 2758 2815 
Q 2500 3097 2075 3097 
Q 1594 3097 1305 2825 
Q 1016 2553 972 2059 
L 3022 2063 
z
M 2472 5359 
Q 2822 5518 3150 5518 
Q 3475 5518 3673 5385 
Q 3872 5253 3872 5043 
Q 3872 4853 3597 4650 
L 3459 4550 
Q 3350 4468 3338 4440 
Q 3316 4390 3316 4290 
L 2944 4290 
L 2944 4328 
Q 2944 4453 2991 4537 
Q 3038 4622 3197 4737 
L 3338 4843 
Q 3481 4950 3481 5075 
Q 3481 5140 3384 5196 
Q 3288 5253 3066 5253 
Q 2784 5253 2472 5090 
L 2472 5359 
z
M 1744 4775 
L 2331 4775 
L 2991 3944 
L 2556 3944 
L 2038 4500 
L 1519 3944 
L 1084 3944 
L 1744 4775 
z
" transform="scale(0.015625)"/>
       <path id="DejaVuSans-20" transform="scale(0.015625)"/>
       <path id="DejaVuSans-6c" d="M 603 4863 
L 1178 4863 
L 1178 0 
L 603 0 
L 603 4863 
z
" transform="scale(0.015625)"/>
       <path id="DejaVuSans-6f" d="M 1959 3097 
Q 1497 3097 1228 2736 
Q 959 2375 959 1747 
Q 959 1119 1226 758 
Q 1494 397 1959 397 
Q 2419 397 2687 759 
Q 2956 1122 2956 1747 
Q 2956 2369 2687 2733 
Q 2419 3097 1959 3097 
z
M 1959 3584 
Q 2709 3584 3137 3096 
Q 3566 2609 3566 1747 
Q 3566 888 3137 398 
Q 2709 -91 1959 -91 
Q 1206 -91 779 398 
Q 353 888 353 1747 
Q 353 2609 779 3096 
Q 1206 3584 1959 3584 
z
" transform="scale(0.015625)"/>
       <path id="DejaVuSans-1ea1" d="M 1409 -441 
L 1984 -441 
L 1984 -1172 
L 1409 -1172 
L 1409 -441 
z
M 2194 1759 
Q 1497 1759 1228 1600 
Q 959 1441 959 1056 
Q 959 750 1161 570 
Q 1363 391 1709 391 
Q 2188 391 2477 730 
Q 2766 1069 2766 1631 
L 2766 1759 
L 2194 1759 
z
M 3341 1997 
L 3341 0 
L 2766 0 
L 2766 531 
Q 2569 213 2275 61 
Q 1981 -91 1556 -91 
Q 1019 -91 701 211 
Q 384 513 384 1019 
Q 384 1609 779 1909 
Q 1175 2209 1959 2209 
L 2766 2209 
L 2766 2266 
Q 2766 2663 2505 2880 
Q 2244 3097 1772 3097 
Q 1472 3097 1187 3025 
Q 903 2953 641 2809 
L 641 3341 
Q 956 3463 1253 3523 
Q 1550 3584 1831 3584 
Q 2591 3584 2966 3190 
Q 3341 2797 3341 1997 
z
" transform="scale(0.015625)"/>
       <path id="DejaVuSans-69" d="M 603 3500 
L 1178 3500 
L 1178 0 
L 603 0 
L 603 3500 
z
M 603 4863 
L 1178 4863 
L 1178 4134 
L 603 4134 
L 603 4863 
z
" transform="scale(0.015625)"/>
      </defs>
      <use xlink:href="#DejaVuSans-54"/>
      <use xlink:href="#DejaVuSans-68" x="61.083984"/>
      <use xlink:href="#DejaVuSans-1ec3" x="124.462891"/>
      <use xlink:href="#DejaVuSans-20" x="185.986328"/>
      <use xlink:href="#DejaVuSans-6c" x="217.773438"/>
      <use xlink:href="#DejaVuSans-6f" x="245.556641"/>
      <use xlink:href="#DejaVuSans-1ea1" x="306.738281"/>
      <use xlink:href="#DejaVuSans-69" x="368.017578"/>
     </g>
    </g>
    <g id="patch_11">
     <path d="M 82.44 101.171563 
L 102.44 101.171563 
L 102.44 94.171563 
L 82.44 94.171563 
z
" style="fill: #87ceeb; stroke: #ffffff; stroke-linejoin: miter"/>
    </g>
    <g id="text_14">
     <!-- Nhạc Ngoại -->
     <g transform="translate(110.44 101.171563) scale(0.1 -0.1)">
      <defs>
       <path id="DejaVuSans-4e" d="M 628 4666 
L 1478 4666 
L 3547 763 
L 3547 4666 
L 4159 4666 
L 4159 0 
L 3309 0 
L 1241 3903 
L 1241 0 
L 628 0 
L 628 4666 
z
" transform="scale(0.015625)"/>
       <path id="DejaVuSans-63" d="M 3122 3366 
L 3122 2828 
Q 2878 2963 2633 3030 
Q 2388 3097 2138 3097 
Q 1578 3097 1268 2742 
Q 959 2388 959 1747 
Q 959 1106 1268 751 
Q 1578 397 2138 397 
Q 2388 397 2633 464 
Q 2878 531 3122 666 
L 3122 134 
Q 2881 22 2623 -34 
Q 2366 -91 2075 -91 
Q 1284 -91 818 406 
Q 353 903 353 1747 
Q 353 2603 823 3093 
Q 1294 3584 2113 3584 
Q 2378 3584 2631 3529 
Q 2884 3475 3122 3366 
z
" transform="scale(0.015625)"/>
       <path id="DejaVuSans-67" d="M 2906 1791 
Q 2906 2416 2648 2759 
Q 2391 3103 1925 3103 
Q 1463 3103 1205 2759 
Q 947 2416 947 1791 
Q 947 1169 1205 825 
Q 1463 481 1925 481 
Q 2391 481 2648 825 
Q 2906 1169 2906 1791 
z
M 3481 434 
Q 3481 -459 3084 -895 
Q 2688 -1331 1869 -1331 
Q 1566 -1331 1297 -1286 
Q 1028 -1241 775 -1147 
L 775 -588 
Q 1028 -725 1275 -790 
Q 1522 -856 1778 -856 
Q 2344 -856 2625 -561 
Q 2906 -266 2906 331 
L 2906 616 
Q 2728 306 2450 153 
Q 2172 0 1784 0 
Q 1141 0 747 490 
Q 353 981 353 1791 
Q 353 2603 747 3093 
Q 1141 3584 1784 3584 
Q 2172 3584 2450 3431 
Q 2728 3278 2906 2969 
L 2906 3500 
L 3481 3500 
L 3481 434 
z
" transform="scale(0.015625)"/>
      </defs>
      <use xlink:href="#DejaVuSans-4e"/>
      <use xlink:href="#DejaVuSans-68" x="74.804688"/>
      <use xlink:href="#DejaVuSans-1ea1" x="138.183594"/>
      <use xlink:href="#DejaVuSans-63" x="199.462891"/>
      <use xlink:href="#DejaVuSans-20" x="254.443359"/>
      <use xlink:href="#DejaVuSans-4e" x="286.230469"/>
      <use xlink:href="#DejaVuSans-67" x="361.035156"/>
      <use xlink:href="#DejaVuSans-6f" x="424.511719"/>
      <use xlink:href="#DejaVuSans-1ea1" x="485.693359"/>
      <use xlink:href="#DejaVuSans-69" x="546.972656"/>
     </g>
    </g>
    <g id="patch_12">
     <path d="M 82.44 116.00125 
L 102.44 116.00125 
L 102.44 109.00125 
L 82.44 109.00125 
z
" style="fill: #cd5c5c; stroke: #ffffff; stroke-linejoin: miter"/>
    </g>
    <g id="text_15">
     <!-- Nhạc Việt -->
     <g transform="translate(110.44 116.00125) scale(0.1 -0.1)">
      <defs>
       <path id="DejaVuSans-56" d="M 1831 0 
L 50 4666 
L 709 4666 
L 2188 738 
L 3669 4666 
L 4325 4666 
L 2547 0 
L 1831 0 
z
" transform="scale(0.015625)"/>
       <path id="DejaVuSans-1ec7" d="M 1741 -441 
L 2316 -441 
L 2316 -1172 
L 1741 -1172 
L 1741 -441 
z
M 3597 1894 
L 3597 1613 
L 953 1613 
Q 991 1019 1311 708 
Q 1631 397 2203 397 
Q 2534 397 2845 478 
Q 3156 559 3463 722 
L 3463 178 
Q 3153 47 2828 -22 
Q 2503 -91 2169 -91 
Q 1331 -91 842 396 
Q 353 884 353 1716 
Q 353 2575 817 3079 
Q 1281 3584 2069 3584 
Q 2775 3584 3186 3129 
Q 3597 2675 3597 1894 
z
M 3022 2063 
Q 3016 2534 2758 2815 
Q 2500 3097 2075 3097 
Q 1594 3097 1305 2825 
Q 1016 2553 972 2059 
L 3022 2063 
z
M 1741 -441 
L 2316 -441 
L 2316 -1172 
L 1741 -1172 
L 1741 -441 
z
M 1803 5119 
L 2266 5119 
L 3031 3944 
L 2597 3944 
L 2034 4709 
L 1472 3944 
L 1038 3944 
L 1803 5119 
z
" transform="scale(0.015625)"/>
       <path id="DejaVuSans-74" d="M 1172 4494 
L 1172 3500 
L 2356 3500 
L 2356 3053 
L 1172 3053 
L 1172 1153 
Q 1172 725 1289 603 
Q 1406 481 1766 481 
L 2356 481 
L 2356 0 
L 1766 0 
Q 1100 0 847 248 
Q 594 497 594 1153 
L 594 3053 
L 172 3053 
L 172 3500 
L 594 3500 
L 594 4494 
L 1172 4494 
z
" transform="scale(0.015625)"/>
      </defs>
      <use xlink:href="#DejaVuSans-4e"/>
      <use xlink:href="#DejaVuSans-68" x="74.804688"/>
      <use xlink:href="#DejaVuSans-1ea1" x="138.183594"/>
      <use xlink:href="#DejaVuSans-63" x="199.462891"/>
      <use xlink:href="#DejaVuSans-20" x="254.443359"/>
      <use xlink:href="#DejaVuSans-56" x="286.230469"/>
      <use xlink:href="#DejaVuSans-69" x="352.388672"/>
      <use xlink:href="#DejaVuSans-1ec7" x="380.171875"/>
      <use xlink:href="#DejaVuSans-74" x="441.695312"/>
     </g>
    </g>
   </g>
  </g>
  <g id="text_16">
   <!-- Tỉ lệ Nhạc Việt và Nhạc Ngoại trong các top bài hát -->
   <g transform="translate(134.52 21.245625) scale(0.12 -0.12)">
    <defs>
     <path id="DejaVuSans-1ec9" d="M 603 3500 
L 1178 3500 
L 1178 0 
L 603 0 
L 603 3500 
z
M 891 3584 
L 891 3584 
z
M 213 5028 
Q 563 5187 891 5187 
Q 1216 5187 1414 5054 
Q 1613 4922 1613 4712 
Q 1613 4522 1338 4319 
L 1200 4219 
Q 1091 4137 1078 4109 
Q 1056 4059 1056 3959 
L 684 3959 
L 684 3997 
Q 684 4122 731 4206 
Q 778 4291 938 4406 
L 1078 4512 
Q 1222 4619 1222 4744 
Q 1222 4809 1125 4865 
Q 1028 4922 806 4922 
Q 525 4922 213 4759 
L 213 5028 
z
" transform="scale(0.015625)"/>
     <path id="DejaVuSans-76" d="M 191 3500 
L 800 3500 
L 1894 563 
L 2988 3500 
L 3597 3500 
L 2284 0 
L 1503 0 
L 191 3500 
z
" transform="scale(0.015625)"/>
     <path id="DejaVuSans-e0" d="M 2194 1759 
Q 1497 1759 1228 1600 
Q 959 1441 959 1056 
Q 959 750 1161 570 
Q 1363 391 1709 391 
Q 2188 391 2477 730 
Q 2766 1069 2766 1631 
L 2766 1759 
L 2194 1759 
z
M 3341 1997 
L 3341 0 
L 2766 0 
L 2766 531 
Q 2569 213 2275 61 
Q 1981 -91 1556 -91 
Q 1019 -91 701 211 
Q 384 513 384 1019 
Q 384 1609 779 1909 
Q 1175 2209 1959 2209 
L 2766 2209 
L 2766 2266 
Q 2766 2663 2505 2880 
Q 2244 3097 1772 3097 
Q 1472 3097 1187 3025 
Q 903 2953 641 2809 
L 641 3341 
Q 956 3463 1253 3523 
Q 1550 3584 1831 3584 
Q 2591 3584 2966 3190 
Q 3341 2797 3341 1997 
z
M 1403 5119 
L 2284 3950 
L 1806 3950 
L 788 5119 
L 1403 5119 
z
" transform="scale(0.015625)"/>
     <path id="DejaVuSans-72" d="M 2631 2963 
Q 2534 3019 2420 3045 
Q 2306 3072 2169 3072 
Q 1681 3072 1420 2755 
Q 1159 2438 1159 1844 
L 1159 0 
L 581 0 
L 581 3500 
L 1159 3500 
L 1159 2956 
Q 1341 3275 1631 3429 
Q 1922 3584 2338 3584 
Q 2397 3584 2469 3576 
Q 2541 3569 2628 3553 
L 2631 2963 
z
" transform="scale(0.015625)"/>
     <path id="DejaVuSans-6e" d="M 3513 2113 
L 3513 0 
L 2938 0 
L 2938 2094 
Q 2938 2591 2744 2837 
Q 2550 3084 2163 3084 
Q 1697 3084 1428 2787 
Q 1159 2491 1159 1978 
L 1159 0 
L 581 0 
L 581 3500 
L 1159 3500 
L 1159 2956 
Q 1366 3272 1645 3428 
Q 1925 3584 2291 3584 
Q 2894 3584 3203 3211 
Q 3513 2838 3513 2113 
z
" transform="scale(0.015625)"/>
     <path id="DejaVuSans-e1" d="M 2194 1759 
Q 1497 1759 1228 1600 
Q 959 1441 959 1056 
Q 959 750 1161 570 
Q 1363 391 1709 391 
Q 2188 391 2477 730 
Q 2766 1069 2766 1631 
L 2766 1759 
L 2194 1759 
z
M 3341 1997 
L 3341 0 
L 2766 0 
L 2766 531 
Q 2569 213 2275 61 
Q 1981 -91 1556 -91 
Q 1019 -91 701 211 
Q 384 513 384 1019 
Q 384 1609 779 1909 
Q 1175 2209 1959 2209 
L 2766 2209 
L 2766 2266 
Q 2766 2663 2505 2880 
Q 2244 3097 1772 3097 
Q 1472 3097 1187 3025 
Q 903 2953 641 2809 
L 641 3341 
Q 956 3463 1253 3523 
Q 1550 3584 1831 3584 
Q 2591 3584 2966 3190 
Q 3341 2797 3341 1997 
z
M 2291 5119 
L 2913 5119 
L 1894 3944 
L 1416 3944 
L 2291 5119 
z
" transform="scale(0.015625)"/>
     <path id="DejaVuSans-70" d="M 1159 525 
L 1159 -1331 
L 581 -1331 
L 581 3500 
L 1159 3500 
L 1159 2969 
Q 1341 3281 1617 3432 
Q 1894 3584 2278 3584 
Q 2916 3584 3314 3078 
Q 3713 2572 3713 1747 
Q 3713 922 3314 415 
Q 2916 -91 2278 -91 
Q 1894 -91 1617 61 
Q 1341 213 1159 525 
z
M 3116 1747 
Q 3116 2381 2855 2742 
Q 2594 3103 2138 3103 
Q 1681 3103 1420 2742 
Q 1159 2381 1159 1747 
Q 1159 1113 1420 752 
Q 1681 391 2138 391 
Q 2594 391 2855 752 
Q 3116 1113 3116 1747 
z
" transform="scale(0.015625)"/>
     <path id="DejaVuSans-62" d="M 3116 1747 
Q 3116 2381 2855 2742 
Q 2594 3103 2138 3103 
Q 1681 3103 1420 2742 
Q 1159 2381 1159 1747 
Q 1159 1113 1420 752 
Q 1681 391 2138 391 
Q 2594 391 2855 752 
Q 3116 1113 3116 1747 
z
M 1159 2969 
Q 1341 3281 1617 3432 
Q 1894 3584 2278 3584 
Q 2916 3584 3314 3078 
Q 3713 2572 3713 1747 
Q 3713 922 3314 415 
Q 2916 -91 2278 -91 
Q 1894 -91 1617 61 
Q 1341 213 1159 525 
L 1159 0 
L 581 0 
L 581 4863 
L 1159 4863 
L 1159 2969 
z
" transform="scale(0.015625)"/>
    </defs>
    <use xlink:href="#DejaVuSans-54"/>
    <use xlink:href="#DejaVuSans-1ec9" x="61.083984"/>
    <use xlink:href="#DejaVuSans-20" x="88.867188"/>
    <use xlink:href="#DejaVuSans-6c" x="120.654297"/>
    <use xlink:href="#DejaVuSans-1ec7" x="148.4375"/>
    <use xlink:href="#DejaVuSans-20" x="209.960938"/>
    <use xlink:href="#DejaVuSans-4e" x="241.748047"/>
    <use xlink:href="#DejaVuSans-68" x="316.552734"/>
    <use xlink:href="#DejaVuSans-1ea1" x="379.931641"/>
    <use xlink:href="#DejaVuSans-63" x="441.210938"/>
    <use xlink:href="#DejaVuSans-20" x="496.191406"/>
    <use xlink:href="#DejaVuSans-56" x="527.978516"/>
    <use xlink:href="#DejaVuSans-69" x="594.136719"/>
    <use xlink:href="#DejaVuSans-1ec7" x="621.919922"/>
    <use xlink:href="#DejaVuSans-74" x="683.443359"/>
    <use xlink:href="#DejaVuSans-20" x="722.652344"/>
    <use xlink:href="#DejaVuSans-76" x="754.439453"/>
    <use xlink:href="#DejaVuSans-e0" x="813.619141"/>
    <use xlink:href="#DejaVuSans-20" x="874.898438"/>
    <use xlink:href="#DejaVuSans-4e" x="906.685547"/>
    <use xlink:href="#DejaVuSans-68" x="981.490234"/>
    <use xlink:href="#DejaVuSans-1ea1" x="1044.869141"/>
    <use xlink:href="#DejaVuSans-63" x="1106.148438"/>
    <use xlink:href="#DejaVuSans-20" x="1161.128906"/>
    <use xlink:href="#DejaVuSans-4e" x="1192.916016"/>
    <use xlink:href="#DejaVuSans-67" x="1267.720703"/>
    <use xlink:href="#DejaVuSans-6f" x="1331.197266"/>
    <use xlink:href="#DejaVuSans-1ea1" x="1392.378906"/>
    <use xlink:href="#DejaVuSans-69" x="1453.658203"/>
    <use xlink:href="#DejaVuSans-20" x="1481.441406"/>
    <use xlink:href="#DejaVuSans-74" x="1513.228516"/>
    <use xlink:href="#DejaVuSans-72" x="1552.4375"/>
    <use xlink:href="#DejaVuSans-6f" x="1591.300781"/>
    <use xlink:href="#DejaVuSans-6e" x="1652.482422"/>
    <use xlink:href="#DejaVuSans-67" x="1715.861328"/>
    <use xlink:href="#DejaVuSans-20" x="1779.337891"/>
    <use xlink:href="#DejaVuSans-63" x="1811.125"/>
    <use xlink:href="#DejaVuSans-e1" x="1866.105469"/>
    <use xlink:href="#DejaVuSans-63" x="1927.384766"/>
    <use xlink:href="#DejaVuSans-20" x="1982.365234"/>
    <use xlink:href="#DejaVuSans-74" x="2014.152344"/>
    <use xlink:href="#DejaVuSans-6f" x="2053.361328"/>
    <use xlink:href="#DejaVuSans-70" x="2114.542969"/>
    <use xlink:href="#DejaVuSans-20" x="2178.019531"/>
    <use xlink:href="#DejaVuSans-62" x="2209.806641"/>
    <use xlink:href="#DejaVuSans-e0" x="2273.283203"/>
    <use xlink:href="#DejaVuSans-69" x="2334.5625"/>
    <use xlink:href="#DejaVuSans-20" x="2362.345703"/>
    <use xlink:href="#DejaVuSans-68" x="2394.132812"/>
    <use xlink:href="#DejaVuSans-e1" x="2457.511719"/>
    <use xlink:href="#DejaVuSans-74" x="2518.791016"/>
   </g>
  </g>
 </g>
</svg>
