<?xml version="1.0" encoding="utf-8" standalone="no"?>
<!DOCTYPE svg PUBLIC "-//W3C//DTD SVG 1.1//EN"
  "http://www.w3.org/Graphics/SVG/1.1/DTD/svg11.dtd">
<svg xmlns:xlink="http://www.w3.org/1999/xlink" width="576pt" height="576pt" viewBox="0 0 576 576" xmlns="http://www.w3.org/2000/svg" version="1.1">
 <metadata>
  <rdf:RDF xmlns:dc="http://purl.org/dc/elements/1.1/" xmlns:cc="http://creativecommons.org/ns#" xmlns:rdf="http://www.w3.org/1999/02/22-rdf-syntax-ns#">
   <cc:Work>
    <dc:type rdf:resource="http://purl.org/dc/dcmitype/StillImage"/>
    <dc:date>2025-03-10T19:39:28.538319</dc:date>
    <dc:format>image/svg+xml</dc:format>
    <dc:creator>
     <cc:Agent>
      <dc:title>Matplotlib v3.9.1, https://matplotlib.org/</dc:title>
     </cc:Agent>
    </dc:creator>
   </cc:Work>
  </rdf:RDF>
 </metadata>
 <defs>
  <style type="text/css">*{stroke-linejoin: round; stroke-linecap: butt}</style>
 </defs>
 <g id="figure_1">
  <g id="patch_1">
   <path d="M 0 576 
L 576 576 
L 576 0 
L 0 0 
z
" style="fill: #ffffff"/>
  </g>
  <g id="axes_1">
   <g id="patch_2">
    <path d="M 295.2 202.176 
C 285.634174 202.176 276.131025 203.723366 267.059327 206.758052 
C 257.987628 209.792738 249.46626 214.274976 241.825896 220.030832 
C 234.185532 225.786688 227.526296 232.740733 222.1066 240.623114 
C 216.686905 248.505496 212.577774 257.212919 209.938662 266.407489 
C 207.29955 275.602059 206.165041 285.163286 206.579162 294.720145 
C 206.993283 304.277003 208.950605 313.704254 212.375175 322.636071 
C 215.799745 331.567888 220.646685 339.887223 226.727909 347.271244 
C 232.809133 354.655264 240.044948 361.007205 248.154567 366.080577 
C 256.264186 371.15395 265.141337 374.88227 274.441539 377.12086 
C 283.74174 379.359449 293.343118 380.078972 302.873089 379.251507 
C 312.403059 378.424043 321.736736 376.060434 330.511924 372.252401 
C 339.287112 368.444368 347.388816 363.241814 354.502647 356.846625 
C 361.616478 350.451437 367.649213 342.947419 372.366751 334.625768 
C 377.084288 326.304117 380.424806 317.273884 382.258675 307.885489 
C 384.092545 298.497094 384.395734 288.873568 383.156476 279.388355 
C 381.917219 269.903141 379.151755 260.680539 374.9674 252.078434 
L 327.10696 275.359374 
C 328.780702 278.800216 329.886888 282.489256 330.38259 286.283342 
C 330.878293 290.077427 330.757018 293.926838 330.02347 297.682196 
C 329.289922 301.437553 327.953715 305.049647 326.0667 308.378307 
C 324.179685 311.706968 321.766591 314.708575 318.921059 317.26665 
C 316.075526 319.824726 312.834845 321.905747 309.32477 323.42896 
C 305.814694 324.952173 302.081224 325.897617 298.269235 326.228603 
C 294.457247 326.559589 290.616696 326.27178 286.896615 325.376344 
C 283.176535 324.480908 279.625675 322.98958 276.381827 320.960231 
C 273.137979 318.930882 270.243653 316.390106 267.811164 313.436497 
C 265.378674 310.482889 263.439898 307.155155 262.07007 303.582428 
C 260.700242 300.009702 259.917313 296.238801 259.751665 292.416058 
C 259.586017 288.593315 260.03982 284.768824 261.095465 281.090996 
C 262.151109 277.413167 263.794762 273.930198 265.96264 270.777246 
C 268.130518 267.624293 270.794213 264.842675 273.850358 262.540333 
C 276.906504 260.237991 280.315051 258.445095 283.943731 257.231221 
C 287.57241 256.017346 291.373669 255.3984 295.2 255.3984 
z
" style="fill: #87ceeb; stroke: #ffffff; stroke-linejoin: miter"/>
   </g>
   <g id="patch_3">
    <path d="M 374.9674 252.078434 
C 367.690243 237.118215 356.349147 224.502695 342.245426 215.679418 
C 328.141705 206.856141 311.836244 202.175997 295.199983 202.176 
L 295.199993 255.3984 
C 301.854498 255.398399 308.376682 257.270456 314.01817 260.799767 
C 319.659659 264.329078 324.196097 269.375286 327.10696 275.359374 
z
" style="fill: #cd5c5c; stroke: #ffffff; stroke-linejoin: miter"/>
   </g>
   <g id="patch_4">
    <path d="M 295.2 148.9536 
C 278.808775 148.9536 262.540761 151.793159 247.118796 157.346106 
C 231.69683 162.899053 217.352763 171.081908 204.723944 181.53108 
C 192.095126 191.980252 181.371415 204.538651 173.029299 218.64827 
C 164.687183 232.757889 158.852074 248.206607 155.783246 264.30799 
C 152.714417 280.409373 152.458005 296.921358 155.025401 313.110265 
C 157.592797 329.299173 162.945404 344.921624 170.84539 359.283464 
C 178.745376 373.645305 189.073974 386.530624 201.372253 397.366886 
C 213.670532 408.203148 227.753603 416.827445 242.995712 422.856571 
C 258.23782 428.885697 274.409821 432.229014 290.793142 432.737966 
C 307.176464 433.246919 323.524803 430.913856 339.111753 425.842443 
C 354.698703 420.77103 369.289934 413.037508 382.237113 402.985504 
C 395.184292 392.933499 406.292775 380.714129 415.068976 366.870338 
C 423.845178 353.026548 430.15716 337.766461 433.724462 321.76813 
C 437.291763 305.769798 438.060755 289.273737 435.997267 273.012917 
C 433.933779 256.752097 429.068835 240.970979 421.618598 226.370766 
C 414.16836 211.770554 404.244835 198.570742 392.288956 187.357839 
L 355.880597 226.17865 
C 363.353022 233.186714 369.555225 241.436596 374.211623 250.561729 
C 378.868022 259.686862 381.908612 269.550061 383.198292 279.713073 
C 384.487972 289.876086 384.007352 300.186124 381.777789 310.185081 
C 379.548225 320.184038 375.603236 329.721593 370.11811 338.373962 
C 364.632984 347.02633 357.690183 354.663437 349.598196 360.94594 
C 341.506209 367.228443 332.386689 372.061894 322.644846 375.231527 
C 312.903002 378.40116 302.68529 379.859324 292.445714 379.541229 
C 282.206138 379.223134 272.098638 377.133561 262.57232 373.365357 
C 253.046002 369.597153 244.244082 364.206968 236.557658 357.434304 
C 228.871234 350.66164 222.41586 342.608316 217.478369 333.632165 
C 212.540877 324.656015 209.195498 314.891983 207.590875 304.773916 
C 205.986253 294.655849 206.146511 284.335858 208.064529 274.272494 
C 209.982547 264.209129 213.629489 254.553681 218.843312 245.735169 
C 224.057134 236.916657 230.759454 229.067657 238.652465 222.536925 
C 246.545477 216.006192 255.510519 210.891908 265.149247 207.421316 
C 274.787976 203.950724 284.955485 202.176 295.2 202.176 
z
" style="fill: #87ceeb; stroke: #ffffff; stroke-linejoin: miter"/>
   </g>
   <g id="patch_5">
    <path d="M 392.288956 187.357839 
C 379.252741 175.131737 364.023676 165.477348 347.404288 158.903429 
C 330.7849 152.32951 313.072338 148.9536 295.2 148.9536 
L 295.2 202.176 
C 306.370211 202.176 317.440563 204.285944 327.82768 208.394643 
C 338.214798 212.503343 347.732963 218.537336 355.880597 226.17865 
z
" style="fill: #cd5c5c; stroke: #ffffff; stroke-linejoin: miter"/>
   </g>
   <g id="patch_6">
    <path d="M 295.2 95.7312 
C 272.312836 95.7312 249.603094 99.75753 228.110933 107.625774 
C 206.618771 115.494019 186.677407 127.082188 169.200198 141.859518 
C 151.72299 156.636847 136.980907 174.374228 125.649169 194.259247 
C 114.317431 214.144267 106.571728 235.868625 102.766829 258.437299 
C 98.96193 281.005973 99.156828 304.069053 103.342595 326.570201 
C 107.528363 349.071348 115.640103 370.661701 127.306281 390.352374 
C 138.972458 410.043046 154.012199 427.528752 171.736649 442.008605 
C 189.461099 456.488458 209.595457 467.737962 231.217523 475.241864 
C 252.839589 482.745766 275.614132 486.387724 298.498028 486.00093 
C 321.381923 485.614135 344.020376 481.204584 365.376494 472.974244 
C 386.732612 464.743905 406.475288 452.82038 423.700263 437.749795 
C 440.925237 422.67921 455.365452 404.69522 466.359513 384.621534 
C 477.353575 364.547847 484.731029 342.695688 488.153972 320.065934 
C 491.576915 297.436181 490.992278 274.379688 486.426838 251.952494 
C 481.861397 229.525299 473.385937 208.075119 461.388652 188.584417 
C 449.391367 169.093716 434.058264 151.864681 416.091635 137.68644 
L 383.121189 179.466502 
C 396.187828 189.77795 407.339176 202.308157 416.064474 216.483213 
C 424.789772 230.658268 430.953743 246.2584 434.274064 262.569086 
C 437.594384 278.879773 438.019575 295.648132 435.530162 312.106134 
C 433.040748 328.564137 427.675327 344.456616 419.679646 359.055661 
C 411.683965 373.654706 401.181991 386.733971 388.654736 397.694396 
C 376.127482 408.654822 361.769173 417.326476 346.23745 423.312178 
C 330.705728 429.297879 314.241399 432.504825 297.598565 432.786131 
C 280.955732 433.067436 264.392428 430.418739 248.667289 424.961355 
C 232.94215 419.503972 218.298981 411.322515 205.408472 400.791712 
C 192.517963 390.26091 181.57997 377.544034 173.095477 363.223545 
C 164.610984 348.903056 158.711537 333.200981 155.667342 316.83651 
C 152.623148 300.472039 152.481404 283.698889 155.248603 267.285308 
C 158.015802 250.871728 163.649041 235.072194 171.890305 220.610362 
C 180.131569 206.148529 190.853084 193.248616 203.563781 182.501467 
C 216.274478 171.754319 230.777288 163.326559 246.407951 157.6042 
C 262.038614 151.88184 278.55479 148.9536 295.2 148.9536 
z
" style="fill: #87ceeb; stroke: #ffffff; stroke-linejoin: miter"/>
   </g>
   <g id="patch_7">
    <path d="M 416.091635 137.68644 
C 398.994346 124.194233 379.758346 113.658959 359.182494 106.518142 
C 338.606643 99.377325 316.979773 95.731204 295.200037 95.7312 
L 295.200027 148.9536 
C 311.039835 148.953603 326.768468 151.605328 341.732723 156.798649 
C 356.696979 161.991971 370.686797 169.653988 383.121189 179.466502 
z
" style="fill: #cd5c5c; stroke: #ffffff; stroke-linejoin: miter"/>
   </g>
   <g id="patch_8">
    <path d="M 295.2 42.5088 
C 257.43158 42.5088 220.156022 51.123649 186.217676 67.695981 
C 152.27933 84.268314 122.563959 108.365607 99.339023 138.14909 
C 76.114088 167.932574 59.98574 202.624925 52.184669 239.578908 
C 44.383599 276.532891 45.113408 314.784037 54.318407 351.413554 
C 63.523406 388.043072 80.963353 422.094959 105.307474 450.970854 
C 129.651595 479.846749 160.26453 502.793014 194.810326 518.05871 
C 229.356123 533.324407 266.933165 540.511113 304.674097 539.07044 
C 342.41503 537.629767 379.334847 527.599315 412.616343 509.744468 
L 387.455698 462.844939 
C 361.305951 476.873748 332.297524 484.754817 302.643934 485.886774 
C 272.990344 487.018732 243.465525 481.372034 216.322399 469.377558 
C 189.179273 457.383082 165.126254 439.353874 145.99873 416.665671 
C 126.871206 393.977468 113.168391 367.222413 105.935891 338.442078 
C 98.703392 309.661743 98.129971 279.607271 104.259383 250.571999 
C 110.388795 221.536727 123.061069 194.278451 141.309232 170.877142 
C 159.557396 147.475834 182.905188 128.542247 209.571031 115.521128 
C 236.236875 102.50001 265.524813 95.7312 295.2 95.7312 
z
" style="fill: #87ceeb; stroke: #ffffff; stroke-linejoin: miter"/>
   </g>
   <g id="patch_9">
    <path d="M 412.616343 509.744468 
C 461.37119 483.588483 500.015639 441.876614 522.378715 391.269663 
C 544.741791 340.662712 549.566212 284.005864 536.081587 230.346423 
C 522.596962 176.686983 491.561413 129.04175 447.930882 95.019002 
C 404.300351 60.996253 350.527801 42.50879 295.199953 42.5088 
L 295.199963 95.7312 
C 338.671843 95.731192 380.921704 110.257056 415.202836 136.989216 
C 449.483967 163.721375 473.869042 201.156915 484.464104 243.317904 
C 495.059167 285.478893 491.26855 329.994988 473.697562 369.757592 
C 456.126574 409.520197 425.763078 442.293808 387.455698 462.844939 
z
" style="fill: #cd5c5c; stroke: #ffffff; stroke-linejoin: miter"/>
   </g>
   <g id="matplotlib.axis_1"/>
   <g id="matplotlib.axis_2"/>
   <g id="text_1">
    <!-- 82.2% -->
    <g transform="translate(236.975517 361.319895) scale(0.1 -0.1)">
     <defs>
      <path id="DejaVuSans-38" d="M 2034 2216 
Q 1584 2216 1326 1975 
Q 1069 1734 1069 1313 
Q 1069 891 1326 650 
Q 1584 409 2034 409 
Q 2484 409 2743 651 
Q 3003 894 3003 1313 
Q 3003 1734 2745 1975 
Q 2488 2216 2034 2216 
z
M 1403 2484 
Q 997 2584 770 2862 
Q 544 3141 544 3541 
Q 544 4100 942 4425 
Q 1341 4750 2034 4750 
Q 2731 4750 3128 4425 
Q 3525 4100 3525 3541 
Q 3525 3141 3298 2862 
Q 3072 2584 2669 2484 
Q 3125 2378 3379 2068 
Q 3634 1759 3634 1313 
Q 3634 634 3220 271 
Q 2806 -91 2034 -91 
Q 1263 -91 848 271 
Q 434 634 434 1313 
Q 434 1759 690 2068 
Q 947 2378 1403 2484 
z
M 1172 3481 
Q 1172 3119 1398 2916 
Q 1625 2713 2034 2713 
Q 2441 2713 2670 2916 
Q 2900 3119 2900 3481 
Q 2900 3844 2670 4047 
Q 2441 4250 2034 4250 
Q 1625 4250 1398 4047 
Q 1172 3844 1172 3481 
z
" transform="scale(0.015625)"/>
      <path id="DejaVuSans-32" d="M 1228 531 
L 3431 531 
L 3431 0 
L 469 0 
L 469 531 
Q 828 903 1448 1529 
Q 2069 2156 2228 2338 
Q 2531 2678 2651 2914 
Q 2772 3150 2772 3378 
Q 2772 3750 2511 3984 
Q 2250 4219 1831 4219 
Q 1534 4219 1204 4116 
Q 875 4013 500 3803 
L 500 4441 
Q 881 4594 1212 4672 
Q 1544 4750 1819 4750 
Q 2544 4750 2975 4387 
Q 3406 4025 3406 3419 
Q 3406 3131 3298 2873 
Q 3191 2616 2906 2266 
Q 2828 2175 2409 1742 
Q 1991 1309 1228 531 
z
" transform="scale(0.015625)"/>
      <path id="DejaVuSans-2e" d="M 684 794 
L 1344 794 
L 1344 0 
L 684 0 
L 684 794 
z
" transform="scale(0.015625)"/>
      <path id="DejaVuSans-25" d="M 4653 2053 
Q 4381 2053 4226 1822 
Q 4072 1591 4072 1178 
Q 4072 772 4226 539 
Q 4381 306 4653 306 
Q 4919 306 5073 539 
Q 5228 772 5228 1178 
Q 5228 1588 5073 1820 
Q 4919 2053 4653 2053 
z
M 4653 2450 
Q 5147 2450 5437 2106 
Q 5728 1763 5728 1178 
Q 5728 594 5436 251 
Q 5144 -91 4653 -91 
Q 4153 -91 3862 251 
Q 3572 594 3572 1178 
Q 3572 1766 3864 2108 
Q 4156 2450 4653 2450 
z
M 1428 4353 
Q 1159 4353 1004 4120 
Q 850 3888 850 3481 
Q 850 3069 1003 2837 
Q 1156 2606 1428 2606 
Q 1700 2606 1854 2837 
Q 2009 3069 2009 3481 
Q 2009 3884 1853 4118 
Q 1697 4353 1428 4353 
z
M 4250 4750 
L 4750 4750 
L 1831 -91 
L 1331 -91 
L 4250 4750 
z
M 1428 4750 
Q 1922 4750 2215 4408 
Q 2509 4066 2509 3481 
Q 2509 2891 2217 2550 
Q 1925 2209 1428 2209 
Q 931 2209 642 2551 
Q 353 2894 353 3481 
Q 353 4063 643 4406 
Q 934 4750 1428 4750 
z
" transform="scale(0.015625)"/>
     </defs>
     <use xlink:href="#DejaVuSans-38"/>
     <use xlink:href="#DejaVuSans-32" x="63.623047"/>
     <use xlink:href="#DejaVuSans-2e" x="127.246094"/>
     <use xlink:href="#DejaVuSans-32" x="159.033203"/>
     <use xlink:href="#DejaVuSans-25" x="222.65625"/>
    </g>
   </g>
   <g id="text_2">
    <!-- 17.8% -->
    <g transform="translate(321.65729 225.958851) scale(0.1 -0.1)">
     <defs>
      <path id="DejaVuSans-31" d="M 794 531 
L 1825 531 
L 1825 4091 
L 703 3866 
L 703 4441 
L 1819 4666 
L 2450 4666 
L 2450 531 
L 3481 531 
L 3481 0 
L 794 0 
L 794 531 
z
" transform="scale(0.015625)"/>
      <path id="DejaVuSans-37" d="M 525 4666 
L 3525 4666 
L 3525 4397 
L 1831 0 
L 1172 0 
L 2766 4134 
L 525 4134 
L 525 4666 
z
" transform="scale(0.015625)"/>
     </defs>
     <use xlink:href="#DejaVuSans-31"/>
     <use xlink:href="#DejaVuSans-37" x="63.623047"/>
     <use xlink:href="#DejaVuSans-2e" x="127.246094"/>
     <use xlink:href="#DejaVuSans-38" x="159.033203"/>
     <use xlink:href="#DejaVuSans-25" x="222.65625"/>
    </g>
   </g>
   <g id="text_3">
    <!-- Top 1-500 -->
    <g transform="translate(267.70625 236.385637) scale(0.1 -0.1)">
     <defs>
      <path id="DejaVuSans-Bold-54" d="M 31 4666 
L 4331 4666 
L 4331 3756 
L 2784 3756 
L 2784 0 
L 1581 0 
L 1581 3756 
L 31 3756 
L 31 4666 
z
" transform="scale(0.015625)"/>
      <path id="DejaVuSans-Bold-6f" d="M 2203 2784 
Q 1831 2784 1636 2517 
Q 1441 2250 1441 1747 
Q 1441 1244 1636 976 
Q 1831 709 2203 709 
Q 2569 709 2762 976 
Q 2956 1244 2956 1747 
Q 2956 2250 2762 2517 
Q 2569 2784 2203 2784 
z
M 2203 3584 
Q 3106 3584 3614 3096 
Q 4122 2609 4122 1747 
Q 4122 884 3614 396 
Q 3106 -91 2203 -91 
Q 1297 -91 786 396 
Q 275 884 275 1747 
Q 275 2609 786 3096 
Q 1297 3584 2203 3584 
z
" transform="scale(0.015625)"/>
      <path id="DejaVuSans-Bold-70" d="M 1656 506 
L 1656 -1331 
L 538 -1331 
L 538 3500 
L 1656 3500 
L 1656 2988 
Q 1888 3294 2169 3439 
Q 2450 3584 2816 3584 
Q 3463 3584 3878 3070 
Q 4294 2556 4294 1747 
Q 4294 938 3878 423 
Q 3463 -91 2816 -91 
Q 2450 -91 2169 54 
Q 1888 200 1656 506 
z
M 2400 2772 
Q 2041 2772 1848 2508 
Q 1656 2244 1656 1747 
Q 1656 1250 1848 986 
Q 2041 722 2400 722 
Q 2759 722 2948 984 
Q 3138 1247 3138 1747 
Q 3138 2247 2948 2509 
Q 2759 2772 2400 2772 
z
" transform="scale(0.015625)"/>
      <path id="DejaVuSans-Bold-20" transform="scale(0.015625)"/>
      <path id="DejaVuSans-Bold-31" d="M 750 831 
L 1813 831 
L 1813 3847 
L 722 3622 
L 722 4441 
L 1806 4666 
L 2950 4666 
L 2950 831 
L 4013 831 
L 4013 0 
L 750 0 
L 750 831 
z
" transform="scale(0.015625)"/>
      <path id="DejaVuSans-Bold-2d" d="M 347 2297 
L 2309 2297 
L 2309 1388 
L 347 1388 
L 347 2297 
z
" transform="scale(0.015625)"/>
      <path id="DejaVuSans-Bold-35" d="M 678 4666 
L 3669 4666 
L 3669 3781 
L 1638 3781 
L 1638 3059 
Q 1775 3097 1914 3117 
Q 2053 3138 2203 3138 
Q 3056 3138 3531 2711 
Q 4006 2284 4006 1522 
Q 4006 766 3489 337 
Q 2972 -91 2053 -91 
Q 1656 -91 1267 -14 
Q 878 63 494 219 
L 494 1166 
Q 875 947 1217 837 
Q 1559 728 1863 728 
Q 2300 728 2551 942 
Q 2803 1156 2803 1522 
Q 2803 1891 2551 2103 
Q 2300 2316 1863 2316 
Q 1603 2316 1309 2248 
Q 1016 2181 678 2041 
L 678 4666 
z
" transform="scale(0.015625)"/>
      <path id="DejaVuSans-Bold-30" d="M 2944 2338 
Q 2944 3213 2780 3570 
Q 2616 3928 2228 3928 
Q 1841 3928 1675 3570 
Q 1509 3213 1509 2338 
Q 1509 1453 1675 1090 
Q 1841 728 2228 728 
Q 2613 728 2778 1090 
Q 2944 1453 2944 2338 
z
M 4147 2328 
Q 4147 1169 3647 539 
Q 3147 -91 2228 -91 
Q 1306 -91 806 539 
Q 306 1169 306 2328 
Q 306 3491 806 4120 
Q 1306 4750 2228 4750 
Q 3147 4750 3647 4120 
Q 4147 3491 4147 2328 
z
" transform="scale(0.015625)"/>
     </defs>
     <use xlink:href="#DejaVuSans-Bold-54"/>
     <use xlink:href="#DejaVuSans-Bold-6f" x="54.962891"/>
     <use xlink:href="#DejaVuSans-Bold-70" x="123.664062"/>
     <use xlink:href="#DejaVuSans-Bold-20" x="195.246094"/>
     <use xlink:href="#DejaVuSans-Bold-31" x="230.060547"/>
     <use xlink:href="#DejaVuSans-Bold-2d" x="299.640625"/>
     <use xlink:href="#DejaVuSans-Bold-35" x="341.144531"/>
     <use xlink:href="#DejaVuSans-Bold-30" x="410.724609"/>
     <use xlink:href="#DejaVuSans-Bold-30" x="480.304688"/>
    </g>
   </g>
   <g id="text_4">
    <!-- 88.0% -->
    <g transform="translate(232.332547 412.418289) scale(0.1 -0.1)">
     <defs>
      <path id="DejaVuSans-30" d="M 2034 4250 
Q 1547 4250 1301 3770 
Q 1056 3291 1056 2328 
Q 1056 1369 1301 889 
Q 1547 409 2034 409 
Q 2525 409 2770 889 
Q 3016 1369 3016 2328 
Q 3016 3291 2770 3770 
Q 2525 4250 2034 4250 
z
M 2034 4750 
Q 2819 4750 3233 4129 
Q 3647 3509 3647 2328 
Q 3647 1150 3233 529 
Q 2819 -91 2034 -91 
Q 1250 -91 836 529 
Q 422 1150 422 2328 
Q 422 3509 836 4129 
Q 1250 4750 2034 4750 
z
" transform="scale(0.015625)"/>
     </defs>
     <use xlink:href="#DejaVuSans-38"/>
     <use xlink:href="#DejaVuSans-38" x="63.623047"/>
     <use xlink:href="#DejaVuSans-2e" x="127.246094"/>
     <use xlink:href="#DejaVuSans-30" x="159.033203"/>
     <use xlink:href="#DejaVuSans-25" x="222.65625"/>
    </g>
   </g>
   <g id="text_5">
    <!-- 12.0% -->
    <g transform="translate(326.300266 174.860461) scale(0.1 -0.1)">
     <use xlink:href="#DejaVuSans-31"/>
     <use xlink:href="#DejaVuSans-32" x="63.623047"/>
     <use xlink:href="#DejaVuSans-2e" x="127.246094"/>
     <use xlink:href="#DejaVuSans-30" x="159.033203"/>
     <use xlink:href="#DejaVuSans-25" x="222.65625"/>
    </g>
   </g>
   <g id="text_6">
    <!-- Top 501-1000 -->
    <g transform="translate(257.269531 183.163237) scale(0.1 -0.1)">
     <use xlink:href="#DejaVuSans-Bold-54"/>
     <use xlink:href="#DejaVuSans-Bold-6f" x="54.962891"/>
     <use xlink:href="#DejaVuSans-Bold-70" x="123.664062"/>
     <use xlink:href="#DejaVuSans-Bold-20" x="195.246094"/>
     <use xlink:href="#DejaVuSans-Bold-35" x="230.060547"/>
     <use xlink:href="#DejaVuSans-Bold-30" x="299.640625"/>
     <use xlink:href="#DejaVuSans-Bold-31" x="369.220703"/>
     <use xlink:href="#DejaVuSans-Bold-2d" x="438.800781"/>
     <use xlink:href="#DejaVuSans-Bold-31" x="480.304688"/>
     <use xlink:href="#DejaVuSans-Bold-30" x="549.884766"/>
     <use xlink:href="#DejaVuSans-Bold-30" x="619.464844"/>
     <use xlink:href="#DejaVuSans-Bold-30" x="689.044922"/>
    </g>
   </g>
   <g id="text_7">
    <!-- 89.4% -->
    <g transform="translate(221.732177 459.565052) scale(0.1 -0.1)">
     <defs>
      <path id="DejaVuSans-39" d="M 703 97 
L 703 672 
Q 941 559 1184 500 
Q 1428 441 1663 441 
Q 2288 441 2617 861 
Q 2947 1281 2994 2138 
Q 2813 1869 2534 1725 
Q 2256 1581 1919 1581 
Q 1219 1581 811 2004 
Q 403 2428 403 3163 
Q 403 3881 828 4315 
Q 1253 4750 1959 4750 
Q 2769 4750 3195 4129 
Q 3622 3509 3622 2328 
Q 3622 1225 3098 567 
Q 2575 -91 1691 -91 
Q 1453 -91 1209 -44 
Q 966 3 703 97 
z
M 1959 2075 
Q 2384 2075 2632 2365 
Q 2881 2656 2881 3163 
Q 2881 3666 2632 3958 
Q 2384 4250 1959 4250 
Q 1534 4250 1286 3958 
Q 1038 3666 1038 3163 
Q 1038 2656 1286 2365 
Q 1534 2075 1959 2075 
z
" transform="scale(0.015625)"/>
      <path id="DejaVuSans-34" d="M 2419 4116 
L 825 1625 
L 2419 1625 
L 2419 4116 
z
M 2253 4666 
L 3047 4666 
L 3047 1625 
L 3713 1625 
L 3713 1100 
L 3047 1100 
L 3047 0 
L 2419 0 
L 2419 1100 
L 313 1100 
L 313 1709 
L 2253 4666 
z
" transform="scale(0.015625)"/>
     </defs>
     <use xlink:href="#DejaVuSans-38"/>
     <use xlink:href="#DejaVuSans-39" x="63.623047"/>
     <use xlink:href="#DejaVuSans-2e" x="127.246094"/>
     <use xlink:href="#DejaVuSans-34" x="159.033203"/>
     <use xlink:href="#DejaVuSans-25" x="222.65625"/>
    </g>
   </g>
   <g id="text_8">
    <!-- 10.6% -->
    <g transform="translate(336.900651 127.713703) scale(0.1 -0.1)">
     <defs>
      <path id="DejaVuSans-36" d="M 2113 2584 
Q 1688 2584 1439 2293 
Q 1191 2003 1191 1497 
Q 1191 994 1439 701 
Q 1688 409 2113 409 
Q 2538 409 2786 701 
Q 3034 994 3034 1497 
Q 3034 2003 2786 2293 
Q 2538 2584 2113 2584 
z
M 3366 4563 
L 3366 3988 
Q 3128 4100 2886 4159 
Q 2644 4219 2406 4219 
Q 1781 4219 1451 3797 
Q 1122 3375 1075 2522 
Q 1259 2794 1537 2939 
Q 1816 3084 2150 3084 
Q 2853 3084 3261 2657 
Q 3669 2231 3669 1497 
Q 3669 778 3244 343 
Q 2819 -91 2113 -91 
Q 1303 -91 875 529 
Q 447 1150 447 2328 
Q 447 3434 972 4092 
Q 1497 4750 2381 4750 
Q 2619 4750 2861 4703 
Q 3103 4656 3366 4563 
z
" transform="scale(0.015625)"/>
     </defs>
     <use xlink:href="#DejaVuSans-31"/>
     <use xlink:href="#DejaVuSans-30" x="63.623047"/>
     <use xlink:href="#DejaVuSans-2e" x="127.246094"/>
     <use xlink:href="#DejaVuSans-36" x="159.033203"/>
     <use xlink:href="#DejaVuSans-25" x="222.65625"/>
    </g>
   </g>
   <g id="text_9">
    <!-- Top 1001-1500 -->
    <g transform="translate(253.790625 129.940837) scale(0.1 -0.1)">
     <use xlink:href="#DejaVuSans-Bold-54"/>
     <use xlink:href="#DejaVuSans-Bold-6f" x="54.962891"/>
     <use xlink:href="#DejaVuSans-Bold-70" x="123.664062"/>
     <use xlink:href="#DejaVuSans-Bold-20" x="195.246094"/>
     <use xlink:href="#DejaVuSans-Bold-31" x="230.060547"/>
     <use xlink:href="#DejaVuSans-Bold-30" x="299.640625"/>
     <use xlink:href="#DejaVuSans-Bold-30" x="369.220703"/>
     <use xlink:href="#DejaVuSans-Bold-31" x="438.800781"/>
     <use xlink:href="#DejaVuSans-Bold-2d" x="508.380859"/>
     <use xlink:href="#DejaVuSans-Bold-31" x="549.884766"/>
     <use xlink:href="#DejaVuSans-Bold-35" x="619.464844"/>
     <use xlink:href="#DejaVuSans-Bold-30" x="689.044922"/>
     <use xlink:href="#DejaVuSans-Bold-30" x="758.625"/>
    </g>
   </g>
   <g id="text_10">
    <!-- 57.8% -->
    <g transform="translate(62.522973 348.119574) scale(0.1 -0.1)">
     <defs>
      <path id="DejaVuSans-35" d="M 691 4666 
L 3169 4666 
L 3169 4134 
L 1269 4134 
L 1269 2991 
Q 1406 3038 1543 3061 
Q 1681 3084 1819 3084 
Q 2600 3084 3056 2656 
Q 3513 2228 3513 1497 
Q 3513 744 3044 326 
Q 2575 -91 1722 -91 
Q 1428 -91 1123 -41 
Q 819 9 494 109 
L 494 744 
Q 775 591 1075 516 
Q 1375 441 1709 441 
Q 2250 441 2565 725 
Q 2881 1009 2881 1497 
Q 2881 1984 2565 2268 
Q 2250 2553 1709 2553 
Q 1456 2553 1204 2497 
Q 953 2441 691 2322 
L 691 4666 
z
" transform="scale(0.015625)"/>
     </defs>
     <use xlink:href="#DejaVuSans-35"/>
     <use xlink:href="#DejaVuSans-37" x="63.623047"/>
     <use xlink:href="#DejaVuSans-2e" x="127.246094"/>
     <use xlink:href="#DejaVuSans-38" x="159.033203"/>
     <use xlink:href="#DejaVuSans-25" x="222.65625"/>
    </g>
   </g>
   <g id="text_11">
    <!-- 42.2% -->
    <g transform="translate(496.109835 239.159156) scale(0.1 -0.1)">
     <use xlink:href="#DejaVuSans-34"/>
     <use xlink:href="#DejaVuSans-32" x="63.623047"/>
     <use xlink:href="#DejaVuSans-2e" x="127.246094"/>
     <use xlink:href="#DejaVuSans-32" x="159.033203"/>
     <use xlink:href="#DejaVuSans-25" x="222.65625"/>
    </g>
   </g>
   <g id="text_12">
    <!-- Top 1501+ -->
    <g transform="translate(265.591406 76.718437) scale(0.1 -0.1)">
     <defs>
      <path id="DejaVuSans-Bold-2b" d="M 3053 4013 
L 3053 2375 
L 4684 2375 
L 4684 1638 
L 3053 1638 
L 3053 0 
L 2309 0 
L 2309 1638 
L 678 1638 
L 678 2375 
L 2309 2375 
L 2309 4013 
L 3053 4013 
z
" transform="scale(0.015625)"/>
     </defs>
     <use xlink:href="#DejaVuSans-Bold-54"/>
     <use xlink:href="#DejaVuSans-Bold-6f" x="54.962891"/>
     <use xlink:href="#DejaVuSans-Bold-70" x="123.664062"/>
     <use xlink:href="#DejaVuSans-Bold-20" x="195.246094"/>
     <use xlink:href="#DejaVuSans-Bold-31" x="230.060547"/>
     <use xlink:href="#DejaVuSans-Bold-35" x="299.640625"/>
     <use xlink:href="#DejaVuSans-Bold-30" x="369.220703"/>
     <use xlink:href="#DejaVuSans-Bold-31" x="438.800781"/>
     <use xlink:href="#DejaVuSans-Bold-2b" x="508.380859"/>
    </g>
   </g>
   <g id="legend_1">
    <g id="patch_10">
     <path d="M 80.44 122.059062 
L 169.918125 122.059062 
Q 171.918125 122.059062 171.918125 120.059062 
L 171.918125 76.12 
Q 171.918125 74.12 169.918125 74.12 
L 80.44 74.12 
Q 78.44 74.12 78.44 76.12 
L 78.44 120.059062 
Q 78.44 122.059062 80.44 122.059062 
z
" style="fill: #ffffff; opacity: 0.8; stroke: #cccccc; stroke-linejoin: miter"/>
    </g>
    <g id="text_13">
     <!-- Thể loại -->
     <g transform="translate(105.389219 86.471563) scale(0.1 -0.1)">
      <defs>
       <path id="DejaVuSans-54" d="M -19 4666 
L 3928 4666 
L 3928 4134 
L 2272 4134 
L 2272 0 
L 1638 0 
L 1638 4134 
L -19 4134 
L -19 4666 
z
" transform="scale(0.015625)"/>
       <path id="DejaVuSans-68" d="M 3513 2113 
L 3513 0 
L 2938 0 
L 2938 2094 
Q 2938 2591 2744 2837 
Q 2550 3084 2163 3084 
Q 1697 3084 1428 2787 
Q 1159 2491 1159 1978 
L 1159 0 
L 581 0 
L 581 4863 
L 1159 4863 
L 1159 2956 
Q 1366 3272 1645 3428 
Q 1925 3584 2291 3584 
Q 2894 3584 3203 3211 
Q 3513 2838 3513 2113 
z
" transform="scale(0.015625)"/>
       <path id="DejaVuSans-1ec3" d="M 3597 1894 
L 3597 1613 
L 953 1613 
Q 991 1019 1311 708 
Q 1631 397 2203 397 
Q 2534 397 2845 478 
Q 3156 559 3463 722 
L 3463 178 
Q 3153 47 2828 -22 
Q 2503 -91 2169 -91 
Q 1331 -91 842 396 
Q 353 884 353 1716 
Q 353 2575 817 3079 
Q 1281 3584 2069 3584 
Q 2775 3584 3186 3129 
Q 3597 2675 3597 1894 
z
M 3022 2063 
Q 3016 2534 2758 2815 
Q 2500 3097 2075 3097 
Q 1594 3097 1305 2825 
Q 1016 2553 972 2059 
L 3022 2063 
z
M 2468 5345 
Q 2818 5504 3146 5504 
Q 3471 5504 3669 5371 
Q 3868 5239 3868 5029 
Q 3868 4839 3593 4636 
L 3455 4536 
Q 3346 4454 3334 4426 
Q 3312 4376 3312 4276 
L 2940 4276 
L 2940 4314 
Q 2940 4439 2987 4523 
Q 3034 4608 3193 4723 
L 3334 4829 
Q 3477 4936 3477 5061 
Q 3477 5126 3380 5182 
Q 3284 5239 3062 5239 
Q 2780 5239 2468 5076 
L 2468 5345 
z
M 1738 4775 
L 2326 4775 
L 2985 3944 
L 2551 3944 
L 2032 4500 
L 1513 3944 
L 1079 3944 
L 1738 4775 
z
" transform="scale(0.015625)"/>
       <path id="DejaVuSans-20" transform="scale(0.015625)"/>
       <path id="DejaVuSans-6c" d="M 603 4863 
L 1178 4863 
L 1178 0 
L 603 0 
L 603 4863 
z
" transform="scale(0.015625)"/>
       <path id="DejaVuSans-6f" d="M 1959 3097 
Q 1497 3097 1228 2736 
Q 959 2375 959 1747 
Q 959 1119 1226 758 
Q 1494 397 1959 397 
Q 2419 397 2687 759 
Q 2956 1122 2956 1747 
Q 2956 2369 2687 2733 
Q 2419 3097 1959 3097 
z
M 1959 3584 
Q 2709 3584 3137 3096 
Q 3566 2609 3566 1747 
Q 3566 888 3137 398 
Q 2709 -91 1959 -91 
Q 1206 -91 779 398 
Q 353 888 353 1747 
Q 353 2609 779 3096 
Q 1206 3584 1959 3584 
z
" transform="scale(0.015625)"/>
       <path id="DejaVuSans-1ea1" d="M 1410 -441 
L 1985 -441 
L 1985 -1172 
L 1410 -1172 
L 1410 -441 
z
M 2194 1759 
Q 1497 1759 1228 1600 
Q 959 1441 959 1056 
Q 959 750 1161 570 
Q 1363 391 1709 391 
Q 2188 391 2477 730 
Q 2766 1069 2766 1631 
L 2766 1759 
L 2194 1759 
z
M 3341 1997 
L 3341 0 
L 2766 0 
L 2766 531 
Q 2569 213 2275 61 
Q 1981 -91 1556 -91 
Q 1019 -91 701 211 
Q 384 513 384 1019 
Q 384 1609 779 1909 
Q 1175 2209 1959 2209 
L 2766 2209 
L 2766 2266 
Q 2766 2663 2505 2880 
Q 2244 3097 1772 3097 
Q 1472 3097 1187 3025 
Q 903 2953 641 2809 
L 641 3341 
Q 956 3463 1253 3523 
Q 1550 3584 1831 3584 
Q 2591 3584 2966 3190 
Q 3341 2797 3341 1997 
z
" transform="scale(0.015625)"/>
       <path id="DejaVuSans-69" d="M 603 3500 
L 1178 3500 
L 1178 0 
L 603 0 
L 603 3500 
z
M 603 4863 
L 1178 4863 
L 1178 4134 
L 603 4134 
L 603 4863 
z
" transform="scale(0.015625)"/>
      </defs>
      <use xlink:href="#DejaVuSans-54"/>
      <use xlink:href="#DejaVuSans-68" x="61.083984"/>
      <use xlink:href="#DejaVuSans-1ec3" x="124.462891"/>
      <use xlink:href="#DejaVuSans-20" x="185.986328"/>
      <use xlink:href="#DejaVuSans-6c" x="217.773438"/>
      <use xlink:href="#DejaVuSans-6f" x="245.556641"/>
      <use xlink:href="#DejaVuSans-1ea1" x="306.738281"/>
      <use xlink:href="#DejaVuSans-69" x="368.017578"/>
     </g>
    </g>
    <g id="patch_11">
     <path d="M 82.44 101.149688 
L 102.44 101.149688 
L 102.44 94.149688 
L 82.44 94.149688 
z
" style="fill: #87ceeb; stroke: #ffffff; stroke-linejoin: miter"/>
    </g>
    <g id="text_14">
     <!-- Nhạc Ngoại -->
     <g transform="translate(110.44 101.149688) scale(0.1 -0.1)">
      <defs>
       <path id="DejaVuSans-4e" d="M 628 4666 
L 1478 4666 
L 3547 763 
L 3547 4666 
L 4159 4666 
L 4159 0 
L 3309 0 
L 1241 3903 
L 1241 0 
L 628 0 
L 628 4666 
z
" transform="scale(0.015625)"/>
       <path id="DejaVuSans-63" d="M 3122 3366 
L 3122 2828 
Q 2878 2963 2633 3030 
Q 2388 3097 2138 3097 
Q 1578 3097 1268 2742 
Q 959 2388 959 1747 
Q 959 1106 1268 751 
Q 1578 397 2138 397 
Q 2388 397 2633 464 
Q 2878 531 3122 666 
L 3122 134 
Q 2881 22 2623 -34 
Q 2366 -91 2075 -91 
Q 1284 -91 818 406 
Q 353 903 353 1747 
Q 353 2603 823 3093 
Q 1294 3584 2113 3584 
Q 2378 3584 2631 3529 
Q 2884 3475 3122 3366 
z
" transform="scale(0.015625)"/>
       <path id="DejaVuSans-67" d="M 2906 1791 
Q 2906 2416 2648 2759 
Q 2391 3103 1925 3103 
Q 1463 3103 1205 2759 
Q 947 2416 947 1791 
Q 947 1169 1205 825 
Q 1463 481 1925 481 
Q 2391 481 2648 825 
Q 2906 1169 2906 1791 
z
M 3481 434 
Q 3481 -459 3084 -895 
Q 2688 -1331 1869 -1331 
Q 1566 -1331 1297 -1286 
Q 1028 -1241 775 -1147 
L 775 -588 
Q 1028 -725 1275 -790 
Q 1522 -856 1778 -856 
Q 2344 -856 2625 -561 
Q 2906 -266 2906 331 
L 2906 616 
Q 2728 306 2450 153 
Q 2172 0 1784 0 
Q 1141 0 747 490 
Q 353 981 353 1791 
Q 353 2603 747 3093 
Q 1141 3584 1784 3584 
Q 2172 3584 2450 3431 
Q 2728 3278 2906 2969 
L 2906 3500 
L 3481 3500 
L 3481 434 
z
" transform="scale(0.015625)"/>
      </defs>
      <use xlink:href="#DejaVuSans-4e"/>
      <use xlink:href="#DejaVuSans-68" x="74.804688"/>
      <use xlink:href="#DejaVuSans-1ea1" x="138.183594"/>
      <use xlink:href="#DejaVuSans-63" x="199.462891"/>
      <use xlink:href="#DejaVuSans-20" x="254.443359"/>
      <use xlink:href="#DejaVuSans-4e" x="286.230469"/>
      <use xlink:href="#DejaVuSans-67" x="361.035156"/>
      <use xlink:href="#DejaVuSans-6f" x="424.511719"/>
      <use xlink:href="#DejaVuSans-1ea1" x="485.693359"/>
      <use xlink:href="#DejaVuSans-69" x="546.972656"/>
     </g>
    </g>
    <g id="patch_12">
     <path d="M 82.44 115.979375 
L 102.44 115.979375 
L 102.44 108.979375 
L 82.44 108.979375 
z
" style="fill: #cd5c5c; stroke: #ffffff; stroke-linejoin: miter"/>
    </g>
    <g id="text_15">
     <!-- Nhạc Việt -->
     <g transform="translate(110.44 115.979375) scale(0.1 -0.1)">
      <defs>
       <path id="DejaVuSans-56" d="M 1831 0 
L 50 4666 
L 709 4666 
L 2188 738 
L 3669 4666 
L 4325 4666 
L 2547 0 
L 1831 0 
z
" transform="scale(0.015625)"/>
       <path id="DejaVuSans-1ec7" d="M 1738 -441 
L 2313 -441 
L 2313 -1172 
L 1738 -1172 
L 1738 -441 
z
M 3597 1894 
L 3597 1613 
L 953 1613 
Q 991 1019 1311 708 
Q 1631 397 2203 397 
Q 2534 397 2845 478 
Q 3156 559 3463 722 
L 3463 178 
Q 3153 47 2828 -22 
Q 2503 -91 2169 -91 
Q 1331 -91 842 396 
Q 353 884 353 1716 
Q 353 2575 817 3079 
Q 1281 3584 2069 3584 
Q 2775 3584 3186 3129 
Q 3597 2675 3597 1894 
z
M 3022 2063 
Q 3016 2534 2758 2815 
Q 2500 3097 2075 3097 
Q 1594 3097 1305 2825 
Q 1016 2553 972 2059 
L 3022 2063 
z
M 1738 -441 
L 2313 -441 
L 2313 -1172 
L 1738 -1172 
L 1738 -441 
z
M 1801 5119 
L 2263 5119 
L 3029 3944 
L 2595 3944 
L 2032 4709 
L 1470 3944 
L 1035 3944 
L 1801 5119 
z
" transform="scale(0.015625)"/>
       <path id="DejaVuSans-74" d="M 1172 4494 
L 1172 3500 
L 2356 3500 
L 2356 3053 
L 1172 3053 
L 1172 1153 
Q 1172 725 1289 603 
Q 1406 481 1766 481 
L 2356 481 
L 2356 0 
L 1766 0 
Q 1100 0 847 248 
Q 594 497 594 1153 
L 594 3053 
L 172 3053 
L 172 3500 
L 594 3500 
L 594 4494 
L 1172 4494 
z
" transform="scale(0.015625)"/>
      </defs>
      <use xlink:href="#DejaVuSans-4e"/>
      <use xlink:href="#DejaVuSans-68" x="74.804688"/>
      <use xlink:href="#DejaVuSans-1ea1" x="138.183594"/>
      <use xlink:href="#DejaVuSans-63" x="199.462891"/>
      <use xlink:href="#DejaVuSans-20" x="254.443359"/>
      <use xlink:href="#DejaVuSans-56" x="286.230469"/>
      <use xlink:href="#DejaVuSans-69" x="352.388672"/>
      <use xlink:href="#DejaVuSans-1ec7" x="380.171875"/>
      <use xlink:href="#DejaVuSans-74" x="441.695312"/>
     </g>
    </g>
   </g>
  </g>
  <g id="text_16">
   <!-- Tỉ lệ Nhạc Việt và Nhạc Ngoại trong các top bài hát -->
   <g transform="translate(134.52 21.24) scale(0.12 -0.12)">
    <defs>
     <path id="DejaVuSans-1ec9" d="M 603 3500 
L 1178 3500 
L 1178 0 
L 603 0 
L 603 3500 
z
M 891 3584 
L 891 3584 
z
M 212 5025 
Q 562 5184 890 5184 
Q 1215 5184 1413 5051 
Q 1612 4919 1612 4709 
Q 1612 4519 1337 4316 
L 1199 4216 
Q 1090 4134 1078 4106 
Q 1056 4056 1056 3956 
L 684 3956 
L 684 3994 
Q 684 4119 731 4203 
Q 778 4288 937 4403 
L 1078 4509 
Q 1221 4616 1221 4741 
Q 1221 4806 1124 4862 
Q 1028 4919 806 4919 
Q 524 4919 212 4756 
L 212 5025 
z
" transform="scale(0.015625)"/>
     <path id="DejaVuSans-76" d="M 191 3500 
L 800 3500 
L 1894 563 
L 2988 3500 
L 3597 3500 
L 2284 0 
L 1503 0 
L 191 3500 
z
" transform="scale(0.015625)"/>
     <path id="DejaVuSans-e0" d="M 2194 1759 
Q 1497 1759 1228 1600 
Q 959 1441 959 1056 
Q 959 750 1161 570 
Q 1363 391 1709 391 
Q 2188 391 2477 730 
Q 2766 1069 2766 1631 
L 2766 1759 
L 2194 1759 
z
M 3341 1997 
L 3341 0 
L 2766 0 
L 2766 531 
Q 2569 213 2275 61 
Q 1981 -91 1556 -91 
Q 1019 -91 701 211 
Q 384 513 384 1019 
Q 384 1609 779 1909 
Q 1175 2209 1959 2209 
L 2766 2209 
L 2766 2266 
Q 2766 2663 2505 2880 
Q 2244 3097 1772 3097 
Q 1472 3097 1187 3025 
Q 903 2953 641 2809 
L 641 3341 
Q 956 3463 1253 3523 
Q 1550 3584 1831 3584 
Q 2591 3584 2966 3190 
Q 3341 2797 3341 1997 
z
M 1403 5119 
L 2284 3950 
L 1806 3950 
L 787 5119 
L 1403 5119 
z
" transform="scale(0.015625)"/>
     <path id="DejaVuSans-72" d="M 2631 2963 
Q 2534 3019 2420 3045 
Q 2306 3072 2169 3072 
Q 1681 3072 1420 2755 
Q 1159 2438 1159 1844 
L 1159 0 
L 581 0 
L 581 3500 
L 1159 3500 
L 1159 2956 
Q 1341 3275 1631 3429 
Q 1922 3584 2338 3584 
Q 2397 3584 2469 3576 
Q 2541 3569 2628 3553 
L 2631 2963 
z
" transform="scale(0.015625)"/>
     <path id="DejaVuSans-6e" d="M 3513 2113 
L 3513 0 
L 2938 0 
L 2938 2094 
Q 2938 2591 2744 2837 
Q 2550 3084 2163 3084 
Q 1697 3084 1428 2787 
Q 1159 2491 1159 1978 
L 1159 0 
L 581 0 
L 581 3500 
L 1159 3500 
L 1159 2956 
Q 1366 3272 1645 3428 
Q 1925 3584 2291 3584 
Q 2894 3584 3203 3211 
Q 3513 2838 3513 2113 
z
" transform="scale(0.015625)"/>
     <path id="DejaVuSans-e1" d="M 2194 1759 
Q 1497 1759 1228 1600 
Q 959 1441 959 1056 
Q 959 750 1161 570 
Q 1363 391 1709 391 
Q 2188 391 2477 730 
Q 2766 1069 2766 1631 
L 2766 1759 
L 2194 1759 
z
M 3341 1997 
L 3341 0 
L 2766 0 
L 2766 531 
Q 2569 213 2275 61 
Q 1981 -91 1556 -91 
Q 1019 -91 701 211 
Q 384 513 384 1019 
Q 384 1609 779 1909 
Q 1175 2209 1959 2209 
L 2766 2209 
L 2766 2266 
Q 2766 2663 2505 2880 
Q 2244 3097 1772 3097 
Q 1472 3097 1187 3025 
Q 903 2953 641 2809 
L 641 3341 
Q 956 3463 1253 3523 
Q 1550 3584 1831 3584 
Q 2591 3584 2966 3190 
Q 3341 2797 3341 1997 
z
M 2290 5119 
L 2912 5119 
L 1894 3944 
L 1415 3944 
L 2290 5119 
z
" transform="scale(0.015625)"/>
     <path id="DejaVuSans-70" d="M 1159 525 
L 1159 -1331 
L 581 -1331 
L 581 3500 
L 1159 3500 
L 1159 2969 
Q 1341 3281 1617 3432 
Q 1894 3584 2278 3584 
Q 2916 3584 3314 3078 
Q 3713 2572 3713 1747 
Q 3713 922 3314 415 
Q 2916 -91 2278 -91 
Q 1894 -91 1617 61 
Q 1341 213 1159 525 
z
M 3116 1747 
Q 3116 2381 2855 2742 
Q 2594 3103 2138 3103 
Q 1681 3103 1420 2742 
Q 1159 2381 1159 1747 
Q 1159 1113 1420 752 
Q 1681 391 2138 391 
Q 2594 391 2855 752 
Q 3116 1113 3116 1747 
z
" transform="scale(0.015625)"/>
     <path id="DejaVuSans-62" d="M 3116 1747 
Q 3116 2381 2855 2742 
Q 2594 3103 2138 3103 
Q 1681 3103 1420 2742 
Q 1159 2381 1159 1747 
Q 1159 1113 1420 752 
Q 1681 391 2138 391 
Q 2594 391 2855 752 
Q 3116 1113 3116 1747 
z
M 1159 2969 
Q 1341 3281 1617 3432 
Q 1894 3584 2278 3584 
Q 2916 3584 3314 3078 
Q 3713 2572 3713 1747 
Q 3713 922 3314 415 
Q 2916 -91 2278 -91 
Q 1894 -91 1617 61 
Q 1341 213 1159 525 
L 1159 0 
L 581 0 
L 581 4863 
L 1159 4863 
L 1159 2969 
z
" transform="scale(0.015625)"/>
    </defs>
    <use xlink:href="#DejaVuSans-54"/>
    <use xlink:href="#DejaVuSans-1ec9" x="61.083984"/>
    <use xlink:href="#DejaVuSans-20" x="88.867188"/>
    <use xlink:href="#DejaVuSans-6c" x="120.654297"/>
    <use xlink:href="#DejaVuSans-1ec7" x="148.4375"/>
    <use xlink:href="#DejaVuSans-20" x="209.960938"/>
    <use xlink:href="#DejaVuSans-4e" x="241.748047"/>
    <use xlink:href="#DejaVuSans-68" x="316.552734"/>
    <use xlink:href="#DejaVuSans-1ea1" x="379.931641"/>
    <use xlink:href="#DejaVuSans-63" x="441.210938"/>
    <use xlink:href="#DejaVuSans-20" x="496.191406"/>
    <use xlink:href="#DejaVuSans-56" x="527.978516"/>
    <use xlink:href="#DejaVuSans-69" x="594.136719"/>
    <use xlink:href="#DejaVuSans-1ec7" x="621.919922"/>
    <use xlink:href="#DejaVuSans-74" x="683.443359"/>
    <use xlink:href="#DejaVuSans-20" x="722.652344"/>
    <use xlink:href="#DejaVuSans-76" x="754.439453"/>
    <use xlink:href="#DejaVuSans-e0" x="813.619141"/>
    <use xlink:href="#DejaVuSans-20" x="874.898438"/>
    <use xlink:href="#DejaVuSans-4e" x="906.685547"/>
    <use xlink:href="#DejaVuSans-68" x="981.490234"/>
    <use xlink:href="#DejaVuSans-1ea1" x="1044.869141"/>
    <use xlink:href="#DejaVuSans-63" x="1106.148438"/>
    <use xlink:href="#DejaVuSans-20" x="1161.128906"/>
    <use xlink:href="#DejaVuSans-4e" x="1192.916016"/>
    <use xlink:href="#DejaVuSans-67" x="1267.720703"/>
    <use xlink:href="#DejaVuSans-6f" x="1331.197266"/>
    <use xlink:href="#DejaVuSans-1ea1" x="1392.378906"/>
    <use xlink:href="#DejaVuSans-69" x="1453.658203"/>
    <use xlink:href="#DejaVuSans-20" x="1481.441406"/>
    <use xlink:href="#DejaVuSans-74" x="1513.228516"/>
    <use xlink:href="#DejaVuSans-72" x="1552.4375"/>
    <use xlink:href="#DejaVuSans-6f" x="1591.300781"/>
    <use xlink:href="#DejaVuSans-6e" x="1652.482422"/>
    <use xlink:href="#DejaVuSans-67" x="1715.861328"/>
    <use xlink:href="#DejaVuSans-20" x="1779.337891"/>
    <use xlink:href="#DejaVuSans-63" x="1811.125"/>
    <use xlink:href="#DejaVuSans-e1" x="1866.105469"/>
    <use xlink:href="#DejaVuSans-63" x="1927.384766"/>
    <use xlink:href="#DejaVuSans-20" x="1982.365234"/>
    <use xlink:href="#DejaVuSans-74" x="2014.152344"/>
    <use xlink:href="#DejaVuSans-6f" x="2053.361328"/>
    <use xlink:href="#DejaVuSans-70" x="2114.542969"/>
    <use xlink:href="#DejaVuSans-20" x="2178.019531"/>
    <use xlink:href="#DejaVuSans-62" x="2209.806641"/>
    <use xlink:href="#DejaVuSans-e0" x="2273.283203"/>
    <use xlink:href="#DejaVuSans-69" x="2334.5625"/>
    <use xlink:href="#DejaVuSans-20" x="2362.345703"/>
    <use xlink:href="#DejaVuSans-68" x="2394.132812"/>
    <use xlink:href="#DejaVuSans-e1" x="2457.511719"/>
    <use xlink:href="#DejaVuSans-74" x="2518.791016"/>
   </g>
  </g>
 </g>
</svg>
